<?xml version="1.0" encoding="utf-8"?>
<!DOCTYPE svg PUBLIC "-//W3C//DTD SVG 20010904//EN" "http://www.w3.org/TR/2001/REC-SVG-20010904/DTD/svg10.dtd">
<svg version="1.0" xmlns="http://www.w3.org/2000/svg" width="318pt" height="229pt" viewBox="0 0 318 229" style="" preserveAspectRatio="xMidYMid meet">
<g fill="#40666EFE" stroke="#40666EFE">
<path d="M 91.455 33.455 C 89.231 35.678 89.000 36.715 89.000 44.455 L 89.000 53.000 70.450 53.000 C 55.826 53.000 51.280 53.321 48.967 54.517 C 42.869 57.671 43.000 56.220 43.000 120.403 C 43.000 162.484 43.324 179.617 44.154 181.439 C 46.899 187.464 46.829 187.454 90.000 188.000 L 129.500 188.500 129.500 193.000 L 129.500 197.500 122.000 198.000 L 114.500 198.500 114.193 202.750 L 113.885 207.000 101.443 207.000 C 93.814 207.000 89.000 207.387 89.000 208.000 C 89.000 208.657 112.667 209.000 158.000 209.000 C 203.333 209.000 227.000 208.657 227.000 208.000 C 227.000 207.369 220.186 207.000 208.557 207.000 L 190.115 207.000 189.807 202.750 L 189.500 198.500 181.750 198.208 L 174.000 197.916 174.000 192.958 L 174.000 188.000 213.326 188.000 L 252.651 188.000 254.701 185.750 C 259.030 180.997 259.000 181.455 259.000 120.051 L 259.000 60.971 255.580 57.235 C 252.173 53.514 252.122 53.498 242.578 53.000 C 233.160 52.509 232.997 52.538 232.998 54.750 C 232.999 55.988 233.450 57.000 234.000 57.000 C 234.550 57.000 235.000 56.550 235.000 56.000 C 235.000 55.430 237.955 55.000 241.865 55.000 C 249.463 55.000 252.759 56.699 255.520 62.039 C 257.814 66.474 257.724 174.671 255.423 179.522 C 252.187 186.340 257.690 186.000 150.567 186.000 C 69.315 186.000 53.394 185.774 50.534 184.579 C 43.840 181.782 44.000 183.350 44.004 120.300 C 44.007 65.765 44.085 63.373 45.956 60.304 C 48.805 55.632 52.823 54.844 71.987 55.197 C 86.754 55.468 88.510 55.683 88.811 57.250 C 89.120 58.862 87.780 59.000 71.762 59.000 C 55.649 59.000 54.217 59.149 52.189 61.039 L 50.000 63.078 49.870 110.789 C 49.696 174.753 49.704 174.975 52.269 177.750 L 54.349 180.000 151.102 180.000 L 247.855 180.000 249.927 177.365 C 251.967 174.772 252.000 173.861 252.000 119.500 C 252.000 54.823 252.796 59.418 241.492 58.835 L 234.996 58.500 235.114 61.500 C 235.180 63.187 235.432 63.734 235.689 62.750 C 236.285 60.472 243.618 60.344 246.777 62.557 L 249.000 64.113 249.000 111.557 L 249.000 159.000 232.500 159.000 L 216.000 159.000 215.767 131.750 L 215.535 104.500 215.251 130.750 L 214.967 157.000 211.983 157.000 L 209.000 157.000 209.000 120.137 L 209.000 83.274 215.406 82.760 C 218.929 82.477 222.854 81.515 224.128 80.623 C 225.882 79.395 226.046 79.000 224.806 79.000 C 223.904 79.000 223.005 79.486 222.807 80.079 C 222.590 80.731 219.290 81.158 214.474 81.158 L 206.500 81.157 206.773 119.079 L 207.047 157.000 152.523 157.000 L 98.000 157.000 98.000 104.500 L 98.000 52.000 145.938 52.000 L 193.877 52.000 193.688 54.750 C 193.512 57.320 193.607 57.265 195.131 53.914 C 197.270 49.208 203.022 43.000 205.243 43.000 C 206.209 43.000 207.000 42.550 207.000 42.000 C 207.000 41.450 206.687 41.000 206.304 41.000 C 204.924 41.000 197.859 46.395 196.905 48.177 C 195.981 49.904 193.285 50.000 145.965 50.000 L 96.000 50.000 96.000 103.566 L 96.000 157.133 93.250 156.816 L 90.500 156.500 90.242 97.315 L 89.984 38.130 92.405 35.315 L 94.826 32.500 150.663 32.215 C 181.373 32.058 207.500 32.176 208.722 32.477 C 211.259 33.102 215.000 36.766 215.000 38.625 C 215.000 39.312 213.538 40.055 211.750 40.277 C 209.892 40.507 210.855 40.699 214.000 40.724 C 217.025 40.748 218.713 40.562 217.750 40.311 C 216.788 40.059 216.000 38.966 216.000 37.881 C 216.000 36.797 214.895 34.805 213.545 33.455 L 211.091 31.000 152.500 31.000 L 93.909 31.000 91.455 33.455 M 89.000 110.023 L 89.000 159.045 70.750 158.773 L 52.500 158.500 52.240 112.215 L 51.980 65.929 54.445 63.465 C 56.859 61.050 57.234 61.000 72.955 61.000 L 89.000 61.000 89.000 110.023 M 249.000 167.977 C 249.000 174.195 248.745 175.121 246.652 176.492 C 244.574 177.854 233.486 178.000 150.064 177.765 L 55.823 177.500 53.911 175.139 C 52.513 173.412 52.000 171.197 52.000 166.889 L 52.000 161.000 150.500 161.000 L 249.000 161.000 249.000 167.977 M 187.500 203.500 L 187.500 206.500 151.500 206.500 L 115.500 206.500 115.163 204.113 C 114.977 202.800 115.427 201.341 116.163 200.871 C 116.898 200.401 133.250 200.125 152.500 200.258 L 187.500 200.500 187.500 203.500 M 171.805 193.250 L 172.110 198.000 151.555 198.000 L 131.000 198.000 131.000 193.667 C 131.000 191.283 131.309 189.024 131.687 188.646 C 132.065 188.268 141.178 188.081 151.937 188.229 L 171.500 188.500 171.805 193.250 "/></g>
<g fill="#FEFEFCFE" stroke="#FEFEFCFE">
<path d="M 99.000 54.417 C 99.000 55.746 99.563 57.096 100.250 57.417 C 101.250 57.883 101.250 58.117 100.250 58.583 C 99.563 58.904 99.000 59.992 99.000 61.000 C 99.000 62.008 99.563 63.096 100.250 63.417 C 101.250 63.883 101.250 64.117 100.250 64.583 C 99.277 65.037 99.000 75.228 99.000 110.583 L 99.000 156.000 153.000 156.000 L 207.000 156.000 207.000 119.645 L 207.000 83.290 202.502 80.447 C 197.578 77.334 193.276 71.629 192.345 66.977 L 191.750 64.000 163.344 64.000 C 138.475 64.000 134.862 63.805 134.336 62.433 C 132.965 58.860 135.429 58.508 164.048 58.179 C 186.665 57.920 192.000 57.602 192.000 56.511 C 192.000 55.770 192.273 54.452 192.607 53.582 C 193.155 52.153 188.652 52.000 146.107 52.000 L 99.000 52.000 99.000 54.417 M 117.154 92.082 C 118.635 92.875 119.018 93.794 118.584 95.521 C 118.259 96.817 118.444 98.157 118.996 98.498 C 119.605 98.874 120.000 97.520 120.000 95.059 C 120.000 92.118 120.413 91.000 121.500 91.000 C 122.581 91.000 123.000 92.108 123.000 94.969 C 123.000 98.179 123.303 98.821 124.584 98.329 C 125.746 97.883 125.845 97.522 124.956 96.973 C 124.289 96.561 124.053 95.723 124.431 95.112 C 125.331 93.656 129.284 93.684 130.758 95.158 C 131.634 96.034 132.287 96.007 133.448 95.043 C 134.292 94.343 136.336 93.969 137.991 94.212 C 140.399 94.565 141.000 94.289 141.000 92.827 C 141.000 91.822 141.675 91.000 142.500 91.000 C 143.435 91.000 144.000 91.945 144.000 93.508 C 144.000 95.747 144.210 95.886 145.955 94.796 C 148.386 93.278 149.733 94.412 147.992 96.510 C 146.933 97.785 146.938 98.515 148.017 100.533 C 149.814 103.889 148.282 105.060 145.914 102.139 C 144.045 99.835 144.000 99.829 144.000 101.889 C 144.000 103.099 143.360 104.000 142.500 104.000 C 141.675 104.000 141.000 103.460 141.000 102.800 C 141.000 101.867 140.733 101.867 139.800 102.800 C 138.139 104.461 135.443 104.300 133.571 102.429 C 132.202 101.059 132.000 101.051 132.000 102.362 C 132.000 104.056 126.333 104.395 124.339 102.820 C 123.620 102.252 122.931 102.302 122.530 102.951 C 121.513 104.596 120.002 104.180 119.985 102.250 C 119.972 100.839 119.797 100.773 119.079 101.907 C 118.555 102.735 116.401 103.352 113.844 103.407 L 109.500 103.500 109.190 98.627 C 109.020 95.947 109.118 93.134 109.409 92.377 C 110.040 90.733 114.327 90.569 117.154 92.082 M 153.000 92.500 C 153.000 93.325 153.845 94.000 154.878 94.000 C 155.910 94.000 157.325 94.686 158.021 95.525 C 159.155 96.892 159.462 96.892 160.972 95.525 C 163.322 93.399 166.748 93.623 168.232 96.000 C 168.919 97.100 170.160 97.993 170.991 97.985 C 172.237 97.972 172.260 97.817 171.122 97.096 C 169.217 95.890 170.629 94.000 173.437 94.000 C 176.614 94.000 178.197 96.235 177.818 100.185 C 177.519 103.305 177.294 103.485 174.000 103.242 C 172.075 103.100 169.825 102.944 169.000 102.895 C 168.175 102.846 166.529 103.116 165.342 103.495 C 163.858 103.970 162.579 103.579 161.241 102.241 C 159.360 100.360 159.258 100.356 158.145 102.139 C 157.318 103.464 156.081 103.884 153.747 103.631 C 150.513 103.280 150.499 103.254 150.202 97.139 C 149.960 92.136 150.191 91.000 151.452 91.000 C 152.304 91.000 153.000 91.675 153.000 92.500 M 198.000 150.000 C 198.000 150.652 182.500 151.000 153.500 151.000 C 124.500 151.000 109.000 150.652 109.000 150.000 C 109.000 149.348 124.500 149.000 153.500 149.000 C 182.500 149.000 198.000 149.348 198.000 150.000 M 198.000 139.000 C 198.000 139.652 182.500 140.000 153.500 140.000 C 124.500 140.000 109.000 139.652 109.000 139.000 C 109.000 138.348 124.500 138.000 153.500 138.000 C 182.500 138.000 198.000 138.348 198.000 139.000 M 198.000 134.000 C 198.000 134.652 182.500 135.000 153.500 135.000 C 124.500 135.000 109.000 134.652 109.000 134.000 C 109.000 133.348 124.500 133.000 153.500 133.000 C 182.500 133.000 198.000 133.348 198.000 134.000 M 198.000 128.000 C 198.000 128.652 182.500 129.000 153.500 129.000 C 124.500 129.000 109.000 128.652 109.000 128.000 C 109.000 127.348 124.500 127.000 153.500 127.000 C 182.500 127.000 198.000 127.348 198.000 128.000 M 198.000 145.000 C 198.000 145.651 183.167 146.000 155.500 146.000 C 127.833 146.000 113.000 145.651 113.000 145.000 C 113.000 144.349 127.833 144.000 155.500 144.000 C 183.167 144.000 198.000 144.349 198.000 145.000 M 198.500 93.000 C 198.500 93.833 197.611 94.500 196.500 94.500 C 194.870 94.500 194.407 95.333 194.000 99.000 C 193.534 103.195 193.297 103.506 190.500 103.594 C 186.229 103.729 184.000 102.312 184.000 99.465 C 184.000 95.861 182.181 96.450 181.813 100.173 C 181.263 105.745 179.000 104.807 179.000 99.007 L 179.000 93.847 182.250 94.025 C 188.806 94.384 191.000 94.012 191.000 92.542 C 191.000 91.487 192.036 91.142 194.750 91.292 C 197.324 91.435 198.500 91.970 198.500 93.000 M 127.571 58.429 C 130.385 61.242 128.097 65.000 123.571 65.000 C 121.238 65.000 121.000 64.630 121.000 61.000 C 121.000 57.370 121.238 57.000 123.571 57.000 C 124.986 57.000 126.786 57.643 127.571 58.429 M 116.418 57.607 C 118.558 58.428 118.517 63.865 116.364 64.691 C 112.778 66.067 109.630 61.459 112.182 58.568 C 113.679 56.874 114.199 56.756 116.418 57.607 M 106.456 58.344 C 108.807 60.063 107.861 65.000 105.181 65.000 C 101.536 65.000 99.839 61.234 102.250 58.496 C 103.825 56.708 104.199 56.694 106.456 58.344 "/></g>
<g fill="#FEFEFCFE" stroke="#FEFEFCFE">
<path d="M 55.630 67.250 C 55.299 68.488 55.021 89.413 55.014 113.750 L 55.000 158.000 71.500 158.000 L 88.000 158.000 88.000 111.500 L 88.000 65.000 72.117 65.000 C 56.490 65.000 56.224 65.036 55.630 67.250 "/></g>
<g fill="#FEFEFCFE" stroke="#FEFEFCFE">
<path d="M 238.844 64.707 C 236.996 64.991 235.992 65.897 235.543 67.686 C 234.015 73.774 227.680 80.318 221.148 82.556 C 217.594 83.773 217.492 83.949 217.200 89.403 C 216.981 93.488 216.508 95.000 215.450 95.000 C 214.359 95.000 214.000 93.638 214.000 89.500 C 214.000 84.667 213.758 84.000 212.000 84.000 C 210.037 84.000 210.000 84.667 210.000 120.000 C 210.000 155.333 210.037 156.000 212.000 156.000 C 213.948 156.000 214.000 155.333 214.000 130.500 C 214.000 108.500 214.206 105.000 215.500 105.000 C 216.796 105.000 217.000 108.611 217.000 131.500 L 217.000 158.000 231.872 158.000 L 246.744 158.000 247.385 153.995 C 247.737 151.792 247.999 130.914 247.967 107.600 L 247.908 65.209 245.704 64.618 C 244.492 64.293 243.050 64.089 242.500 64.163 C 241.950 64.238 240.305 64.483 238.844 64.707 M 217.000 99.583 C 217.000 102.716 214.652 102.373 214.180 99.172 C 213.968 97.729 214.388 97.000 215.430 97.000 C 216.451 97.000 217.000 97.903 217.000 99.583 "/></g>
<g fill="#A4A4A41E" stroke="#A4A4A41E">
<path d="M 179.698 13.258 C 175.074 20.486 171.000 27.876 171.000 29.035 C 171.000 29.623 178.796 30.000 190.923 30.000 L 210.847 30.000 213.923 32.589 C 215.615 34.013 217.000 35.932 217.000 36.853 C 217.000 37.936 219.093 39.453 222.926 41.147 C 227.190 43.031 229.645 44.911 231.676 47.845 L 234.500 51.924 242.016 51.962 C 255.855 52.032 259.922 56.419 260.116 71.484 C 260.180 76.443 260.438 79.713 260.689 78.750 C 260.941 77.788 261.564 77.000 262.073 77.000 C 262.583 77.000 263.000 76.507 263.000 75.904 C 263.000 75.302 263.836 73.614 264.857 72.154 C 265.878 70.694 267.918 67.320 269.390 64.656 L 272.066 59.811 269.408 55.156 C 267.947 52.595 265.618 48.363 264.234 45.750 C 262.849 43.138 261.405 41.000 261.025 41.000 C 260.644 41.000 260.320 40.438 260.305 39.750 C 260.270 38.240 251.156 22.753 249.793 21.888 C 249.263 21.552 248.932 20.953 249.057 20.558 C 249.182 20.163 247.786 17.176 245.955 13.920 L 242.625 8.000 212.843 8.000 L 183.061 8.000 179.698 13.258 "/></g>
<g fill="#FEFEFCFE" stroke="#FEFEFCFE">
<path d="M 53.000 168.845 C 53.000 177.736 44.142 177.000 151.174 177.000 C 258.362 177.000 249.000 177.797 249.000 168.671 L 249.000 164.000 151.000 164.000 L 53.000 164.000 53.000 168.845 "/></g>
<g fill="#FEFEFCFE" stroke="#FEFEFCFE">
<path d="M 93.174 35.314 L 91.000 37.629 91.000 96.814 C 91.000 155.247 91.025 156.000 92.991 156.000 C 94.951 156.000 94.987 155.169 95.241 102.750 L 95.500 49.500 145.358 49.241 L 195.215 48.981 198.016 45.983 C 201.106 42.675 208.246 39.056 211.750 39.022 C 214.591 38.994 214.612 37.648 211.811 35.039 C 209.662 33.036 208.605 33.000 152.486 33.000 L 95.349 33.000 93.174 35.314 "/></g>
<g fill="#FEFEFCFE" stroke="#FEFEFCFE">
<path d="M 55.206 56.742 C 49.359 57.072 48.772 57.326 46.959 60.299 C 45.084 63.375 45.007 65.735 45.004 120.850 L 45.000 178.200 48.400 181.600 L 51.800 185.000 149.853 185.000 C 221.047 185.000 248.590 184.688 250.405 183.861 C 255.992 181.316 256.000 181.223 256.000 119.499 L 256.000 62.800 252.600 59.400 C 249.361 56.161 248.876 56.006 242.350 56.119 L 235.500 56.238 241.965 57.518 C 246.748 58.465 249.024 59.489 250.715 61.455 L 253.000 64.112 253.000 120.010 L 253.000 175.909 250.455 178.455 L 247.909 181.000 151.889 181.000 C 80.806 181.000 55.301 180.698 53.684 179.837 C 48.966 177.324 49.065 178.612 49.032 119.339 L 49.000 63.178 52.077 60.589 C 55.114 58.033 55.363 58.000 71.636 58.000 C 82.369 58.000 87.902 57.651 87.500 57.000 C 86.912 56.049 69.853 55.913 55.206 56.742 "/></g>
<g fill="#A4A4A41E" stroke="#A4A4A41E">
<path d="M 105.000 210.789 C 105.000 211.767 111.844 225.035 113.233 226.750 C 114.002 227.700 121.500 228.000 144.490 228.000 L 174.734 228.000 177.534 223.770 C 179.074 221.443 180.333 218.968 180.333 218.270 C 180.333 217.571 180.611 217.000 180.951 217.000 C 181.600 217.000 185.000 211.622 185.000 210.596 C 185.000 210.268 167.000 210.000 145.000 210.000 C 123.000 210.000 105.000 210.355 105.000 210.789 "/></g>
<g fill="#F6C800FE" stroke="#F6C800FE">
<path d="M 201.659 47.401 C 199.097 49.821 197.000 52.521 197.000 53.401 C 197.000 54.280 196.550 55.000 196.000 55.000 C 195.435 55.000 195.000 57.853 195.000 61.559 C 195.000 65.677 195.372 67.888 196.000 67.500 C 196.550 67.160 197.000 67.809 197.000 68.941 C 197.000 70.073 197.450 71.000 198.000 71.000 C 198.550 71.000 199.000 71.707 199.000 72.571 C 199.000 74.592 201.408 77.000 203.429 77.000 C 204.293 77.000 205.000 77.450 205.000 78.000 C 205.000 78.550 205.900 79.000 207.000 79.000 C 208.100 79.000 209.000 79.450 209.000 80.000 C 209.000 80.550 211.250 81.000 214.000 81.000 C 216.750 81.000 219.000 80.550 219.000 80.000 C 219.000 79.450 220.041 79.000 221.313 79.000 C 223.427 79.000 229.000 74.399 229.000 72.653 C 229.000 72.248 229.900 70.950 231.000 69.770 C 232.562 68.093 233.000 66.241 233.000 61.311 C 233.000 57.770 232.561 55.000 232.000 55.000 C 231.450 55.000 231.000 54.310 231.000 53.467 C 231.000 51.476 224.524 45.000 222.533 45.000 C 221.690 45.000 221.000 44.550 221.000 44.000 C 221.000 43.424 217.886 43.000 213.659 43.000 C 206.356 43.000 206.294 43.022 201.659 47.401 M 222.208 46.250 C 225.663 48.230 229.000 51.770 229.000 53.455 C 229.000 54.305 229.450 55.000 230.000 55.000 C 231.546 55.000 231.181 65.330 229.517 68.666 C 227.728 72.252 222.596 77.000 220.509 77.000 C 219.679 77.000 219.000 77.450 219.000 78.000 C 219.000 80.609 207.330 78.152 203.561 74.750 C 202.495 73.788 201.344 73.000 201.004 73.000 C 200.663 73.000 199.623 71.274 198.692 69.164 C 196.861 65.012 196.371 55.000 198.000 55.000 C 198.550 55.000 199.000 54.305 199.000 53.455 C 199.000 51.851 202.189 48.377 205.559 46.309 C 208.149 44.720 219.468 44.680 222.208 46.250 "/></g>
<g fill="#00000200" stroke="#00000200">
<path d="M 194.250 194.941 C 192.463 198.196 191.000 202.015 191.000 203.429 L 191.000 206.000 208.000 206.000 L 225.000 206.000 225.000 203.500 L 225.000 201.000 237.000 201.000 L 249.000 201.000 249.000 195.000 L 249.000 189.000 223.250 189.012 L 197.500 189.024 194.250 194.941 M 209.000 197.000 L 209.000 201.000 201.297 201.000 L 193.594 201.000 197.500 197.000 C 200.701 193.721 202.091 193.000 205.203 193.000 C 208.966 193.000 209.000 193.036 209.000 197.000 "/></g>
<g fill="#00000200" stroke="#00000200">
<path d="M 183.797 213.006 C 182.860 214.653 182.549 216.000 183.106 216.000 C 183.662 216.000 183.835 216.457 183.490 217.016 C 183.144 217.575 182.373 217.731 181.776 217.362 C 181.155 216.978 180.976 217.153 181.358 217.771 C 181.725 218.364 181.457 220.091 180.763 221.607 C 179.783 223.745 179.492 223.930 179.464 222.432 C 179.430 220.654 179.331 220.674 178.214 222.684 L 177.000 224.868 201.000 224.964 L 225.000 225.061 225.000 217.530 L 225.000 210.000 205.250 210.006 L 185.500 210.013 183.797 213.006 "/></g>
<g fill="#A4A4A41E" stroke="#A4A4A41E">
<path d="M 121.000 14.950 C 121.000 15.472 119.666 17.877 118.035 20.293 C 116.404 22.710 114.615 25.883 114.059 27.344 L 113.050 30.000 132.542 30.000 L 152.035 30.000 148.372 23.250 C 146.358 19.538 144.270 15.938 143.732 15.250 C 142.552 13.740 121.000 13.455 121.000 14.950 "/></g>
<g fill="#A4A4A41E" stroke="#A4A4A41E">
<path d="M 92.687 190.750 C 93.030 191.713 93.646 192.950 94.056 193.500 C 94.466 194.050 96.161 196.975 97.824 200.000 L 100.846 205.500 106.923 205.798 L 113.000 206.095 113.000 202.748 C 113.000 197.922 114.475 197.000 122.200 197.000 L 129.000 197.000 129.000 193.000 L 129.000 189.000 110.531 189.000 C 93.371 189.000 92.107 189.124 92.687 190.750 "/></g>
<g fill="#FEFEFCFE" stroke="#FEFEFCFE">
<path d="M 116.000 203.500 L 116.000 206.000 151.500 206.000 L 187.000 206.000 187.000 203.500 L 187.000 201.000 151.500 201.000 L 116.000 201.000 116.000 203.500 "/></g>
<g fill="#A4A4A41E" stroke="#A4A4A41E">
<path d="M 54.571 63.571 C 53.188 64.955 53.000 70.697 53.000 111.571 C 53.000 141.857 53.348 158.000 54.000 158.000 C 54.652 158.000 55.000 142.067 55.000 112.200 C 55.000 77.911 55.302 66.098 56.200 65.200 C 57.029 64.371 62.133 64.000 72.700 64.000 C 82.233 64.000 88.000 63.623 88.000 63.000 C 88.000 62.375 82.024 62.000 72.071 62.000 C 58.924 62.000 55.868 62.274 54.571 63.571 "/></g>
<g fill="#EAECF8FE" stroke="#EAECF8FE">
<path d="M 134.345 60.543 C 134.019 61.392 134.044 62.377 134.399 62.733 C 134.755 63.088 146.171 63.255 159.768 63.103 C 183.568 62.837 186.981 62.396 185.375 59.798 C 185.104 59.359 173.644 59.000 159.910 59.000 C 138.324 59.000 134.857 59.209 134.345 60.543 "/></g>
<g fill="#8EACAEFE" stroke="#8EACAEFE">
<path d="M 52.409 162.377 C 52.118 163.134 52.051 165.947 52.260 168.627 L 52.640 173.500 52.820 167.755 L 53.000 162.010 151.250 161.750 L 249.500 161.490 151.219 161.245 C 68.515 161.039 52.853 161.218 52.409 162.377 "/></g>
<g fill="#EAECF8FE" stroke="#EAECF8FE">
<path d="M 111.000 134.000 C 109.625 134.440 128.638 134.845 153.250 134.900 C 182.483 134.965 198.000 134.653 198.000 134.000 C 198.000 132.788 114.784 132.788 111.000 134.000 "/></g>
<g fill="#EAECF8FE" stroke="#EAECF8FE">
<path d="M 113.000 139.000 C 113.000 139.651 127.647 140.000 154.941 140.000 C 181.823 140.000 197.104 139.641 197.500 139.000 C 197.908 138.339 183.677 138.000 155.559 138.000 C 127.853 138.000 113.000 138.349 113.000 139.000 "/></g>
<g fill="#EAECF8FE" stroke="#EAECF8FE">
<path d="M 113.000 150.000 C 113.000 150.651 127.667 151.000 155.000 151.000 C 182.333 151.000 197.000 150.651 197.000 150.000 C 197.000 149.349 182.333 149.000 155.000 149.000 C 127.667 149.000 113.000 149.349 113.000 150.000 "/></g>
<g fill="#A4A4A41E" stroke="#A4A4A41E">
<path d="M 175.000 193.000 L 175.000 197.000 182.031 197.000 C 187.411 197.000 189.200 197.358 189.648 198.526 C 190.100 199.702 190.550 199.788 191.617 198.903 C 192.378 198.272 193.010 197.248 193.022 196.628 C 193.034 196.007 193.924 194.375 195.000 193.000 C 196.076 191.625 196.966 190.163 196.978 189.750 C 196.990 189.338 192.050 189.000 186.000 189.000 L 175.000 189.000 175.000 193.000 "/></g>
<g fill="#FEFEFCFE" stroke="#FEFEFCFE">
<path d="M 132.000 195.000 C 132.000 196.932 132.667 197.000 151.500 197.000 C 170.333 197.000 171.000 196.932 171.000 195.000 C 171.000 193.068 170.333 193.000 151.500 193.000 C 132.667 193.000 132.000 193.068 132.000 195.000 "/></g>
<g fill="#000000FE" stroke="#000000FE">
<path d="M 201.000 70.987 C 201.000 71.531 202.873 73.157 205.163 74.603 C 211.598 78.665 219.639 78.110 225.250 73.217 C 226.213 72.377 227.000 71.310 227.000 70.845 C 227.000 70.380 221.150 70.000 214.000 70.000 C 206.110 70.000 201.000 70.388 201.000 70.987 "/></g>
<g fill="#EAECF8FE" stroke="#EAECF8FE">
<path d="M 129.000 145.000 C 117.594 145.398 125.716 145.641 155.309 145.788 C 183.647 145.928 197.909 145.662 197.500 145.000 C 196.848 143.946 159.237 143.946 129.000 145.000 "/></g>
<g fill="#8EACAEFE" stroke="#8EACAEFE">
<path d="M 52.500 112.750 L 52.500 158.500 70.250 158.487 L 88.000 158.474 70.510 158.237 L 53.020 158.000 52.760 112.500 L 52.500 67.000 52.500 112.750 "/></g>
<g fill="#000000FE" stroke="#000000FE">
<path d="M 207.311 47.075 C 198.601 51.386 199.462 52.003 214.128 51.964 L 227.500 51.928 224.641 49.590 C 221.921 47.365 215.860 44.999 212.884 45.001 C 212.123 45.001 209.615 45.935 207.311 47.075 "/></g>
<g fill="#A4A4A41E" stroke="#A4A4A41E">
<path d="M 132.001 190.750 C 132.001 192.357 133.597 192.500 151.501 192.500 C 169.406 192.500 171.001 192.357 171.000 190.750 C 171.000 189.143 169.405 189.000 151.500 189.000 C 133.595 189.000 132.000 189.143 132.001 190.750 "/></g>
<g fill="#F0F4FEFE" stroke="#F0F4FEFE">
<path d="M 109.000 127.919 C 109.000 128.677 121.610 129.000 151.167 129.000 C 174.358 129.000 193.146 128.833 192.917 128.629 C 192.688 128.425 173.713 127.938 150.750 127.548 C 121.055 127.043 109.000 127.150 109.000 127.919 "/></g>
<g fill="#FEFEFCFE" stroke="#FEFEFCFE">
<path d="M 294.200 152.200 C 293.540 152.860 293.000 154.795 293.000 156.500 C 293.000 160.425 294.575 162.000 298.500 162.000 C 302.425 162.000 304.000 160.425 304.000 156.500 C 304.000 152.575 302.425 151.000 298.500 151.000 C 296.795 151.000 294.860 151.540 294.200 152.200 M 301.376 155.231 C 302.215 156.563 302.084 157.344 300.811 158.618 C 297.815 161.614 293.345 157.699 296.046 154.444 C 297.601 152.571 299.916 152.913 301.376 155.231 "/></g>
<g fill="#A4A4A41E" stroke="#A4A4A41E">
<path d="M 95.245 103.500 C 95.004 155.184 94.969 156.003 93.000 156.179 C 91.557 156.307 91.627 156.377 93.250 156.429 L 95.500 156.500 95.495 103.750 L 95.491 51.000 95.245 103.500 "/></g>
<g fill="#000000FE" stroke="#000000FE">
<path d="M 222.898 53.799 C 218.611 54.077 218.328 54.265 218.765 56.549 C 219.058 58.083 219.915 59.000 221.058 59.000 C 222.061 59.000 223.165 59.457 223.510 60.016 C 223.856 60.575 224.575 60.763 225.109 60.433 C 226.179 59.771 225.320 64.335 223.826 67.250 C 223.070 68.726 223.397 69.000 225.920 69.000 C 228.554 69.000 228.989 68.577 229.576 65.444 C 230.299 61.592 229.554 55.032 228.286 54.086 C 227.854 53.764 225.429 53.634 222.898 53.799 "/></g>
<g fill="#000000FE" stroke="#000000FE">
<path d="M 198.884 55.750 C 197.752 58.668 198.369 67.769 199.795 69.195 C 200.262 69.662 201.585 69.228 202.735 68.230 C 205.625 65.724 205.599 57.294 202.693 54.750 C 200.129 52.506 200.144 52.502 198.884 55.750 "/></g>
<g fill="#EAECF8FE" stroke="#EAECF8FE">
<path d="M 95.654 49.750 C 95.399 50.163 115.510 50.266 140.345 49.980 L 185.500 49.460 140.809 49.230 C 116.229 49.103 95.909 49.338 95.654 49.750 "/></g>
<g fill="#000000FE" stroke="#000000FE">
<path d="M 110.000 97.440 L 110.000 103.000 113.250 102.985 C 117.666 102.964 119.506 101.682 118.464 99.351 C 118.009 98.333 117.606 96.375 117.569 95.000 C 117.510 92.848 116.978 92.457 113.750 92.190 L 110.000 91.879 110.000 97.440 M 116.500 100.000 C 116.500 100.893 115.387 101.628 113.750 101.816 C 111.511 102.074 111.000 101.737 111.000 100.000 C 111.000 98.263 111.511 97.926 113.750 98.184 C 115.387 98.372 116.500 99.107 116.500 100.000 M 116.500 95.000 C 116.500 95.893 115.387 96.628 113.750 96.816 C 111.511 97.074 111.000 96.737 111.000 95.000 C 111.000 93.263 111.511 92.926 113.750 93.184 C 115.387 93.372 116.500 94.107 116.500 95.000 "/></g>
<g fill="#40666EFE" stroke="#40666EFE">
<path d="M 236.000 208.000 C 236.000 208.636 243.833 209.000 257.500 209.000 C 271.167 209.000 279.000 208.636 279.000 208.000 C 279.000 207.364 271.167 207.000 257.500 207.000 C 243.833 207.000 236.000 207.364 236.000 208.000 "/></g>
<g fill="#40666EFE" stroke="#40666EFE">
<path d="M 15.000 208.000 C 15.000 208.636 22.833 209.000 36.500 209.000 C 50.167 209.000 58.000 208.636 58.000 208.000 C 58.000 207.364 50.167 207.000 36.500 207.000 C 22.833 207.000 15.000 207.364 15.000 208.000 "/></g>
<g fill="#8EACAEFE" stroke="#8EACAEFE">
<path d="M 131.398 189.405 C 131.102 190.177 131.003 192.315 131.180 194.155 L 131.500 197.500 151.250 197.488 L 171.000 197.476 151.500 197.238 L 132.000 197.000 132.000 193.021 L 132.000 189.042 151.750 188.749 L 171.500 188.455 151.719 188.228 C 135.501 188.041 131.840 188.253 131.398 189.405 "/></g>
<g fill="#8EACAEFE" stroke="#8EACAEFE">
<path d="M 216.475 131.500 L 216.500 158.500 232.750 158.486 L 249.000 158.471 233.016 158.236 L 217.033 158.000 216.741 131.250 L 216.449 104.500 216.475 131.500 "/></g>
<g fill="#8EACAEFE" stroke="#8EACAEFE">
<path d="M 115.404 204.000 L 115.500 206.500 150.750 206.493 L 186.000 206.486 151.066 206.243 L 116.133 206.000 115.720 203.750 C 115.361 201.792 115.320 201.825 115.404 204.000 "/></g>
<g fill="#00000200" stroke="#00000200">
<path d="M 264.021 74.337 C 263.286 75.515 263.250 75.963 263.926 75.546 C 264.602 75.128 265.000 76.016 265.000 77.941 C 265.000 80.843 265.205 81.000 269.000 81.000 C 272.982 81.000 273.000 80.982 273.000 77.105 C 273.000 73.307 272.903 73.201 269.095 72.838 C 266.098 72.552 264.919 72.901 264.021 74.337 "/></g>
<g fill="#FEFEFCFE" stroke="#FEFEFCFE">
<path d="M 211.181 56.919 C 212.125 58.430 212.101 59.174 211.067 60.419 C 210.060 61.633 210.042 62.000 210.991 62.000 C 211.786 62.000 212.075 63.034 211.802 64.896 C 211.406 67.593 211.598 67.785 214.602 67.700 C 217.547 67.616 217.857 67.299 218.164 64.054 C 218.661 58.800 218.029 55.000 216.657 55.000 C 215.849 55.000 215.574 56.327 215.829 59.000 C 216.054 61.360 215.781 63.000 215.164 63.000 C 213.449 63.000 212.746 61.011 213.948 59.562 C 214.795 58.543 214.676 57.819 213.463 56.606 C 211.239 54.382 209.727 54.590 211.181 56.919 "/></g>
<g fill="#000000FE" stroke="#000000FE">
<path d="M 191.000 93.434 C 191.000 94.254 189.824 95.002 188.250 95.184 C 185.959 95.447 185.448 96.042 185.187 98.750 C 185.014 100.538 185.239 102.064 185.687 102.142 C 186.134 102.221 187.963 102.407 189.750 102.555 L 193.000 102.826 193.000 97.413 C 193.000 94.436 192.550 92.000 192.000 92.000 C 191.450 92.000 191.000 92.645 191.000 93.434 "/></g>
<g fill="#000000FE" stroke="#000000FE">
<path d="M 161.017 96.479 C 158.884 99.049 161.280 103.219 164.658 102.816 C 168.057 102.409 169.903 99.660 168.394 97.250 C 166.947 94.939 162.667 94.491 161.017 96.479 M 166.500 99.000 C 166.500 100.561 165.854 101.597 164.747 101.810 C 162.767 102.191 161.480 99.797 162.390 97.426 C 163.344 94.941 166.500 96.149 166.500 99.000 "/></g>
<g fill="#000000FE" stroke="#000000FE">
<path d="M 151.100 97.100 L 151.000 102.700 154.141 102.600 C 159.989 102.414 160.719 95.500 154.891 95.500 C 153.383 95.500 152.260 94.761 151.850 93.500 C 151.474 92.343 151.157 93.861 151.100 97.100 "/></g>
<g fill="#EAECF8FE" stroke="#EAECF8FE">
<path d="M 148.500 127.653 C 157.789 128.360 197.001 128.438 197.001 127.750 C 197.000 127.338 185.188 127.079 170.750 127.175 C 156.313 127.271 146.300 127.486 148.500 127.653 "/></g>
<g fill="#FEFEFCFE" stroke="#FEFEFCFE">
<path d="M 205.000 61.500 C 205.000 66.437 205.340 68.000 206.415 68.000 C 207.455 68.000 207.918 66.279 208.165 61.498 C 208.456 55.844 208.272 54.996 206.750 54.998 C 205.263 55.000 205.000 55.977 205.000 61.500 "/></g>
<g fill="#000000FE" stroke="#000000FE">
<path d="M 172.000 95.611 C 176.331 97.191 176.421 97.330 173.500 97.917 C 171.374 98.344 170.500 99.099 170.500 100.510 C 170.500 102.075 171.206 102.521 173.801 102.600 C 176.997 102.697 177.093 102.584 176.801 99.100 C 176.533 95.892 176.173 95.476 173.500 95.282 C 171.850 95.162 171.175 95.310 172.000 95.611 M 176.000 99.941 C 176.000 100.459 175.528 101.173 174.952 101.530 C 173.484 102.437 170.741 101.228 171.496 100.007 C 172.282 98.734 176.000 98.680 176.000 99.941 "/></g>
<g fill="#000000FE" stroke="#000000FE">
<path d="M 126.000 95.611 C 130.331 97.191 130.421 97.330 127.500 97.917 C 125.374 98.344 124.500 99.099 124.500 100.510 C 124.500 102.075 125.206 102.521 127.801 102.600 C 130.997 102.697 131.093 102.584 130.801 99.100 C 130.533 95.892 130.173 95.476 127.500 95.282 C 125.850 95.162 125.175 95.310 126.000 95.611 M 130.000 99.941 C 130.000 100.459 129.528 101.173 128.952 101.530 C 127.484 102.437 124.741 101.228 125.496 100.007 C 126.282 98.734 130.000 98.680 130.000 99.941 "/></g>
<g fill="#000000FE" stroke="#000000FE">
<path d="M 142.248 97.500 C 142.239 100.800 142.438 102.713 142.689 101.750 C 143.250 99.604 144.357 99.521 146.000 101.500 C 148.059 103.982 149.169 103.188 147.405 100.495 C 146.082 98.476 146.004 97.700 147.004 96.495 C 147.698 95.659 147.804 95.000 147.245 95.000 C 146.695 95.000 145.627 95.748 144.872 96.663 C 143.642 98.153 143.436 97.973 142.882 94.913 C 142.410 92.310 142.260 92.924 142.248 97.500 "/></g>
<g fill="#A4A4A41E" stroke="#A4A4A41E">
<path d="M 236.000 63.000 C 236.000 63.550 237.688 64.006 239.750 64.014 C 241.813 64.021 244.625 64.324 246.000 64.687 C 248.245 65.279 248.360 65.176 247.128 63.673 C 245.605 61.817 236.000 61.235 236.000 63.000 "/></g>
<g fill="#FEFEFCFE" stroke="#FEFEFCFE">
<path d="M 137.691 96.822 C 133.851 97.262 134.387 100.481 138.310 100.547 C 140.557 100.585 141.036 100.199 140.797 98.547 C 140.565 96.945 139.889 96.570 137.691 96.822 "/></g>
<g fill="#FEFEFCFE" stroke="#FEFEFCFE">
<path d="M 220.965 60.934 C 222.417 63.647 222.255 65.602 220.429 67.429 C 218.618 69.239 219.279 69.456 222.066 67.965 C 224.258 66.792 224.701 62.101 222.800 60.200 C 220.937 58.337 219.815 58.786 220.965 60.934 "/></g>
<g fill="#000000FE" stroke="#000000FE">
<path d="M 133.667 95.667 C 133.300 96.033 133.000 97.600 133.000 99.148 C 133.000 101.337 133.571 102.105 135.573 102.608 C 137.117 102.995 138.617 102.758 139.323 102.014 C 140.246 101.042 140.045 100.912 138.391 101.410 C 135.955 102.144 133.475 99.809 134.329 97.585 C 134.633 96.793 136.146 95.954 137.691 95.722 L 140.500 95.300 137.417 95.150 C 135.721 95.067 134.033 95.300 133.667 95.667 "/></g>
<g fill="#FEFEFCFE" stroke="#FEFEFCFE">
<path d="M 288.364 167.493 C 288.018 168.396 288.214 169.614 288.800 170.200 C 290.324 171.724 293.210 170.331 292.812 168.265 C 292.369 165.963 289.165 165.407 288.364 167.493 "/></g>
<g fill="#40666EFE" stroke="#40666EFE">
<path d="M 73.000 208.000 C 73.000 208.550 75.250 209.000 78.000 209.000 C 80.750 209.000 83.000 208.550 83.000 208.000 C 83.000 207.450 80.750 207.000 78.000 207.000 C 75.250 207.000 73.000 207.450 73.000 208.000 "/></g>
<g fill="#000000FE" stroke="#000000FE">
<path d="M 179.000 99.060 C 179.000 101.227 179.450 103.000 180.000 103.000 C 180.550 103.000 181.000 101.698 181.000 100.107 C 181.000 98.308 181.662 96.927 182.750 96.455 C 184.162 95.843 183.968 95.640 181.750 95.408 C 179.167 95.137 179.000 95.358 179.000 99.060 "/></g>
<g fill="#8EACAEFE" stroke="#8EACAEFE">
<path d="M 213.500 83.765 C 214.050 84.169 214.517 86.863 214.538 89.750 L 214.577 95.000 214.888 89.750 C 215.142 85.463 215.346 84.959 216.000 87.000 L 216.801 89.500 216.900 86.857 C 216.959 85.299 216.351 83.965 215.418 83.607 C 213.275 82.785 212.277 82.867 213.500 83.765 "/></g>
<g fill="#00000200" stroke="#00000200">
<path d="M 105.710 216.623 C 105.397 216.936 106.797 219.405 108.821 222.109 L 112.500 227.026 110.000 221.940 C 107.373 216.595 106.643 215.690 105.710 216.623 "/></g>
<g fill="#40666EFE" stroke="#40666EFE">
<path d="M 225.000 43.576 C 225.000 43.918 226.350 45.459 228.000 47.000 C 229.650 48.541 231.000 50.323 231.000 50.960 C 231.000 51.597 231.445 51.843 231.989 51.507 C 233.283 50.707 230.614 46.632 227.431 44.546 C 226.094 43.671 225.000 43.234 225.000 43.576 "/></g>
<g fill="#FEFEFCFE" stroke="#FEFEFCFE">
<path d="M 162.480 98.032 C 162.092 98.660 162.245 99.645 162.820 100.220 C 164.164 101.564 167.297 100.392 166.750 98.749 C 166.194 97.078 163.364 96.602 162.480 98.032 "/></g>
<g fill="#EAECF8FE" stroke="#EAECF8FE">
<path d="M 186.607 60.582 C 185.712 62.915 185.778 63.000 188.500 63.000 C 190.430 63.000 190.997 62.487 190.985 60.750 C 190.972 58.931 190.784 58.787 190.000 60.000 C 189.354 61.000 189.026 61.083 189.015 60.250 C 188.994 58.471 187.329 58.701 186.607 60.582 "/></g>
<g fill="#8EACAEFE" stroke="#8EACAEFE">
<path d="M 122.384 97.500 C 122.522 102.768 122.675 103.195 123.635 101.000 C 124.237 99.625 124.453 98.627 124.115 98.783 C 123.777 98.939 123.213 97.364 122.863 95.283 C 122.369 92.347 122.262 92.844 122.384 97.500 "/></g>
<g fill="#FEFEFCFE" stroke="#FEFEFCFE">
<path d="M 187.000 99.000 C 187.000 100.506 187.522 101.046 188.750 100.810 C 189.713 100.624 190.500 99.810 190.500 99.000 C 190.500 98.190 189.713 97.376 188.750 97.190 C 187.522 96.954 187.000 97.494 187.000 99.000 "/></g>
<g fill="#FEFEFCFE" stroke="#FEFEFCFE">
<path d="M 153.000 99.000 C 153.000 100.506 153.522 101.046 154.750 100.810 C 155.713 100.624 156.500 99.810 156.500 99.000 C 156.500 98.190 155.713 97.376 154.750 97.190 C 153.522 96.954 153.000 97.494 153.000 99.000 "/></g>
<g fill="#A4A4A41E" stroke="#A4A4A41E">
<path d="M 193.217 97.000 C 193.098 100.300 192.550 103.068 192.000 103.150 C 191.450 103.233 191.563 103.345 192.250 103.400 C 193.131 103.470 193.490 101.653 193.467 97.250 L 193.433 91.000 193.217 97.000 "/></g>
<g fill="#00000200" stroke="#00000200">
<path d="M 269.586 64.863 C 265.803 70.857 265.983 72.060 269.846 66.594 C 271.687 63.990 272.957 61.624 272.669 61.335 C 272.380 61.047 270.993 62.635 269.586 64.863 "/></g>
<g fill="#000000FE" stroke="#000000FE">
<path d="M 219.000 64.559 C 219.000 66.677 219.405 67.868 220.000 67.500 C 220.550 67.160 221.000 65.559 221.000 63.941 C 221.000 62.323 220.550 61.000 220.000 61.000 C 219.450 61.000 219.000 62.602 219.000 64.559 "/></g>
<g fill="#40666EFE" stroke="#40666EFE">
<path d="M 150.706 91.627 C 150.318 92.016 150.073 94.846 150.162 97.917 L 150.324 103.500 150.868 97.211 C 151.167 93.752 151.094 91.239 150.706 91.627 "/></g>
<g fill="#40666EFE" stroke="#40666EFE">
<path d="M 141.706 91.627 C 141.318 92.016 141.073 94.846 141.162 97.917 L 141.324 103.500 141.868 97.211 C 142.167 93.752 142.094 91.239 141.706 91.627 "/></g>
<g fill="#40666EFE" stroke="#40666EFE">
<path d="M 120.706 91.627 C 120.318 92.016 120.073 94.846 120.162 97.917 L 120.324 103.500 120.868 97.211 C 121.167 93.752 121.094 91.239 120.706 91.627 "/></g>
<g fill="#40666EFE" stroke="#40666EFE">
<path d="M 193.709 66.721 C 193.264 67.408 193.678 69.373 194.659 71.221 C 195.990 73.728 196.487 74.088 196.773 72.750 C 196.979 71.788 196.694 71.000 196.140 71.000 C 195.586 71.000 194.990 69.763 194.816 68.250 C 194.612 66.471 194.221 65.931 193.709 66.721 "/></g>
<g fill="#8EACAEFE" stroke="#8EACAEFE">
<path d="M 235.408 57.225 C 235.579 58.067 237.422 58.487 240.833 58.462 L 246.000 58.423 241.083 58.212 C 238.379 58.095 235.938 57.539 235.658 56.975 C 235.379 56.411 235.266 56.524 235.408 57.225 "/></g>
<g fill="#000000FE" stroke="#000000FE">
<path d="M 209.000 64.500 C 209.000 65.875 209.413 67.000 209.917 67.000 C 211.088 67.000 211.842 64.872 211.246 63.250 C 210.450 61.085 209.000 61.892 209.000 64.500 "/></g>
<g fill="#40666EFE" stroke="#40666EFE">
<path d="M 64.000 208.000 C 64.000 208.550 65.125 209.000 66.500 209.000 C 67.875 209.000 69.000 208.550 69.000 208.000 C 69.000 207.450 67.875 207.000 66.500 207.000 C 65.125 207.000 64.000 207.450 64.000 208.000 "/></g>
<g fill="#00000200" stroke="#00000200">
<path d="M 97.000 202.309 C 97.000 204.034 97.538 205.000 98.500 205.000 C 100.366 205.000 100.358 204.057 98.468 201.559 C 97.060 199.697 97.000 199.728 97.000 202.309 "/></g>
<g fill="#FEFEFCFE" stroke="#FEFEFCFE">
<path d="M 112.000 100.000 C 112.000 100.550 112.873 101.000 113.941 101.000 C 115.009 101.000 116.160 100.550 116.500 100.000 C 116.851 99.433 116.010 99.000 114.559 99.000 C 113.152 99.000 112.000 99.450 112.000 100.000 "/></g>
<g fill="#A4A4A41E" stroke="#A4A4A41E">
<path d="M 215.091 56.000 C 214.426 57.356 214.603 63.000 215.310 63.000 C 215.756 63.000 215.944 61.313 215.728 59.250 C 215.513 57.188 215.226 55.725 215.091 56.000 "/></g>
<g fill="#8EACAEFE" stroke="#8EACAEFE">
<path d="M 214.070 99.250 C 214.137 101.383 214.182 101.396 214.935 99.500 L 215.730 97.500 216.249 99.500 C 216.722 101.324 216.778 101.302 216.884 99.250 C 216.955 97.865 216.423 97.000 215.500 97.000 C 214.590 97.000 214.028 97.885 214.070 99.250 "/></g>
<g fill="#00000200" stroke="#00000200">
<path d="M 249.754 20.445 C 252.022 24.313 252.260 24.511 251.121 21.579 C 250.362 19.627 249.126 17.520 248.374 16.896 C 247.622 16.272 248.243 17.869 249.754 20.445 "/></g>
<g fill="#40666EFE" stroke="#40666EFE">
<path d="M 198.262 76.690 C 199.192 77.620 200.233 78.100 200.576 77.757 C 201.561 76.773 200.050 75.000 198.227 75.000 C 196.700 75.000 196.703 75.132 198.262 76.690 "/></g>
<g fill="#FEFEFCFE" stroke="#FEFEFCFE">
<path d="M 112.000 95.000 C 112.000 95.550 112.900 96.000 114.000 96.000 C 115.100 96.000 116.000 95.550 116.000 95.000 C 116.000 94.450 115.100 94.000 114.000 94.000 C 112.900 94.000 112.000 94.450 112.000 95.000 "/></g>
<g fill="#000000FE" stroke="#000000FE">
<path d="M 209.000 58.000 C 209.000 59.100 209.450 60.000 210.000 60.000 C 210.550 60.000 211.000 59.100 211.000 58.000 C 211.000 56.900 210.550 56.000 210.000 56.000 C 209.450 56.000 209.000 56.900 209.000 58.000 "/></g>
<g fill="#00000200" stroke="#00000200">
<path d="M 91.632 191.963 C 92.454 193.612 93.585 195.244 94.146 195.590 C 94.707 195.937 94.456 194.849 93.590 193.173 C 92.723 191.498 91.592 189.866 91.075 189.547 C 90.559 189.227 90.809 190.315 91.632 191.963 "/></g>
<g fill="#00000200" stroke="#00000200">
<path d="M 243.000 8.476 C 243.000 8.738 243.898 10.425 244.996 12.226 C 247.345 16.078 247.673 15.203 245.474 10.950 C 244.102 8.297 243.000 7.195 243.000 8.476 "/></g>
<g fill="#F0F4FEFE" stroke="#F0F4FEFE">
<path d="M 109.000 150.000 C 109.000 150.550 109.900 151.000 111.000 151.000 C 112.100 151.000 113.000 150.550 113.000 150.000 C 113.000 149.450 112.100 149.000 111.000 149.000 C 109.900 149.000 109.000 149.450 109.000 150.000 "/></g>
<g fill="#F0F4FEFE" stroke="#F0F4FEFE">
<path d="M 109.000 139.000 C 109.000 139.550 109.900 140.000 111.000 140.000 C 112.100 140.000 113.000 139.550 113.000 139.000 C 113.000 138.450 112.100 138.000 111.000 138.000 C 109.900 138.000 109.000 138.450 109.000 139.000 "/></g>
<g fill="#A4A4A41E" stroke="#A4A4A41E">
<path d="M 181.188 100.500 C 181.084 101.875 180.550 103.068 180.000 103.150 C 179.450 103.233 179.563 103.345 180.250 103.400 C 180.985 103.459 181.474 102.366 181.438 100.750 C 181.385 98.448 181.344 98.407 181.188 100.500 "/></g>
<g fill="#8EACAEFE" stroke="#8EACAEFE">
<path d="M 131.079 100.000 C 131.045 102.428 131.304 103.068 131.924 102.089 C 132.424 101.300 132.445 99.759 131.972 98.589 C 131.270 96.853 131.119 97.091 131.079 100.000 "/></g>
<g fill="#00000200" stroke="#00000200">
<path d="M 262.665 42.787 C 263.660 44.595 264.608 45.676 264.770 45.189 C 264.933 44.701 264.118 43.222 262.960 41.901 L 260.854 39.500 262.665 42.787 "/></g>
<g fill="#F0F4FEFE" stroke="#F0F4FEFE">
<path d="M 209.102 86.250 L 209.205 89.500 209.976 86.250 C 210.400 84.463 210.354 83.000 209.874 83.000 C 209.393 83.000 209.046 84.463 209.102 86.250 "/></g>
<g fill="#40666EFE" stroke="#40666EFE">
<path d="M 111.408 100.225 C 111.550 100.926 112.642 101.468 113.833 101.429 C 115.343 101.379 115.419 101.303 114.083 101.179 C 113.029 101.080 111.938 100.539 111.658 99.975 C 111.379 99.411 111.266 99.524 111.408 100.225 "/></g>
<g fill="#40666EFE" stroke="#40666EFE">
<path d="M 233.015 69.250 C 233.028 71.069 233.216 71.213 234.000 70.000 C 235.253 68.061 235.253 67.000 234.000 67.000 C 233.450 67.000 233.007 68.013 233.015 69.250 "/></g>
<g fill="#A4A4A41E" stroke="#A4A4A41E">
<path d="M 115.975 58.658 C 116.539 58.938 117.080 60.029 117.179 61.083 C 117.303 62.419 117.379 62.343 117.429 60.833 C 117.468 59.642 116.926 58.550 116.225 58.408 C 115.524 58.266 115.411 58.379 115.975 58.658 "/></g>
<g fill="#00000200" stroke="#00000200">
<path d="M 254.667 29.067 C 256.193 31.804 256.356 31.905 255.642 29.670 C 255.171 28.193 254.346 26.714 253.810 26.382 C 253.274 26.051 253.659 27.259 254.667 29.067 "/></g>
<g fill="#F6C800FE" stroke="#F6C800FE">
<path d="M 113.000 62.000 C 113.000 62.550 113.675 63.000 114.500 63.000 C 115.325 63.000 116.000 62.550 116.000 62.000 C 116.000 61.450 115.325 61.000 114.500 61.000 C 113.675 61.000 113.000 61.450 113.000 62.000 "/></g>
<g fill="#40666EFE" stroke="#40666EFE">
<path d="M 111.459 94.067 C 111.096 94.653 111.070 95.403 111.400 95.733 C 111.730 96.063 112.000 95.841 112.000 95.240 C 112.000 94.639 112.788 93.941 113.750 93.689 C 115.328 93.277 115.334 93.221 113.809 93.116 C 112.879 93.052 111.821 93.480 111.459 94.067 "/></g>
<g fill="#40666EFE" stroke="#40666EFE">
<path d="M 228.211 76.538 C 227.501 77.342 227.334 78.000 227.838 78.000 C 228.342 78.000 229.315 77.325 230.000 76.500 C 231.604 74.568 229.917 74.603 228.211 76.538 "/></g>
<g fill="#A4A4A41E" stroke="#A4A4A41E">
<path d="M 126.000 97.000 C 126.000 97.550 126.702 98.000 127.559 98.000 C 128.416 98.000 128.840 97.550 128.500 97.000 C 128.160 96.450 127.459 96.000 126.941 96.000 C 126.423 96.000 126.000 96.450 126.000 97.000 "/></g>
<g fill="#A4A4A41E" stroke="#A4A4A41E">
<path d="M 185.257 61.237 C 185.125 62.996 185.290 63.156 186.029 61.987 C 187.185 60.159 187.256 59.000 186.213 59.000 C 185.780 59.000 185.350 60.007 185.257 61.237 "/></g>
<g fill="#8EACAEFE" stroke="#8EACAEFE">
<path d="M 168.575 100.605 C 167.073 102.865 167.014 103.203 168.306 102.144 C 169.216 101.398 170.082 100.095 170.231 99.249 C 170.379 98.402 169.634 99.013 168.575 100.605 "/></g>
<g fill="#8EACAEFE" stroke="#8EACAEFE">
<path d="M 212.500 39.064 C 210.634 39.806 210.656 39.864 212.833 39.930 C 214.117 39.968 215.017 39.610 214.833 39.134 C 214.650 38.658 213.600 38.626 212.500 39.064 "/></g>
<g fill="#F0F4FEFE" stroke="#F0F4FEFE">
<path d="M 127.969 61.250 L 128.873 63.500 128.937 61.250 C 128.971 60.013 128.565 59.000 128.032 59.000 C 127.427 59.000 127.404 59.844 127.969 61.250 "/></g>
<g fill="#40666EFE" stroke="#40666EFE">
<path d="M 203.250 80.080 C 204.453 80.781 205.000 80.771 205.000 80.050 C 205.000 79.472 204.213 79.014 203.250 79.030 C 201.583 79.059 201.583 79.109 203.250 80.080 "/></g>
<g fill="#40666EFE" stroke="#40666EFE">
<path d="M 221.000 41.950 C 221.000 42.528 221.788 42.986 222.750 42.970 C 224.417 42.941 224.417 42.891 222.750 41.920 C 221.547 41.219 221.000 41.229 221.000 41.950 "/></g>
<g fill="#00000200" stroke="#00000200">
<path d="M 257.752 183.250 C 257.363 184.238 257.517 185.000 258.105 185.000 C 258.678 185.000 258.988 184.213 258.794 183.250 C 258.458 181.583 258.408 181.583 257.752 183.250 "/></g>
<g fill="#00000200" stroke="#00000200">
<path d="M 258.150 35.129 C 259.002 36.626 259.395 36.868 259.215 35.787 C 259.058 34.845 258.450 33.778 257.865 33.417 C 257.279 33.055 257.408 33.825 258.150 35.129 "/></g>
<g fill="#00000200" stroke="#00000200">
<path d="M 146.150 19.129 C 147.002 20.626 147.395 20.868 147.215 19.787 C 147.058 18.845 146.450 17.778 145.865 17.417 C 145.279 17.055 145.408 17.825 146.150 19.129 "/></g>
<g fill="#F0F4FEFE" stroke="#F0F4FEFE">
<path d="M 209.063 154.191 C 209.029 155.121 209.444 156.156 209.987 156.492 C 210.626 156.887 210.648 156.292 210.050 154.801 C 209.395 153.167 209.108 152.991 209.063 154.191 "/></g>
<g fill="#F0F4FEFE" stroke="#F0F4FEFE">
<path d="M 99.000 64.000 C 99.000 64.550 99.450 65.000 100.000 65.000 C 100.550 65.000 101.000 64.550 101.000 64.000 C 101.000 63.450 100.550 63.000 100.000 63.000 C 99.450 63.000 99.000 63.450 99.000 64.000 "/></g>
<g fill="#F0F4FEFE" stroke="#F0F4FEFE">
<path d="M 99.000 58.000 C 99.000 58.550 99.450 59.000 100.000 59.000 C 100.550 59.000 101.000 58.550 101.000 58.000 C 101.000 57.450 100.550 57.000 100.000 57.000 C 99.450 57.000 99.000 57.450 99.000 58.000 "/></g>
<g fill="#40666EFE" stroke="#40666EFE">
<path d="M 231.422 72.668 C 231.576 73.719 231.923 73.934 232.350 73.242 C 232.726 72.635 232.615 71.880 232.104 71.564 C 231.593 71.249 231.286 71.745 231.422 72.668 "/></g>
<g fill="#A4A4A41E" stroke="#A4A4A41E">
<path d="M 287.030 168.691 C 287.014 169.346 287.507 170.195 288.126 170.578 C 288.955 171.090 288.963 170.776 288.157 169.387 C 287.554 168.349 287.047 168.036 287.030 168.691 "/></g>
<g fill="#A4A4A41E" stroke="#A4A4A41E">
<path d="M 139.387 101.157 C 140.776 101.963 141.090 101.955 140.578 101.126 C 140.195 100.507 139.346 100.014 138.691 100.030 C 138.036 100.047 138.349 100.554 139.387 101.157 "/></g>
<g fill="#A4A4A41E" stroke="#A4A4A41E">
<path d="M 172.624 96.799 C 172.212 97.466 172.390 98.000 173.024 98.000 C 173.653 98.000 173.987 97.460 173.766 96.799 C 173.455 95.865 173.202 95.865 172.624 96.799 "/></g>
<g fill="#A4A4A41E" stroke="#A4A4A41E">
<path d="M 155.387 97.157 C 156.776 97.963 157.090 97.955 156.578 97.126 C 156.195 96.507 155.346 96.014 154.691 96.030 C 154.036 96.047 154.349 96.554 155.387 97.157 "/></g>
<g fill="#A4A4A41E" stroke="#A4A4A41E">
<path d="M 145.378 95.378 L 144.500 96.256 145.378 95.378 L 146.256 94.500 145.378 95.378 "/></g>
<g fill="#8EACAEFE" stroke="#8EACAEFE">
<path d="M 249.378 178.378 L 248.500 179.256 249.378 178.378 L 250.256 177.500 249.378 178.378 "/></g>
<g fill="#8EACAEFE" stroke="#8EACAEFE">
<path d="M 247.500 63.500 L 249.000 65.000 247.500 63.500 L 246.000 62.000 247.500 63.500 "/></g>
<g fill="#8EACAEFE" stroke="#8EACAEFE">
<path d="M 249.500 60.500 L 251.000 62.000 249.500 60.500 L 248.000 59.000 249.500 60.500 "/></g>
<g fill="#F0F4FEFE" stroke="#F0F4FEFE">
<path d="M 121.000 63.800 C 121.000 64.460 121.540 65.000 122.200 65.000 C 123.133 65.000 123.133 64.733 122.200 63.800 C 121.267 62.867 121.000 62.867 121.000 63.800 "/></g>
<g fill="#F0F4FEFE" stroke="#F0F4FEFE">
<path d="M 121.000 58.200 C 121.000 59.133 121.267 59.133 122.200 58.200 C 123.133 57.267 123.133 57.000 122.200 57.000 C 121.540 57.000 121.000 57.540 121.000 58.200 "/></g>
<g fill="#F0F4FEFE" stroke="#F0F4FEFE">
<path d="M 198.378 45.378 L 197.500 46.256 198.378 45.378 L 199.256 44.500 198.378 45.378 "/></g>
<g fill="#EAECF8FE" stroke="#EAECF8FE">
<path d="M 54.500 175.500 L 56.000 177.000 54.500 175.500 L 53.000 174.000 54.500 175.500 "/></g>
</svg>
