<?xml version="1.0" encoding="utf-8"?>
<!DOCTYPE svg PUBLIC "-//W3C//DTD SVG 20010904//EN" "http://www.w3.org/TR/2001/REC-SVG-20010904/DTD/svg10.dtd">
<svg version="1.0" xmlns="http://www.w3.org/2000/svg" width="318pt" height="231pt" viewBox="0 0 318 231" style="" preserveAspectRatio="xMidYMid meet">
<g fill="#000000FF" stroke="#000000FF">
<path d="M 1.000 115.500 L 1.000 230.000 54.500 230.000 C 83.925 230.000 108.000 229.760 108.000 229.466 C 108.000 229.172 105.037 223.772 101.417 217.466 C 95.044 206.367 94.724 206.000 91.417 206.000 C 88.667 206.000 88.000 205.610 88.000 204.000 C 88.000 202.640 88.667 202.000 90.083 202.000 C 92.510 202.000 92.697 202.598 87.180 192.728 L 82.860 185.000 67.180 184.996 C 53.393 184.993 51.114 184.757 48.299 183.040 C 41.801 179.078 42.000 181.189 42.004 116.300 C 42.007 59.841 42.085 57.373 43.950 54.314 C 47.329 48.773 48.436 48.543 74.360 48.000 L 98.219 47.500 107.331 31.750 L 116.442 16.000 127.471 16.023 L 138.500 16.046 142.424 23.023 L 146.348 30.000 155.946 30.000 L 165.544 30.000 171.352 20.000 L 177.159 10.000 207.359 10.000 L 237.558 10.000 252.029 35.143 C 259.988 48.972 266.634 60.838 266.798 61.513 C 266.962 62.188 265.501 65.386 263.551 68.620 L 260.005 74.500 260.003 124.185 C 260.001 156.852 259.636 174.834 258.936 176.685 C 258.351 178.233 256.692 180.738 255.249 182.250 L 252.626 185.000 224.395 185.000 L 196.165 185.000 193.283 189.993 C 191.174 193.645 190.510 195.928 190.809 198.493 L 191.219 202.000 209.609 202.000 C 227.274 202.000 228.000 202.078 228.000 203.981 C 228.000 205.887 227.172 205.972 205.903 206.231 L 183.805 206.500 176.978 218.250 L 170.151 230.000 243.575 230.000 L 317.000 230.000 317.000 115.500 L 317.000 1.000 159.000 1.000 L 1.000 1.000 1.000 115.500 M 279.500 204.000 C 279.500 205.280 276.241 205.539 257.250 205.769 C 235.439 206.033 235.000 205.998 235.000 204.000 C 235.000 202.002 235.439 201.967 257.250 202.231 C 276.241 202.461 279.500 202.720 279.500 204.000 M 58.500 204.000 C 58.500 205.280 55.241 205.539 36.250 205.769 C 14.439 206.033 14.000 205.998 14.000 204.000 C 14.000 202.002 14.439 201.967 36.250 202.231 C 55.241 202.461 58.500 202.720 58.500 204.000 M 303.171 147.655 C 305.450 149.717 305.542 154.744 303.345 157.171 C 301.283 159.450 296.256 159.542 293.829 157.345 C 291.550 155.283 291.458 150.256 293.655 147.829 C 295.717 145.550 300.744 145.458 303.171 147.655 M 84.000 204.000 C 84.000 205.778 83.333 206.000 78.000 206.000 C 72.667 206.000 72.000 205.778 72.000 204.000 C 72.000 202.222 72.667 202.000 78.000 202.000 C 83.333 202.000 84.000 202.222 84.000 204.000 M 292.926 162.862 C 294.238 165.313 291.990 168.594 289.622 167.685 C 287.317 166.801 286.532 164.269 288.011 162.487 C 289.691 160.463 291.725 160.618 292.926 162.862 M 70.000 204.000 C 70.000 205.547 69.333 206.000 67.059 206.000 C 65.441 206.000 63.840 205.550 63.500 205.000 C 62.447 203.296 63.985 202.000 67.059 202.000 C 69.333 202.000 70.000 202.453 70.000 204.000 "/></g>
<g fill="#416672FF" stroke="#416672FF">
<path d="M 115.500 39.000 L 106.542 48.000 79.021 48.004 C 53.489 48.007 51.269 48.149 48.299 49.960 C 41.801 53.922 42.000 51.811 42.004 116.700 C 42.007 173.255 42.082 175.622 43.960 178.701 C 47.792 184.987 47.886 185.000 90.450 185.000 L 129.000 185.000 129.000 189.000 L 129.000 193.000 122.571 193.000 C 115.245 193.000 113.000 194.424 113.000 199.071 L 113.000 202.000 100.500 202.000 C 88.667 202.000 88.000 202.107 88.000 204.000 C 88.000 205.981 88.667 206.000 158.000 206.000 C 227.333 206.000 228.000 205.981 228.000 204.000 C 228.000 202.072 227.333 202.000 209.500 202.000 L 191.000 202.000 191.000 199.155 C 191.000 194.700 188.286 193.000 181.171 193.000 L 175.000 193.000 175.000 189.000 L 175.000 185.000 213.896 185.000 L 252.793 185.000 255.847 181.521 C 257.527 179.608 259.168 176.571 259.495 174.771 C 259.821 172.972 259.956 146.075 259.794 115.000 C 259.473 53.385 259.626 54.996 253.679 50.590 C 251.043 48.636 249.362 48.480 227.929 48.198 L 205.000 47.895 204.968 41.698 C 204.907 29.810 205.618 30.000 161.295 30.000 L 124.458 30.000 115.500 39.000 M 201.000 34.000 C 202.802 35.802 203.000 37.333 203.000 49.500 L 203.000 63.000 187.000 63.000 L 171.000 63.000 171.000 72.981 C 171.000 82.782 170.955 82.973 168.511 83.587 C 167.142 83.930 164.667 85.754 163.011 87.640 C 157.917 93.442 159.237 103.234 165.699 107.592 C 168.115 109.221 170.872 109.530 185.750 109.839 L 203.000 110.198 203.000 133.599 L 203.000 157.000 225.893 157.000 C 251.532 157.000 250.000 156.515 250.000 164.627 C 250.000 168.033 249.418 169.673 247.545 171.545 L 245.091 174.000 151.000 174.000 L 56.909 174.000 54.405 171.496 C 52.219 169.309 51.939 168.262 52.200 163.246 L 52.500 157.500 74.750 157.231 L 97.000 156.962 97.000 109.981 L 97.000 63.000 110.929 63.000 C 122.258 63.000 125.150 62.707 126.429 61.429 C 127.707 60.150 128.000 57.258 128.000 45.929 L 128.000 32.000 163.500 32.000 C 197.667 32.000 199.075 32.075 201.000 34.000 M 97.066 58.420 C 96.195 59.470 95.909 72.259 95.971 107.440 L 96.054 155.039 74.277 154.770 L 52.500 154.500 52.240 108.703 C 52.062 77.463 52.322 62.268 53.055 60.897 C 53.647 59.791 55.114 58.491 56.315 58.007 C 57.517 57.523 67.443 57.098 78.372 57.063 C 95.432 57.009 98.078 57.201 97.066 58.420 M 247.015 58.811 L 249.251 60.622 249.102 107.561 L 248.953 154.500 226.726 154.500 L 204.500 154.500 204.231 132.250 L 203.962 110.000 216.899 110.000 C 224.015 110.000 230.548 109.727 231.418 109.393 C 232.667 108.914 233.000 107.198 233.000 101.238 C 233.000 93.989 233.072 93.756 234.829 95.345 C 237.149 97.445 238.475 97.430 240.989 95.278 C 243.848 92.829 243.509 91.105 239.322 86.818 C 235.746 83.156 235.694 82.996 237.443 81.063 C 239.918 78.328 238.941 76.599 234.104 75.149 C 230.921 74.196 229.995 73.424 229.978 71.710 C 229.952 69.115 227.401 65.695 224.316 64.117 C 223.114 63.503 218.052 63.000 213.066 63.000 C 208.080 63.000 204.006 62.663 204.014 62.250 C 204.021 61.838 204.299 60.488 204.630 59.250 C 205.230 57.013 205.346 57.000 225.006 57.000 C 242.601 57.000 245.025 57.199 247.015 58.811 M 102.500 53.000 C 100.790 54.889 99.420 55.000 77.779 55.000 C 64.747 55.000 54.080 55.422 53.039 55.979 C 52.033 56.517 50.826 58.205 50.355 59.729 C 49.885 61.253 49.725 87.399 50.000 117.831 C 50.482 171.142 50.571 173.214 52.441 174.581 C 54.085 175.783 69.173 176.000 151.119 176.000 L 247.855 176.000 249.927 173.365 C 251.967 170.772 252.000 169.861 252.000 115.500 C 252.000 61.271 251.963 60.222 249.943 57.654 L 247.885 55.039 226.193 54.769 C 207.697 54.540 204.500 54.279 204.500 53.000 C 204.500 51.711 207.692 51.500 227.232 51.500 L 249.964 51.500 253.232 54.769 L 256.500 58.038 256.500 116.500 L 256.500 174.962 253.231 178.231 L 249.962 181.500 150.500 181.500 L 51.038 181.500 47.769 178.231 L 44.500 174.963 44.206 119.231 C 44.044 88.579 44.167 62.088 44.480 60.362 C 45.134 56.751 49.152 52.314 52.327 51.696 C 53.522 51.463 65.707 51.211 79.405 51.136 C 104.251 51.000 104.306 51.005 102.500 53.000 M 221.480 88.940 C 222.866 93.056 224.461 93.798 226.995 91.505 C 229.892 88.883 231.000 90.535 231.000 97.477 C 231.000 107.896 233.982 107.000 199.293 107.000 L 168.800 107.000 165.400 103.600 C 159.966 98.166 160.797 90.934 167.314 86.941 C 170.282 85.122 172.202 85.006 195.411 85.244 L 220.323 85.500 221.480 88.940 M 222.452 66.415 C 225.476 67.679 228.802 71.531 227.765 72.569 C 227.546 72.787 225.825 72.523 223.940 71.983 C 217.554 70.151 216.665 70.526 217.372 74.750 C 217.717 76.813 218.279 79.521 218.621 80.769 L 219.243 83.038 196.372 82.769 L 173.500 82.500 173.203 75.094 C 173.040 71.020 173.138 67.083 173.422 66.344 C 174.189 64.344 217.646 64.408 222.452 66.415 M 187.070 197.584 C 188.023 198.733 188.096 199.625 187.333 200.834 C 186.385 202.338 182.832 202.500 150.905 202.500 C 117.572 202.500 115.507 202.395 115.179 200.692 C 114.261 195.925 113.694 196.000 150.846 196.000 C 181.478 196.000 185.916 196.194 187.070 197.584 M 111.500 60.774 L 97.500 61.049 111.500 47.011 L 125.500 32.973 125.500 46.737 L 125.500 60.500 111.500 60.774 M 171.494 187.963 C 171.862 190.143 171.875 192.393 171.523 192.963 C 171.115 193.623 163.627 194.000 150.941 194.000 L 131.000 194.000 131.000 189.667 C 131.000 187.283 131.300 185.033 131.667 184.667 C 132.033 184.300 140.994 184.000 151.579 184.000 L 170.824 184.000 171.494 187.963 M 229.085 76.094 C 235.605 78.075 235.994 78.349 234.552 79.942 C 232.344 82.382 232.527 82.943 237.030 87.530 C 240.905 91.479 240.989 91.700 239.218 93.303 C 237.477 94.878 237.162 94.751 233.485 90.985 C 229.143 86.538 228.420 86.310 225.898 88.592 C 224.247 90.087 224.008 89.743 221.989 82.964 C 220.807 78.994 219.572 75.049 219.246 74.199 C 218.807 73.056 219.098 72.823 220.359 73.307 C 221.297 73.668 225.224 74.922 229.085 76.094 "/></g>
<g fill="#E2F2FFFF" stroke="#E2F2FFFF">
<path d="M 128.000 46.943 C 128.000 64.651 128.657 64.000 110.777 64.000 L 98.000 64.000 98.000 110.000 L 98.000 156.000 150.000 156.000 L 202.000 156.000 202.000 133.064 L 202.000 110.129 184.514 109.814 L 167.028 109.500 163.405 105.875 C 156.755 99.219 158.136 88.829 166.247 84.500 L 169.995 82.500 169.997 73.450 C 169.999 67.748 170.444 63.956 171.200 63.200 C 172.025 62.375 177.022 62.000 187.200 62.000 L 202.000 62.000 202.000 48.700 C 202.000 39.689 201.613 35.013 200.800 34.200 C 199.911 33.311 190.311 33.000 163.800 33.000 L 128.000 33.000 128.000 46.943 M 166.418 111.607 C 167.288 111.941 168.000 113.066 168.000 114.107 C 168.000 115.918 166.815 116.000 140.500 116.000 C 114.500 116.000 113.000 115.900 113.000 114.167 C 113.000 113.158 113.300 112.033 113.667 111.667 C 114.500 110.834 164.256 110.777 166.418 111.607 M 153.315 104.378 C 154.513 107.499 151.705 108.000 133.000 108.000 C 114.295 108.000 111.487 107.499 112.685 104.378 C 113.464 102.349 152.536 102.349 153.315 104.378 M 152.722 129.122 C 153.339 129.739 153.606 130.864 153.315 131.622 C 152.890 132.729 148.871 133.000 132.893 133.000 C 114.269 133.000 113.000 132.883 113.000 131.167 C 113.000 130.158 113.300 129.033 113.667 128.667 C 114.863 127.470 151.497 127.897 152.722 129.122 M 143.820 122.250 C 143.504 124.469 143.294 124.500 128.500 124.500 C 113.706 124.500 113.496 124.469 113.180 122.250 L 112.861 120.000 128.500 120.000 L 144.139 120.000 143.820 122.250 "/></g>
<g fill="#E2F2FFFF" stroke="#E2F2FFFF">
<path d="M 94.240 58.750 C 94.058 59.696 89.530 60.000 75.622 60.000 C 61.563 60.000 56.986 60.312 56.143 61.328 C 55.384 62.242 54.956 76.897 54.770 108.329 L 54.500 154.001 74.760 154.000 L 95.019 154.000 94.750 105.750 C 94.602 79.213 94.372 58.063 94.240 58.750 "/></g>
<g fill="#E2F2FFFF" stroke="#E2F2FFFF">
<path d="M 53.000 164.429 C 53.000 173.831 43.504 173.000 151.000 173.000 C 258.496 173.000 249.000 173.831 249.000 164.429 L 249.000 159.000 151.000 159.000 L 53.000 159.000 53.000 164.429 "/></g>
<g fill="#E2F2FFFF" stroke="#E2F2FFFF">
<path d="M 223.250 59.765 C 212.222 59.934 205.000 60.432 205.000 61.023 C 205.000 61.573 208.293 62.000 212.532 62.000 C 216.675 62.000 221.549 62.620 223.364 63.379 C 227.048 64.918 231.000 69.368 231.000 71.977 C 231.000 73.101 232.364 74.092 235.000 74.882 C 239.308 76.173 240.304 78.673 237.451 81.040 C 236.091 82.169 236.395 82.827 239.951 86.451 C 242.178 88.719 244.000 91.037 244.000 91.601 C 244.000 92.165 242.635 93.934 240.966 95.532 C 238.444 97.949 237.623 98.246 236.098 97.294 C 234.415 96.242 234.221 96.630 233.733 102.006 C 233.441 105.228 232.905 108.345 232.542 108.932 C 232.127 109.604 226.893 110.000 218.441 110.000 L 205.000 110.000 205.000 132.000 L 205.000 154.000 226.500 154.000 L 248.000 154.000 248.000 108.691 C 248.000 60.986 247.969 60.644 243.500 59.843 C 242.400 59.646 233.288 59.611 223.250 59.765 "/></g>
<g fill="#A5A5A5FF" stroke="#A5A5A5FF">
<path d="M 171.633 19.750 L 166.041 29.500 183.611 30.000 C 200.581 30.483 201.247 30.581 203.091 32.861 C 204.521 34.629 205.000 36.813 205.000 41.559 L 205.000 47.897 228.250 48.199 C 249.684 48.476 251.707 48.656 254.154 50.500 C 258.433 53.724 259.314 55.992 259.923 65.363 L 260.500 74.225 263.867 67.863 L 267.234 61.500 261.942 52.500 C 259.031 47.550 256.165 43.169 255.574 42.765 C 254.984 42.361 254.800 42.024 255.167 42.015 C 256.005 41.996 246.128 24.721 244.803 23.888 C 244.267 23.552 243.892 22.877 243.968 22.388 C 244.044 21.900 242.620 18.917 240.803 15.761 L 237.500 10.022 207.363 10.011 L 177.226 10.000 171.633 19.750 "/></g>
<g fill="#E2F2FFFF" stroke="#E2F2FFFF">
<path d="M 50.357 52.992 C 44.861 55.209 45.000 53.555 45.000 116.821 L 45.000 175.198 48.106 178.099 L 51.212 181.000 149.655 181.000 C 256.594 181.000 252.208 181.228 254.805 175.528 C 256.515 171.776 256.515 61.224 254.805 57.472 C 252.537 52.494 249.987 52.000 226.550 52.000 C 212.850 52.000 205.000 52.364 205.000 53.000 C 205.000 53.635 212.692 54.000 226.077 54.000 L 247.154 54.000 250.077 56.923 L 253.000 59.846 253.000 114.473 C 253.000 173.969 253.006 173.907 247.387 176.043 C 245.848 176.628 207.936 177.000 149.858 177.000 L 54.846 177.000 51.923 174.077 L 49.000 171.154 49.000 115.500 L 49.000 59.846 51.923 56.923 L 54.846 54.000 78.364 54.000 C 92.964 54.000 102.116 53.621 102.500 53.000 C 103.276 51.745 53.466 51.737 50.357 52.992 "/></g>
<g fill="#A5A5A5FF" stroke="#A5A5A5FF">
<path d="M 97.116 209.750 C 98.369 211.813 99.794 213.775 100.283 214.112 C 100.771 214.448 101.066 214.898 100.938 215.112 C 100.606 215.664 104.896 223.981 107.199 227.250 L 109.136 230.000 139.435 230.000 L 169.734 230.000 172.353 226.043 C 173.793 223.867 175.090 221.504 175.236 220.793 C 175.381 220.082 175.800 219.271 176.168 218.992 C 176.535 218.713 178.423 215.675 180.363 212.242 L 183.891 206.000 139.364 206.000 L 94.837 206.000 97.116 209.750 "/></g>
<g fill="#E2F2FFFF" stroke="#E2F2FFFF">
<path d="M 169.017 91.983 C 166.506 94.494 166.423 98.168 168.829 100.345 C 170.444 101.807 174.123 102.000 200.329 102.000 L 230.000 102.000 230.000 97.607 C 230.000 94.640 229.517 93.029 228.512 92.643 C 227.694 92.329 227.072 92.393 227.130 92.786 C 227.422 94.740 226.865 95.338 226.000 94.000 C 225.231 92.810 225.027 93.013 225.015 94.984 C 225.001 97.280 224.858 97.203 223.132 93.984 L 221.264 90.500 196.149 90.233 C 172.108 89.977 170.948 90.052 169.017 91.983 "/></g>
<g fill="#A5A5A5FF" stroke="#A5A5A5FF">
<path d="M 111.700 24.454 C 109.061 29.123 106.961 33.243 107.036 33.610 C 107.110 33.976 106.758 34.552 106.253 34.888 C 105.748 35.225 103.699 38.313 101.699 41.750 L 98.063 48.000 102.302 48.000 C 106.309 48.000 107.031 47.509 115.469 39.031 L 124.397 30.062 135.203 29.781 L 146.010 29.500 142.230 23.000 L 138.451 16.500 127.476 16.232 L 116.500 15.964 111.700 24.454 "/></g>
<g fill="#A5A5A5FF" stroke="#A5A5A5FF">
<path d="M 83.000 185.429 C 83.000 185.664 83.563 186.471 84.250 187.220 C 84.938 187.970 87.052 191.602 88.948 195.292 L 92.396 202.000 102.698 202.000 L 113.000 202.000 113.000 198.700 C 113.000 193.924 114.491 193.000 122.200 193.000 L 129.000 193.000 129.000 189.000 L 129.000 185.000 106.000 185.000 C 93.350 185.000 83.000 185.193 83.000 185.429 "/></g>
<g fill="#00DAF7FF" stroke="#00DAF7FF">
<path d="M 166.707 88.016 C 162.886 91.021 161.546 95.977 163.372 100.348 C 166.054 106.766 167.359 107.000 200.450 107.000 C 229.333 107.000 230.000 106.955 230.000 105.000 C 230.000 103.045 229.333 103.000 200.611 103.000 C 173.737 103.000 171.030 102.845 168.986 101.190 C 165.843 98.644 166.042 94.221 169.431 91.306 C 172.069 89.037 172.494 89.000 196.056 89.000 C 216.673 89.000 220.000 88.792 220.000 87.500 C 220.000 86.206 216.515 86.000 194.635 86.000 C 170.718 86.000 169.123 86.115 166.707 88.016 "/></g>
<g fill="#E2F2FFFF" stroke="#E2F2FFFF">
<path d="M 174.000 74.000 L 174.000 79.000 195.930 79.000 L 217.860 79.000 216.951 75.828 C 215.787 71.772 217.259 69.776 220.764 70.656 C 222.534 71.100 223.085 70.946 222.590 70.146 C 222.090 69.336 214.854 69.000 197.941 69.000 L 174.000 69.000 174.000 74.000 "/></g>
<g fill="#84B7E8FF" stroke="#84B7E8FF">
<path d="M 111.513 46.983 L 97.527 61.000 111.244 61.000 C 127.491 61.000 126.225 62.416 125.790 44.733 L 125.500 32.967 111.513 46.983 "/></g>
<g fill="#E2F2FFFF" stroke="#E2F2FFFF">
<path d="M 116.000 199.500 L 116.000 202.000 151.500 202.000 L 187.000 202.000 187.000 199.500 L 187.000 197.000 151.500 197.000 L 116.000 197.000 116.000 199.500 "/></g>
<g fill="#C1CDE1FF" stroke="#C1CDE1FF">
<path d="M 54.571 59.571 C 53.188 60.955 53.000 66.702 53.000 107.630 C 53.000 138.368 53.339 153.909 54.000 153.500 C 54.643 153.103 55.000 136.723 55.000 107.641 C 55.000 73.787 55.302 62.098 56.200 61.200 C 57.046 60.354 62.800 60.000 75.700 60.000 C 87.233 60.000 94.000 59.630 94.000 59.000 C 94.000 58.369 87.024 58.000 75.071 58.000 C 59.197 58.000 55.889 58.254 54.571 59.571 "/></g>
<g fill="#416672FF" stroke="#416672FF">
<path d="M 113.500 113.000 C 111.868 115.640 115.038 116.000 139.937 116.000 C 160.316 116.000 165.990 115.717 166.869 114.658 C 167.481 113.920 167.687 113.020 167.325 112.658 C 166.221 111.555 114.189 111.885 113.500 113.000 "/></g>
<g fill="#93A9B6FF" stroke="#93A9B6FF">
<path d="M 76.000 156.756 C 64.175 156.897 53.878 157.243 53.118 157.525 C 52.358 157.807 96.233 157.921 150.618 157.777 L 249.500 157.515 173.500 157.008 C 131.700 156.728 87.825 156.615 76.000 156.756 "/></g>
<g fill="#E2F2FFFF" stroke="#E2F2FFFF">
<path d="M 132.000 190.500 L 132.000 193.000 151.500 193.000 L 171.000 193.000 171.000 190.500 L 171.000 188.000 151.500 188.000 L 132.000 188.000 132.000 190.500 "/></g>
<g fill="#416672FF" stroke="#416672FF">
<path d="M 235.000 204.000 C 235.000 205.998 235.439 206.033 257.250 205.769 C 276.241 205.539 279.500 205.280 279.500 204.000 C 279.500 202.720 276.241 202.461 257.250 202.231 C 235.439 201.967 235.000 202.002 235.000 204.000 "/></g>
<g fill="#416672FF" stroke="#416672FF">
<path d="M 14.000 204.000 C 14.000 205.998 14.439 206.033 36.250 205.769 C 55.241 205.539 58.500 205.280 58.500 204.000 C 58.500 202.720 55.241 202.461 36.250 202.231 C 14.439 201.967 14.000 202.002 14.000 204.000 "/></g>
<g fill="#C1CDE1FF" stroke="#C1CDE1FF">
<path d="M 205.000 59.045 C 205.000 59.743 211.660 60.039 225.016 59.936 C 239.525 59.824 245.437 60.118 246.506 61.005 C 247.759 62.045 248.021 69.164 248.250 108.364 L 248.520 154.500 248.760 107.905 C 248.987 63.863 248.900 61.219 247.171 59.655 C 245.597 58.230 242.538 58.000 225.171 58.000 C 211.806 58.000 205.000 58.353 205.000 59.045 "/></g>
<g fill="#0000FFFF" stroke="#0000FFFF">
<path d="M 220.323 75.399 C 220.691 76.359 221.761 80.029 222.701 83.555 L 224.409 89.965 226.722 87.791 L 229.035 85.618 233.312 89.815 C 236.661 93.103 237.851 93.749 238.800 92.800 C 239.749 91.851 239.103 90.661 235.815 87.312 L 231.618 83.035 233.771 80.744 L 235.923 78.453 229.212 76.564 C 225.520 75.525 221.859 74.445 221.076 74.164 C 220.059 73.799 219.844 74.151 220.323 75.399 "/></g>
<g fill="#416672FF" stroke="#416672FF">
<path d="M 113.190 130.750 C 113.498 132.345 115.250 132.500 133.000 132.500 C 150.750 132.500 152.502 132.345 152.810 130.750 C 153.122 129.130 151.649 129.000 133.000 129.000 C 114.351 129.000 112.878 129.130 113.190 130.750 "/></g>
<g fill="#A5A5A5FF" stroke="#A5A5A5FF">
<path d="M 175.000 189.000 L 175.000 193.000 181.800 193.000 C 185.540 193.000 189.028 193.424 189.550 193.942 C 190.147 194.534 191.521 193.049 193.250 189.942 L 195.999 185.000 185.500 185.000 L 175.000 185.000 175.000 189.000 "/></g>
<g fill="#E2F2FFFF" stroke="#E2F2FFFF">
<path d="M 294.000 148.000 C 289.896 152.104 292.655 159.000 298.402 159.000 C 300.317 159.000 302.381 158.237 303.345 157.171 C 306.987 153.147 303.887 146.000 298.500 146.000 C 297.125 146.000 295.100 146.900 294.000 148.000 M 300.812 152.265 C 301.210 154.331 298.324 155.724 296.800 154.200 C 295.276 152.676 296.669 149.790 298.735 150.188 C 299.693 150.372 300.628 151.307 300.812 152.265 "/></g>
<g fill="#416672FF" stroke="#416672FF">
<path d="M 113.724 120.610 C 113.326 121.008 113.000 121.933 113.000 122.667 C 113.000 123.721 116.262 124.000 128.573 124.000 C 142.866 124.000 144.119 123.856 143.811 122.250 C 143.513 120.696 141.847 120.466 128.962 120.193 C 120.979 120.024 114.122 120.212 113.724 120.610 "/></g>
<g fill="#416672FF" stroke="#416672FF">
<path d="M 113.000 105.500 C 113.000 106.783 115.889 107.000 133.000 107.000 C 150.111 107.000 153.000 106.783 153.000 105.500 C 153.000 104.217 150.111 104.000 133.000 104.000 C 115.889 104.000 113.000 104.217 113.000 105.500 "/></g>
<g fill="#C1CDE1FF" stroke="#C1CDE1FF">
<path d="M 132.000 186.500 C 132.000 187.782 134.833 188.000 151.500 188.000 C 168.167 188.000 171.000 187.782 171.000 186.500 C 171.000 185.218 168.167 185.000 151.500 185.000 C 134.833 185.000 132.000 185.218 132.000 186.500 "/></g>
<g fill="#C1CDE1FF" stroke="#C1CDE1FF">
<path d="M 97.458 64.250 C 97.194 64.938 97.101 85.975 97.250 111.000 L 97.521 156.500 97.760 110.289 L 98.000 64.078 106.750 63.745 L 115.500 63.411 106.719 63.206 C 100.457 63.059 97.800 63.359 97.458 64.250 "/></g>
<g fill="#C1CDE1FF" stroke="#C1CDE1FF">
<path d="M 202.232 49.500 L 202.000 62.000 187.000 62.235 L 172.000 62.470 187.250 62.485 L 202.500 62.500 202.482 49.750 L 202.464 37.000 202.232 49.500 "/></g>
<g fill="#416672FF" stroke="#416672FF">
<path d="M 72.000 204.000 C 72.000 205.778 72.667 206.000 78.000 206.000 C 83.333 206.000 84.000 205.778 84.000 204.000 C 84.000 202.222 83.333 202.000 78.000 202.000 C 72.667 202.000 72.000 202.222 72.000 204.000 "/></g>
<g fill="#A5A5A5FF" stroke="#A5A5A5FF">
<path d="M 131.575 185.155 C 131.181 186.065 131.003 188.315 131.180 190.155 L 131.500 193.500 151.250 193.488 L 171.000 193.476 151.424 193.238 L 131.849 193.000 132.070 188.250 C 132.192 185.638 131.969 184.245 131.575 185.155 "/></g>
<g fill="#E2F2FFFF" stroke="#E2F2FFFF">
<path d="M 287.930 162.584 C 286.406 164.421 287.706 167.301 290.290 167.810 C 292.784 168.302 294.341 164.484 292.427 162.569 C 290.451 160.594 289.580 160.597 287.930 162.584 "/></g>
<g fill="#416672FF" stroke="#416672FF">
<path d="M 63.500 203.000 C 62.447 204.704 63.985 206.000 67.059 206.000 C 69.333 206.000 70.000 205.547 70.000 204.000 C 70.000 202.453 69.333 202.000 67.059 202.000 C 65.441 202.000 63.840 202.450 63.500 203.000 "/></g>
<g fill="#000000FF" stroke="#000000FF">
<path d="M 296.364 151.493 C 296.018 152.396 296.214 153.614 296.800 154.200 C 298.324 155.724 301.210 154.331 300.812 152.265 C 300.369 149.963 297.165 149.407 296.364 151.493 "/></g>
<g fill="#93A9B6FF" stroke="#93A9B6FF">
<path d="M 240.000 87.000 L 243.000 90.000 240.000 87.000 L 237.000 84.000 240.000 87.000 "/></g>
<g fill="#C1CDE1FF" stroke="#C1CDE1FF">
<path d="M 227.378 91.378 L 226.500 92.256 227.378 91.378 L 228.256 90.500 227.378 91.378 "/></g>
<g fill="#93A9B6FF" stroke="#93A9B6FF">
<path d="M 249.378 174.378 L 248.500 175.256 249.378 174.378 L 250.256 173.500 249.378 174.378 "/></g>
<g fill="#93A9B6FF" stroke="#93A9B6FF">
<path d="M 95.695 58.352 C 95.275 59.448 95.413 59.863 96.064 59.460 C 96.637 59.106 96.939 58.318 96.736 57.709 C 96.533 57.100 96.065 57.389 95.695 58.352 "/></g>
<g fill="#93A9B6FF" stroke="#93A9B6FF">
<path d="M 249.500 56.500 L 251.000 58.000 249.500 56.500 L 248.000 55.000 249.500 56.500 "/></g>
</svg>
