<?xml version="1.0" encoding="utf-8"?>
<!DOCTYPE svg PUBLIC "-//W3C//DTD SVG 20010904//EN" "http://www.w3.org/TR/2001/REC-SVG-20010904/DTD/svg10.dtd">
<svg version="1.0" xmlns="http://www.w3.org/2000/svg" width="318pt" height="231pt" viewBox="0 0 318 231" style="" preserveAspectRatio="xMidYMid meet">
<g fill="#000000FF" stroke="#000000FF">
<path d="M 1.000 115.509 L 1.000 230.017 54.390 229.759 L 107.780 229.500 102.330 220.250 L 96.879 211.000 92.439 211.000 C 86.846 211.000 86.054 208.293 91.506 207.810 L 95.013 207.500 89.927 198.750 L 84.842 190.000 67.406 190.000 L 49.971 190.000 46.235 186.577 L 42.500 183.154 42.500 122.096 L 42.500 61.038 45.767 57.769 L 49.034 54.500 71.216 54.000 L 93.398 53.500 104.278 34.750 L 115.159 16.000 126.373 16.000 L 137.587 16.000 142.861 25.042 L 148.135 34.085 155.170 33.792 L 162.204 33.500 168.918 22.000 L 175.632 10.500 206.222 10.236 L 236.812 9.971 251.598 35.653 L 266.384 61.335 263.192 67.097 L 260.000 72.858 260.000 125.686 C 260.000 157.051 259.603 179.896 259.024 181.917 C 258.487 183.789 257.059 186.373 255.850 187.660 L 253.651 190.000 222.882 190.000 L 192.113 190.000 189.612 194.195 C 187.158 198.309 187.148 198.415 189.055 199.751 C 190.341 200.652 191.000 202.280 191.000 204.557 L 191.000 208.000 209.500 208.000 C 225.179 208.000 228.000 208.226 228.000 209.482 C 228.000 210.744 224.398 211.004 203.822 211.232 L 179.644 211.500 174.362 220.500 L 169.081 229.500 243.040 229.756 L 317.000 230.013 317.000 115.506 L 317.000 1.000 159.000 1.000 L 1.000 1.000 1.000 115.509 M 301.477 152.171 C 302.891 152.816 304.311 154.391 304.632 155.671 C 306.150 161.720 301.905 166.134 296.348 164.284 C 291.265 162.593 290.513 154.502 295.228 152.230 C 298.201 150.797 298.456 150.795 301.477 152.171 M 280.000 209.500 C 280.000 210.789 276.833 211.000 257.500 211.000 C 238.167 211.000 235.000 210.789 235.000 209.500 C 235.000 208.211 238.167 208.000 257.500 208.000 C 276.833 208.000 280.000 208.211 280.000 209.500 M 59.000 209.500 C 59.000 210.789 55.833 211.000 36.500 211.000 C 17.167 211.000 14.000 210.789 14.000 209.500 C 14.000 208.211 17.167 208.000 36.500 208.000 C 55.833 208.000 59.000 208.211 59.000 209.500 M 84.000 209.500 C 84.000 210.667 82.667 211.000 78.000 211.000 C 73.333 211.000 72.000 210.667 72.000 209.500 C 72.000 208.333 73.333 208.000 78.000 208.000 C 82.667 208.000 84.000 208.333 84.000 209.500 M 293.362 168.500 C 294.306 170.962 292.947 173.000 290.362 173.000 C 289.028 173.000 287.678 172.325 287.362 171.500 C 286.417 169.038 287.776 167.000 290.362 167.000 C 291.695 167.000 293.045 167.675 293.362 168.500 M 70.000 209.500 C 70.000 210.548 68.944 211.000 66.500 211.000 C 64.056 211.000 63.000 210.548 63.000 209.500 C 63.000 208.452 64.056 208.000 66.500 208.000 C 68.944 208.000 70.000 208.452 70.000 209.500 "/></g>
<g fill="#416672FF" stroke="#416672FF">
<path d="M 113.500 44.000 L 103.538 54.000 76.754 54.000 L 49.971 54.000 46.235 57.423 L 42.500 60.846 42.500 122.000 L 42.500 183.154 46.235 186.577 L 49.971 190.000 89.485 190.000 L 129.000 190.000 129.000 194.500 L 129.000 199.000 122.200 199.000 C 114.491 199.000 113.000 199.924 113.000 204.700 L 113.000 208.000 100.500 208.000 C 90.056 208.000 88.000 208.247 88.000 209.500 C 88.000 210.819 96.444 211.000 158.000 211.000 C 219.556 211.000 228.000 210.819 228.000 209.500 C 228.000 208.221 225.278 208.000 209.500 208.000 L 191.000 208.000 191.000 204.700 C 191.000 199.924 189.509 199.000 181.800 199.000 L 175.000 199.000 175.000 194.500 L 175.000 190.000 214.326 190.000 L 253.651 190.000 255.850 187.660 C 257.059 186.373 258.491 183.786 259.033 181.910 C 259.630 179.842 260.002 156.130 259.977 121.647 C 259.938 67.025 259.858 64.643 257.958 60.918 C 254.612 54.359 253.034 54.000 227.550 54.000 L 205.000 54.000 205.000 47.450 C 205.000 40.586 203.269 35.701 200.455 34.621 C 199.565 34.280 181.877 34.000 161.149 34.000 L 123.462 34.000 113.500 44.000 M 200.559 37.417 C 202.297 38.687 202.534 40.349 202.823 53.347 C 203.202 70.425 205.039 67.979 185.750 76.085 L 173.000 81.443 173.000 88.481 C 173.000 94.436 172.692 95.711 171.000 96.768 C 169.434 97.746 169.000 99.100 169.000 103.008 L 169.000 108.000 174.000 108.000 L 179.000 108.000 179.000 102.535 C 179.000 98.094 178.625 96.870 177.000 96.000 C 175.412 95.150 175.000 93.906 175.000 89.965 C 175.000 84.844 175.656 84.210 179.066 86.035 C 180.600 86.857 181.000 88.153 181.000 92.313 C 181.000 95.306 181.631 98.455 182.470 99.653 C 184.293 102.256 191.131 105.527 196.692 106.456 C 199.323 106.896 200.998 107.744 201.192 108.736 C 201.361 109.605 201.372 121.495 201.217 135.158 L 200.933 160.000 148.457 160.000 L 95.980 160.000 96.240 113.750 L 96.500 67.500 110.101 67.000 C 119.535 66.653 124.208 66.079 125.351 65.128 C 126.738 63.973 127.000 61.548 127.000 49.878 L 127.000 36.000 162.809 36.000 C 192.130 36.000 198.969 36.257 200.559 37.417 M 95.000 111.500 L 95.000 160.000 73.500 160.000 L 52.000 160.000 52.000 113.500 C 52.000 68.333 52.057 66.943 54.000 65.000 C 55.863 63.137 57.333 63.000 75.500 63.000 L 95.000 63.000 95.000 111.500 M 247.429 64.571 C 248.812 65.954 249.000 71.652 249.000 112.071 C 249.000 137.332 249.001 158.338 249.001 158.750 C 249.002 159.163 239.102 159.621 227.001 159.769 L 205.000 160.038 205.000 133.607 L 205.000 107.176 209.250 106.468 C 220.735 104.556 225.000 100.717 225.000 92.291 C 225.000 86.894 225.031 86.838 228.990 85.176 C 231.184 84.254 232.984 83.035 232.990 82.468 C 232.995 81.900 226.588 78.713 218.750 75.387 C 204.971 69.539 204.490 69.234 204.187 66.170 L 203.873 63.000 224.865 63.000 C 242.615 63.000 246.100 63.243 247.429 64.571 M 249.393 164.582 C 251.018 168.816 249.485 176.309 246.600 178.235 C 245.995 178.639 202.663 178.976 150.307 178.985 L 55.113 179.000 53.557 176.777 C 52.584 175.389 52.000 172.388 52.000 168.777 L 52.000 163.000 150.393 163.000 C 239.192 163.000 248.845 163.154 249.393 164.582 M 100.000 58.500 C 98.963 59.749 95.119 60.000 77.012 60.000 C 56.530 60.000 55.117 60.120 52.635 62.073 L 50.000 64.145 50.000 120.462 C 50.000 174.419 50.080 176.877 51.911 179.139 L 53.823 181.500 150.442 181.765 L 247.061 182.029 249.531 179.560 L 252.000 177.091 252.000 121.000 L 252.000 64.909 249.545 62.455 C 247.091 60.000 247.088 60.000 225.545 60.000 C 207.061 60.000 204.000 59.787 204.000 58.500 C 204.000 56.155 248.522 56.276 251.883 58.631 C 256.940 62.173 257.000 62.914 256.994 121.218 C 256.991 155.337 256.607 176.876 255.960 179.205 C 255.394 181.242 253.761 183.829 252.331 184.955 C 249.751 186.984 248.952 187.000 150.500 187.000 C 53.354 187.000 51.217 186.959 48.770 185.034 C 43.943 181.237 43.934 181.104 44.226 120.152 L 44.500 62.835 47.766 59.918 L 51.032 57.000 76.138 57.000 C 98.342 57.000 101.101 57.173 100.000 58.500 M 215.854 77.070 C 222.244 79.858 227.598 82.264 227.750 82.417 C 227.902 82.569 222.394 85.080 215.508 87.996 L 202.990 93.299 192.245 88.689 L 181.500 84.080 192.750 84.040 C 201.954 84.007 204.000 83.733 204.000 82.533 C 204.000 81.348 201.859 81.011 192.878 80.783 L 181.756 80.500 191.628 76.295 C 197.058 73.982 202.115 72.069 202.867 72.045 C 203.619 72.020 209.463 74.281 215.854 77.070 M 187.500 205.000 L 187.500 207.500 151.723 207.763 C 120.549 207.992 115.872 207.831 115.366 206.513 C 115.047 205.681 115.047 204.319 115.366 203.487 C 115.872 202.169 120.549 202.008 151.723 202.237 L 187.500 202.500 187.500 205.000 M 126.000 49.800 C 126.000 58.422 125.608 62.992 124.800 63.800 C 123.985 64.615 119.259 65.000 110.063 65.000 L 96.527 65.000 110.500 51.000 C 118.185 43.300 124.817 37.000 125.237 37.000 C 125.656 37.000 126.000 42.760 126.000 49.800 M 203.000 95.364 C 204.375 95.364 209.236 93.714 213.802 91.698 L 222.103 88.032 221.802 93.232 C 221.534 97.838 221.127 98.684 218.232 100.629 C 213.061 104.104 202.811 105.399 195.500 103.502 C 186.550 101.179 184.563 99.361 184.198 93.165 L 183.897 88.032 192.198 91.698 C 196.764 93.714 201.625 95.364 203.000 95.364 M 172.000 194.500 L 172.000 199.000 151.500 199.000 L 131.000 199.000 131.000 194.500 L 131.000 190.000 151.500 190.000 L 172.000 190.000 172.000 194.500 M 176.810 102.250 C 177.107 105.834 176.985 106.000 174.060 106.000 C 171.490 106.000 171.000 105.613 171.000 103.582 C 171.000 99.606 172.089 97.871 174.377 98.197 C 176.041 98.434 176.567 99.311 176.810 102.250 "/></g>
<g fill="#E2F2FFFF" stroke="#E2F2FFFF">
<path d="M 128.000 49.277 C 128.000 67.731 128.704 67.000 110.943 67.000 L 97.000 67.000 97.000 113.500 L 97.000 160.000 149.017 160.000 L 201.033 160.000 200.767 133.829 L 200.500 107.657 194.987 106.557 C 189.033 105.368 182.563 101.909 181.599 99.398 C 181.270 98.539 181.000 95.470 181.000 92.579 C 181.000 87.941 180.705 87.187 178.500 86.182 C 176.021 85.053 176.000 85.084 176.000 89.866 C 176.000 93.456 176.523 95.164 178.045 96.541 C 179.688 98.028 180.033 99.387 179.795 103.446 L 179.500 108.500 175.176 108.811 C 172.798 108.982 170.210 108.590 169.426 107.939 C 167.321 106.192 167.653 99.711 170.000 96.727 C 171.501 94.819 172.000 92.670 172.000 88.115 C 172.000 80.868 171.264 81.474 189.250 73.915 L 202.000 68.557 202.000 54.278 C 202.000 41.333 201.813 39.813 200.000 38.000 C 198.076 36.076 196.667 36.000 163.000 36.000 L 128.000 36.000 128.000 49.277 M 167.315 116.378 C 168.568 119.644 165.824 120.000 139.359 120.000 C 113.016 120.000 111.115 119.750 112.380 116.452 C 113.188 114.346 166.507 114.274 167.315 116.378 M 152.677 133.601 C 153.015 134.481 152.663 135.600 151.896 136.086 C 151.128 136.572 142.400 136.969 132.500 136.969 C 122.600 136.969 113.872 136.572 113.104 136.086 C 112.337 135.600 111.985 134.481 112.323 133.601 C 112.857 132.209 115.485 132.000 132.500 132.000 C 149.515 132.000 152.143 132.209 152.677 133.601 M 153.000 109.000 C 153.000 110.933 152.333 111.000 133.059 111.000 C 113.899 111.000 110.915 110.565 112.500 108.000 C 112.879 107.387 120.844 107.000 133.059 107.000 C 152.333 107.000 153.000 107.067 153.000 109.000 M 142.896 123.914 C 143.663 124.400 144.015 125.519 143.677 126.399 C 143.151 127.769 140.889 128.000 128.000 128.000 C 115.111 128.000 112.849 127.769 112.323 126.399 C 111.985 125.519 112.337 124.400 113.104 123.914 C 114.923 122.763 141.077 122.763 142.896 123.914 "/></g>
<g fill="#E2F2FFFF" stroke="#E2F2FFFF">
<path d="M 56.200 67.200 C 55.302 68.098 55.000 79.911 55.000 114.200 L 55.000 160.000 74.959 160.000 L 94.917 160.000 94.859 113.000 L 94.800 66.000 76.100 66.000 C 62.889 66.000 57.048 66.352 56.200 67.200 "/></g>
<g fill="#E2F2FFFF" stroke="#E2F2FFFF">
<path d="M 205.177 67.597 C 205.378 68.592 210.890 71.470 219.790 75.227 C 227.810 78.613 233.920 81.751 233.716 82.380 C 233.516 82.996 231.585 84.400 229.426 85.500 C 225.757 87.369 225.521 87.753 225.818 91.379 C 226.468 99.305 222.430 103.652 211.919 106.341 L 206.500 107.727 206.233 133.864 L 205.967 160.000 226.983 160.000 L 248.000 160.000 248.000 114.200 C 248.000 79.911 247.698 68.098 246.800 67.200 C 245.945 66.345 239.739 66.000 225.227 66.000 C 207.099 66.000 204.889 66.176 205.177 67.597 "/></g>
<g fill="#A5A5A5FF" stroke="#A5A5A5FF">
<path d="M 169.578 21.328 C 165.960 27.559 163.000 32.959 163.000 33.328 C 163.000 33.698 171.480 34.000 181.845 34.000 C 204.728 34.000 204.293 33.771 204.853 46.102 L 205.212 54.000 227.856 54.004 C 248.604 54.007 250.770 54.172 253.724 55.973 C 257.259 58.129 260.000 63.521 260.000 68.322 C 260.000 71.831 260.734 71.291 263.945 65.420 L 266.177 61.340 251.355 35.670 L 236.533 10.000 206.345 10.000 L 176.157 10.000 169.578 21.328 "/></g>
<g fill="#E2F2FFFF" stroke="#E2F2FFFF">
<path d="M 53.200 170.725 C 53.459 175.676 53.838 176.622 56.000 177.719 C 57.977 178.722 78.137 178.936 152.331 178.744 C 243.912 178.506 246.196 178.453 247.581 176.559 C 248.361 175.491 249.000 172.454 249.000 169.809 L 249.000 165.000 150.950 165.000 L 52.900 165.000 53.200 170.725 "/></g>
<g fill="#E2F2FFFF" stroke="#E2F2FFFF">
<path d="M 52.313 58.102 C 50.560 58.610 48.198 60.205 47.063 61.647 C 45.033 64.228 45.000 65.197 45.000 122.000 C 45.000 178.644 45.038 179.779 47.045 182.331 C 48.171 183.761 50.758 185.394 52.795 185.960 C 57.805 187.351 243.097 187.379 248.100 185.989 C 250.080 185.439 252.555 184.044 253.600 182.889 C 255.421 180.877 255.500 178.351 255.500 121.808 L 255.500 62.827 252.694 60.413 C 249.908 58.017 249.728 58.000 227.444 58.000 C 213.148 58.000 205.000 58.363 205.000 59.000 C 205.000 59.635 212.639 60.000 225.918 60.000 C 237.423 60.000 247.565 60.280 248.455 60.621 C 252.881 62.320 253.000 63.901 253.000 121.000 C 253.000 178.099 252.881 179.680 248.455 181.379 C 247.565 181.720 203.428 182.000 150.373 182.000 L 53.909 182.000 51.455 179.545 L 49.000 177.091 49.000 121.000 L 49.000 64.909 51.455 62.455 L 53.909 60.000 75.832 60.000 C 94.099 60.000 97.963 59.750 99.000 58.500 C 100.101 57.174 97.652 57.010 77.872 57.090 C 65.568 57.140 54.066 57.595 52.313 58.102 "/></g>
<g fill="#A5A5A5FF" stroke="#A5A5A5FF">
<path d="M 98.000 211.631 C 98.000 211.979 100.284 216.254 103.075 221.131 L 108.150 230.000 138.462 230.000 L 168.775 230.000 173.887 221.008 C 176.699 216.062 179.000 211.787 179.000 211.508 C 179.000 211.229 160.775 211.000 138.500 211.000 C 116.225 211.000 98.000 211.284 98.000 211.631 "/></g>
<g fill="#A5A5A5FF" stroke="#A5A5A5FF">
<path d="M 104.702 34.452 C 98.816 44.601 94.000 53.151 94.000 53.452 C 94.000 53.754 96.146 54.000 98.769 54.000 C 103.478 54.000 103.661 53.876 113.500 44.000 L 123.462 34.000 135.231 34.000 C 141.704 34.000 147.000 33.723 147.000 33.384 C 147.000 33.046 144.863 28.999 142.250 24.391 L 137.500 16.013 126.452 16.007 L 115.403 16.000 104.702 34.452 "/></g>
<g fill="#A5A5A5FF" stroke="#A5A5A5FF">
<path d="M 90.271 199.000 L 95.421 208.000 104.210 208.000 L 113.000 208.000 113.000 204.700 C 113.000 199.924 114.491 199.000 122.200 199.000 L 129.000 199.000 129.000 194.500 L 129.000 190.000 107.061 190.000 L 85.122 190.000 90.271 199.000 "/></g>
<g fill="#01A6F8FF" stroke="#01A6F8FF">
<path d="M 192.628 76.295 L 182.756 80.500 193.950 80.783 C 202.197 80.992 205.038 81.387 204.741 82.283 C 204.465 83.114 200.873 83.597 193.419 83.805 L 182.500 84.109 192.715 88.499 L 202.930 92.890 214.989 87.585 L 227.048 82.279 215.040 77.140 C 208.436 74.313 202.913 72.020 202.766 72.045 C 202.620 72.069 198.058 73.982 192.628 76.295 "/></g>
<g fill="#E2F2FFFF" stroke="#E2F2FFFF">
<path d="M 116.367 203.487 C 116.047 204.319 116.047 205.681 116.367 206.513 C 116.872 207.831 121.438 207.992 151.724 207.763 L 186.500 207.500 186.500 205.000 L 186.500 202.500 151.724 202.237 C 121.438 202.008 116.872 202.169 116.367 203.487 "/></g>
<g fill="#DFE5EEFF" stroke="#DFE5EEFF">
<path d="M 53.000 164.000 C 53.000 164.660 86.333 165.000 151.000 165.000 C 215.667 165.000 249.000 164.660 249.000 164.000 C 249.000 163.340 215.667 163.000 151.000 163.000 C 86.333 163.000 53.000 163.340 53.000 164.000 "/></g>
<g fill="#83B7E7FF" stroke="#83B7E7FF">
<path d="M 111.119 50.378 L 97.738 63.790 108.119 64.462 C 119.246 65.183 122.439 64.961 124.045 63.355 C 124.659 62.741 124.951 57.311 124.781 49.652 L 124.500 36.967 111.119 50.378 "/></g>
<g fill="#0100FFFF" stroke="#0100FFFF">
<path d="M 184.000 92.758 C 184.000 95.517 184.664 97.275 186.278 98.792 C 193.223 105.316 211.085 105.796 216.891 99.616 C 218.532 97.869 219.049 96.277 218.817 93.685 L 218.500 90.142 211.651 93.071 C 207.884 94.682 203.989 96.000 202.994 96.000 C 202.000 96.000 198.307 94.708 194.788 93.129 C 183.934 88.259 184.000 88.262 184.000 92.758 "/></g>
<g fill="#DFE5EEFF" stroke="#DFE5EEFF">
<path d="M 56.000 64.294 L 53.500 65.559 53.240 112.779 C 53.068 144.070 53.321 160.000 53.990 160.000 C 54.655 160.000 55.000 144.363 55.000 114.200 C 55.000 79.911 55.302 68.098 56.200 67.200 C 57.046 66.354 62.793 66.000 75.669 66.000 C 91.497 66.000 93.860 65.800 93.362 64.500 C 92.881 63.247 89.968 63.002 75.643 63.015 C 63.834 63.025 57.722 63.423 56.000 64.294 "/></g>
<g fill="#DFE5EEFF" stroke="#DFE5EEFF">
<path d="M 204.834 64.521 C 204.533 65.994 206.532 66.144 225.099 66.043 C 241.461 65.954 245.932 66.213 246.838 67.305 C 247.648 68.281 248.058 82.030 248.250 114.590 L 248.521 160.500 248.760 113.941 C 248.960 75.060 248.766 67.062 247.582 65.441 C 246.272 63.648 244.607 63.477 225.667 63.194 C 207.349 62.920 205.133 63.061 204.834 64.521 "/></g>
<g fill="#416672FF" stroke="#416672FF">
<path d="M 113.683 115.650 C 113.307 116.026 113.000 116.933 113.000 117.667 C 113.000 118.745 118.179 119.000 140.073 119.000 C 165.319 119.000 167.124 118.882 166.810 117.250 C 166.501 115.645 164.315 115.478 140.420 115.234 C 126.090 115.087 114.059 115.275 113.683 115.650 "/></g>
<g fill="#E2F2FFFF" stroke="#E2F2FFFF">
<path d="M 132.000 196.500 L 132.000 199.000 151.500 199.000 L 171.000 199.000 171.000 196.500 L 171.000 194.000 151.500 194.000 L 132.000 194.000 132.000 196.500 "/></g>
<g fill="#DFE5EEFF" stroke="#DFE5EEFF">
<path d="M 132.000 192.000 C 132.000 193.932 132.667 194.000 151.500 194.000 C 170.333 194.000 171.000 193.932 171.000 192.000 C 171.000 190.068 170.333 190.000 151.500 190.000 C 132.667 190.000 132.000 190.068 132.000 192.000 "/></g>
<g fill="#416672FF" stroke="#416672FF">
<path d="M 113.190 108.750 C 113.497 110.343 115.226 110.500 132.500 110.500 C 149.774 110.500 151.503 110.343 151.810 108.750 C 152.121 107.131 150.673 107.000 132.500 107.000 C 114.327 107.000 112.879 107.131 113.190 108.750 "/></g>
<g fill="#416672FF" stroke="#416672FF">
<path d="M 113.667 132.667 C 113.300 133.033 113.000 133.933 113.000 134.667 C 113.000 135.732 116.907 136.000 132.441 136.000 C 151.523 136.000 156.301 135.206 150.495 132.998 C 147.600 131.897 114.732 131.601 113.667 132.667 "/></g>
<g fill="#E2F2FFFF" stroke="#E2F2FFFF">
<path d="M 295.228 152.230 C 290.513 154.502 291.265 162.593 296.348 164.284 C 301.905 166.134 306.150 161.720 304.632 155.671 C 304.311 154.391 302.891 152.816 301.477 152.171 C 298.456 150.795 298.201 150.797 295.228 152.230 M 301.000 158.024 C 301.000 159.019 300.438 160.030 299.750 160.269 C 297.725 160.976 296.000 159.921 296.000 157.976 C 296.000 156.981 296.563 155.970 297.250 155.731 C 299.275 155.024 301.000 156.079 301.000 158.024 "/></g>
<g fill="#416672FF" stroke="#416672FF">
<path d="M 235.000 209.500 C 235.000 210.789 238.167 211.000 257.500 211.000 C 276.833 211.000 280.000 210.789 280.000 209.500 C 280.000 208.211 276.833 208.000 257.500 208.000 C 238.167 208.000 235.000 208.211 235.000 209.500 "/></g>
<g fill="#416672FF" stroke="#416672FF">
<path d="M 14.000 209.500 C 14.000 210.789 17.167 211.000 36.500 211.000 C 55.833 211.000 59.000 210.789 59.000 209.500 C 59.000 208.211 55.833 208.000 36.500 208.000 C 17.167 208.000 14.000 208.211 14.000 209.500 "/></g>
<g fill="#A5A5A5FF" stroke="#A5A5A5FF">
<path d="M 175.000 194.500 L 175.000 199.000 180.816 199.000 C 186.531 199.000 186.669 198.933 188.816 195.114 C 190.017 192.976 191.000 190.951 191.000 190.614 C 191.000 190.276 187.400 190.000 183.000 190.000 L 175.000 190.000 175.000 194.500 "/></g>
<g fill="#416672FF" stroke="#416672FF">
<path d="M 113.189 125.750 C 113.483 127.286 115.049 127.535 126.012 127.789 C 139.829 128.109 143.000 127.678 143.000 125.481 C 143.000 124.239 140.572 124.000 127.927 124.000 C 114.110 124.000 112.881 124.146 113.189 125.750 "/></g>
<g fill="#DFE5EEFF" stroke="#DFE5EEFF">
<path d="M 205.575 107.758 C 205.259 108.074 205.099 120.071 205.219 134.417 L 205.438 160.500 205.794 133.841 C 205.990 119.179 205.892 107.441 205.575 107.758 "/></g>
<g fill="#416672FF" stroke="#416672FF">
<path d="M 72.000 209.500 C 72.000 210.667 73.333 211.000 78.000 211.000 C 82.667 211.000 84.000 210.667 84.000 209.500 C 84.000 208.333 82.667 208.000 78.000 208.000 C 73.333 208.000 72.000 208.333 72.000 209.500 "/></g>
<g fill="#E2F2FFFF" stroke="#E2F2FFFF">
<path d="M 287.362 168.500 C 286.417 170.962 287.776 173.000 290.362 173.000 C 291.695 173.000 293.045 172.325 293.362 171.500 C 294.306 169.038 292.947 167.000 290.362 167.000 C 289.028 167.000 287.678 167.675 287.362 168.500 "/></g>
<g fill="#FFBE00FF" stroke="#FFBE00FF">
<path d="M 172.688 98.646 C 172.309 99.024 172.000 100.608 172.000 102.167 C 172.000 104.362 172.464 105.000 174.063 105.000 C 175.780 105.000 176.074 104.467 175.813 101.827 C 175.508 98.731 174.068 97.266 172.688 98.646 "/></g>
<g fill="#00027DFF" stroke="#00027DFF">
<path d="M 219.981 92.750 C 219.970 94.813 219.408 97.486 218.731 98.691 C 217.545 100.803 217.582 100.828 219.750 99.385 C 221.521 98.206 222.000 96.941 222.000 93.443 C 222.000 90.999 221.550 89.000 221.000 89.000 C 220.450 89.000 219.991 90.688 219.981 92.750 "/></g>
<g fill="#000000FF" stroke="#000000FF">
<path d="M 297.250 155.731 C 296.563 155.970 296.000 156.981 296.000 157.976 C 296.000 159.921 297.725 160.976 299.750 160.269 C 300.438 160.030 301.000 159.019 301.000 158.024 C 301.000 156.079 299.275 155.024 297.250 155.731 "/></g>
<g fill="#416672FF" stroke="#416672FF">
<path d="M 63.000 209.500 C 63.000 210.548 64.056 211.000 66.500 211.000 C 68.944 211.000 70.000 210.548 70.000 209.500 C 70.000 208.452 68.944 208.000 66.500 208.000 C 64.056 208.000 63.000 208.452 63.000 209.500 "/></g>
<g fill="#D0AC00FF" stroke="#D0AC00FF">
<path d="M 176.188 102.500 C 176.060 104.200 175.360 105.057 174.000 105.179 C 172.557 105.307 172.627 105.377 174.250 105.429 C 176.069 105.486 176.488 104.974 176.438 102.750 C 176.385 100.448 176.344 100.407 176.188 102.500 "/></g>
<g fill="#DFE5EEFF" stroke="#DFE5EEFF">
<path d="M 99.378 58.378 L 98.500 59.256 99.378 58.378 L 100.256 57.500 99.378 58.378 "/></g>
</svg>
