<?xml version="1.0" encoding="utf-8"?>
<!DOCTYPE svg PUBLIC "-//W3C//DTD SVG 20010904//EN" "http://www.w3.org/TR/2001/REC-SVG-20010904/DTD/svg10.dtd">
<svg version="1.0" xmlns="http://www.w3.org/2000/svg" width="318pt" height="231pt" viewBox="0 0 318 231" style="" preserveAspectRatio="xMidYMid meet">
<g fill="#406671FF" stroke="#406671FF">
<path d="M 91.455 35.455 C 89.231 37.678 89.000 38.715 89.000 46.455 L 89.000 55.000 70.450 55.000 C 55.826 55.000 51.280 55.321 48.967 56.517 C 42.869 59.671 43.000 58.220 43.000 122.403 C 43.000 164.484 43.324 181.617 44.154 183.439 C 46.899 189.464 46.829 189.454 90.000 190.000 L 129.500 190.500 129.803 195.207 L 130.106 199.914 122.303 200.207 L 114.500 200.500 114.000 204.500 L 113.500 208.500 101.250 208.781 C 94.202 208.942 89.000 209.473 89.000 210.031 C 89.000 210.647 114.127 211.000 158.000 211.000 C 203.333 211.000 227.000 210.657 227.000 210.000 C 227.000 209.369 220.186 209.000 208.557 209.000 L 190.115 209.000 189.807 204.750 L 189.500 200.500 181.750 200.208 L 174.000 199.916 174.000 194.958 L 174.000 190.000 213.313 190.000 L 252.626 190.000 255.563 186.935 L 258.500 183.870 258.773 123.445 L 259.045 63.020 255.602 59.260 L 252.159 55.500 234.330 55.000 L 216.500 54.500 216.212 45.792 C 215.748 31.789 221.797 33.000 152.320 33.000 L 93.909 33.000 91.455 35.455 M 207.000 105.983 L 207.000 157.966 152.500 158.233 L 98.000 158.500 98.000 106.250 L 98.000 54.000 152.500 54.000 L 207.000 54.000 207.000 105.983 M 211.518 36.262 L 214.147 38.523 214.039 60.762 C 213.968 75.483 214.281 83.000 214.966 83.000 C 215.596 83.000 216.000 79.714 216.000 74.582 C 216.000 69.952 216.273 65.452 216.607 64.582 C 217.510 62.229 242.937 62.257 246.535 64.615 L 249.000 66.230 249.000 113.068 L 249.000 159.907 232.499 160.203 L 215.997 160.500 215.999 133.750 C 216.000 116.023 215.652 107.000 214.968 107.000 C 214.277 107.000 214.029 115.607 214.218 133.001 L 214.500 159.001 211.750 159.001 L 209.000 159.000 209.000 105.500 L 209.000 52.000 152.500 52.000 L 96.000 52.000 96.000 105.500 L 96.000 159.000 93.000 159.000 L 90.000 159.000 90.000 99.577 L 90.000 40.154 93.077 37.077 L 96.154 34.000 152.521 34.000 L 208.888 34.000 211.518 36.262 M 88.393 64.582 C 88.727 65.452 89.000 87.389 88.999 113.332 L 88.999 160.500 70.749 160.337 L 52.500 160.175 52.240 114.234 L 51.980 68.293 54.626 65.646 C 57.257 63.016 57.364 63.000 72.529 63.000 C 85.519 63.000 87.876 63.235 88.393 64.582 M 249.393 164.582 C 250.968 168.685 249.326 176.310 246.409 178.443 C 245.326 179.235 218.086 179.495 150.322 179.361 C 69.145 179.201 55.540 178.968 54.293 177.722 C 53.359 176.787 52.780 173.906 52.671 169.634 L 52.500 162.999 150.643 162.999 C 239.214 163.000 248.845 163.154 249.393 164.582 M 72.250 57.986 C 81.333 57.994 88.000 58.395 88.000 58.934 C 88.000 59.463 80.727 60.005 71.224 60.184 C 55.403 60.482 54.309 60.629 52.021 62.764 L 49.594 65.027 49.854 121.571 C 50.098 174.712 50.224 178.224 51.933 179.933 C 53.661 181.661 58.630 181.777 149.852 182.237 C 254.479 182.765 248.433 183.066 251.343 177.189 C 252.897 174.051 253.693 103.049 252.440 79.394 C 251.732 66.042 251.608 65.454 248.930 62.776 L 246.154 60.000 231.577 60.000 C 219.286 60.000 217.000 59.765 217.000 58.500 C 217.000 56.247 245.751 56.314 250.522 58.577 C 257.176 61.735 257.067 60.610 256.727 122.686 C 256.558 153.384 256.196 179.175 255.921 180.000 C 255.183 182.220 253.701 184.343 251.924 185.728 C 249.730 187.437 52.344 187.790 49.168 186.090 C 48.001 185.465 46.584 184.092 46.020 183.037 C 44.566 180.321 44.527 64.752 45.979 62.039 C 47.408 59.368 52.017 56.913 54.500 57.500 C 55.600 57.760 63.588 57.979 72.250 57.986 M 171.805 195.250 L 172.110 200.000 151.805 199.994 L 131.500 199.988 131.398 194.974 L 131.296 189.960 151.398 190.230 L 171.500 190.500 171.805 195.250 M 187.000 205.500 L 187.000 208.500 151.300 208.276 L 115.600 208.051 115.700 205.526 C 115.755 204.137 115.845 202.888 115.900 202.750 C 115.955 202.613 131.975 202.500 151.500 202.500 L 187.000 202.500 187.000 205.500 "/></g>
<g fill="#EFF6FCFF" stroke="#EFF6FCFF">
<path d="M 99.000 106.000 L 99.000 158.000 153.000 158.000 L 207.000 158.000 207.000 106.000 L 207.000 54.000 153.000 54.000 L 99.000 54.000 99.000 106.000 M 174.830 91.000 C 175.011 92.925 175.771 94.844 176.517 95.264 C 177.263 95.685 178.900 98.083 180.153 100.592 L 182.432 105.156 179.565 110.632 C 176.989 115.553 176.812 116.481 177.824 119.779 C 179.304 124.600 177.962 126.089 174.123 123.885 C 171.747 122.522 171.056 122.486 169.475 123.642 C 165.807 126.324 164.672 125.411 165.367 120.337 C 165.918 116.317 165.588 114.931 162.970 110.293 L 159.934 104.913 162.717 99.957 C 164.582 96.636 166.159 94.992 167.500 94.971 C 169.095 94.946 169.196 94.775 168.000 94.127 C 167.175 93.680 158.400 93.581 148.500 93.907 L 130.500 94.500 130.500 105.500 L 130.500 116.500 145.750 116.776 C 158.394 117.005 161.000 117.304 161.000 118.526 C 161.000 120.638 130.841 120.718 129.092 118.611 C 128.318 117.678 128.031 112.989 128.219 104.361 L 128.500 91.500 148.729 91.229 C 168.096 90.970 169.011 91.045 170.219 92.979 C 171.996 95.824 173.189 95.489 172.816 92.250 L 172.500 89.500 149.500 89.500 L 126.500 89.500 126.500 105.500 L 126.500 121.500 143.250 121.774 C 153.286 121.938 160.000 122.440 160.000 123.024 C 160.000 123.621 153.223 124.000 142.535 124.000 C 126.292 124.000 124.998 123.865 124.035 122.066 C 122.674 119.522 122.682 91.463 124.044 88.917 C 125.043 87.051 126.171 86.977 149.794 87.233 L 174.500 87.500 174.830 91.000 M 205.000 63.000 C 205.000 64.962 204.333 65.000 169.500 65.000 C 140.583 65.000 134.000 64.753 134.000 63.667 C 134.000 62.933 134.300 62.033 134.667 61.667 C 135.033 61.300 151.008 61.000 170.167 61.000 C 204.333 61.000 205.000 61.038 205.000 63.000 M 157.752 112.750 C 158.069 113.707 155.117 114.000 145.142 114.000 C 133.213 114.000 129.920 113.414 131.722 111.611 C 132.996 110.338 157.304 111.401 157.752 112.750 M 148.250 102.656 C 153.613 103.011 158.000 103.684 158.000 104.151 C 158.000 104.618 151.925 105.000 144.500 105.000 C 137.075 105.000 131.000 104.625 131.000 104.167 C 131.000 101.771 132.676 101.625 148.250 102.656 M 117.250 60.616 C 119.369 61.363 119.515 63.627 117.571 65.571 C 114.995 68.147 111.000 66.584 111.000 63.000 C 111.000 60.959 113.109 58.819 114.463 59.487 C 115.033 59.768 116.288 60.276 117.250 60.616 M 126.429 60.571 C 128.152 62.295 128.302 63.049 127.393 65.418 C 126.197 68.536 121.000 66.570 121.000 63.000 C 121.000 61.352 122.839 59.000 124.129 59.000 C 124.529 59.000 125.564 59.707 126.429 60.571 M 107.535 61.057 C 108.714 62.964 107.062 67.000 105.103 67.000 C 102.530 67.000 100.706 64.503 101.485 62.048 C 102.182 59.852 106.367 59.166 107.535 61.057 M 150.500 108.000 C 150.896 108.641 147.510 109.000 141.059 109.000 C 135.020 109.000 131.000 108.600 131.000 108.000 C 131.000 107.404 134.814 107.000 140.441 107.000 C 145.656 107.000 150.159 107.448 150.500 108.000 "/></g>
<g fill="#EFF6FCFF" stroke="#EFF6FCFF">
<path d="M 93.000 37.000 C 91.045 38.955 91.000 40.333 91.000 98.500 C 91.000 157.333 91.022 158.000 93.000 158.000 C 94.975 158.000 95.000 157.333 95.000 105.559 C 95.000 76.716 95.377 52.885 95.838 52.600 C 96.298 52.316 122.061 52.024 153.088 51.953 L 209.500 51.824 209.659 105.162 C 209.811 156.245 209.895 158.500 211.659 158.500 C 213.393 158.500 213.516 156.997 213.767 132.750 C 213.995 110.778 214.251 107.000 215.517 107.000 C 216.790 107.000 217.000 110.745 217.000 133.500 L 217.000 160.000 232.500 160.000 L 248.000 160.000 248.000 114.571 C 248.000 74.606 247.811 68.954 246.429 67.571 C 245.150 66.293 242.258 66.000 230.929 66.000 L 217.000 66.000 217.000 74.500 C 217.000 81.389 216.716 83.000 215.500 83.000 C 214.212 83.000 214.000 79.889 214.000 61.000 C 214.000 40.333 213.879 38.879 212.000 37.000 C 210.046 35.046 208.667 35.000 152.500 35.000 C 96.333 35.000 94.954 35.046 93.000 37.000 M 217.000 91.500 C 217.000 95.722 216.652 97.000 215.500 97.000 C 214.348 97.000 214.000 95.722 214.000 91.500 C 214.000 87.278 214.348 86.000 215.500 86.000 C 216.652 86.000 217.000 87.278 217.000 91.500 M 217.000 101.583 C 217.000 104.716 214.652 104.373 214.180 101.172 C 213.968 99.729 214.388 99.000 215.430 99.000 C 216.451 99.000 217.000 99.903 217.000 101.583 "/></g>
<g fill="#EFF6FCFF" stroke="#EFF6FCFF">
<path d="M 57.250 67.017 L 55.000 67.936 55.000 113.968 L 55.000 160.000 71.510 160.000 L 88.020 160.000 87.760 113.250 L 87.500 66.500 73.500 66.300 C 65.800 66.189 58.488 66.512 57.250 67.017 "/></g>
<g fill="#EFF6FCFF" stroke="#EFF6FCFF">
<path d="M 53.000 170.429 C 53.000 179.830 43.515 179.000 150.916 179.000 C 258.840 179.000 249.000 179.886 249.000 170.171 L 249.000 165.000 151.000 165.000 L 53.000 165.000 53.000 170.429 "/></g>
<g fill="#A5A5A51F" stroke="#A5A5A51F">
<path d="M 170.142 20.419 C 166.764 26.149 164.000 31.099 164.000 31.419 C 164.000 31.738 174.610 32.000 187.577 32.000 L 211.154 32.000 214.077 34.923 C 216.825 37.671 217.000 38.329 217.000 45.923 L 217.000 54.000 232.966 54.000 C 246.044 54.000 249.589 54.313 252.564 55.732 C 256.876 57.788 259.998 63.233 260.005 68.710 L 260.010 72.500 262.474 68.500 C 263.829 66.300 264.951 63.375 264.968 62.000 C 264.985 60.588 260.078 51.016 253.688 40.000 C 247.467 29.275 241.096 18.138 239.530 15.250 L 236.682 10.000 206.483 10.000 L 176.283 10.000 170.142 20.419 "/></g>
<g fill="#EFF6FCFF" stroke="#EFF6FCFF">
<path d="M 49.775 59.559 C 48.276 60.372 46.589 61.900 46.025 62.953 C 45.359 64.198 45.000 85.154 45.000 122.831 L 45.000 180.793 48.535 183.896 L 52.070 187.000 150.635 187.000 L 249.200 187.000 252.600 183.600 L 256.000 180.200 256.000 123.147 C 256.000 81.043 255.687 65.407 254.805 63.472 C 252.660 58.764 249.551 58.000 232.550 58.000 C 222.850 58.000 217.000 58.376 217.000 59.000 C 217.000 59.622 222.692 60.000 232.077 60.000 L 247.154 60.000 250.077 62.923 L 253.000 65.846 253.000 121.500 L 253.000 177.154 250.077 180.077 L 247.154 183.000 151.000 183.000 L 54.846 183.000 51.923 180.077 L 49.000 177.154 49.000 121.500 L 49.000 65.846 51.923 62.923 L 54.846 60.000 71.423 60.000 C 81.808 60.000 88.000 59.626 88.000 59.000 C 88.000 58.369 81.443 58.015 70.250 58.040 C 56.540 58.071 51.880 58.417 49.775 59.559 "/></g>
<g fill="#A5A5A51F" stroke="#A5A5A51F">
<path d="M 98.000 212.628 C 98.000 213.475 104.194 224.370 105.034 225.000 C 105.401 225.275 106.237 226.519 106.893 227.764 L 108.086 230.029 138.785 229.764 L 169.483 229.500 174.164 221.500 C 176.738 217.100 178.880 213.163 178.922 212.750 C 178.965 212.338 160.775 212.000 138.500 212.000 C 116.225 212.000 98.000 212.283 98.000 212.628 "/></g>
<g fill="#A5A5A51F" stroke="#A5A5A51F">
<path d="M 86.042 191.750 C 86.091 192.631 88.340 196.637 92.499 203.250 L 95.485 208.000 104.243 208.000 L 113.000 208.000 113.000 204.700 C 113.000 199.924 114.491 199.000 122.200 199.000 L 129.000 199.000 129.000 195.000 L 129.000 191.000 107.500 191.000 C 95.675 191.000 86.019 191.338 86.042 191.750 "/></g>
<g fill="#A5A5A51F" stroke="#A5A5A51F">
<path d="M 113.764 19.718 C 112.360 21.798 110.033 25.413 108.593 27.750 L 105.975 32.000 125.487 32.000 C 140.468 32.000 145.000 31.709 145.000 30.746 C 145.000 30.056 143.302 26.568 141.226 22.996 L 137.451 16.500 126.884 16.218 L 116.317 15.936 113.764 19.718 "/></g>
<g fill="#EFF6FCFF" stroke="#EFF6FCFF">
<path d="M 116.000 205.500 L 116.000 208.000 151.500 208.000 L 187.000 208.000 187.000 205.500 L 187.000 203.000 151.500 203.000 L 116.000 203.000 116.000 205.500 "/></g>
<g fill="#EAEDF4FF" stroke="#EAEDF4FF">
<path d="M 134.667 61.667 C 134.300 62.033 134.000 62.933 134.000 63.667 C 134.000 64.753 140.583 65.000 169.500 65.000 C 198.955 65.000 205.000 64.766 205.000 63.625 C 205.000 62.869 203.594 61.969 201.875 61.625 C 197.669 60.784 135.511 60.822 134.667 61.667 "/></g>
<g fill="#00010001" stroke="#00010001">
<path d="M 261.049 70.909 C 260.354 72.206 260.000 90.983 260.000 126.466 C 260.000 171.847 259.770 180.615 258.500 183.654 C 257.675 185.629 257.018 188.427 257.040 189.872 L 257.080 192.500 258.701 189.504 C 259.592 187.856 260.683 184.931 261.125 183.004 C 262.390 177.485 262.316 68.540 261.049 70.909 "/></g>
<g fill="#406671FF" stroke="#406671FF">
<path d="M 125.250 87.653 C 124.318 88.036 124.000 92.567 124.000 105.467 C 124.000 122.562 124.027 122.774 126.250 123.370 C 130.076 124.395 159.000 124.090 159.000 123.024 C 159.000 122.440 152.286 121.938 142.250 121.774 L 125.500 121.500 125.500 105.500 L 125.500 89.500 149.250 89.232 L 173.000 88.964 173.000 91.982 C 173.000 93.642 173.477 95.000 174.060 95.000 C 174.674 95.000 174.990 93.421 174.810 91.250 L 174.500 87.500 150.500 87.320 C 137.300 87.221 125.938 87.371 125.250 87.653 "/></g>
<g fill="#6B8A9FFF" stroke="#6B8A9FFF">
<path d="M 52.000 163.750 C 52.000 164.163 96.437 164.271 150.750 163.990 L 249.500 163.481 150.750 163.240 C 96.438 163.108 52.000 163.338 52.000 163.750 "/></g>
<g fill="#CBDCECFF" stroke="#CBDCECFF">
<path d="M 54.571 65.571 C 53.188 66.955 53.000 72.697 53.000 113.571 C 53.000 143.857 53.348 160.000 54.000 160.000 C 54.652 160.000 55.000 143.956 55.000 113.867 C 55.000 67.887 55.007 67.728 57.153 65.867 C 58.838 64.406 58.963 64.000 57.724 64.000 C 56.855 64.000 55.436 64.707 54.571 65.571 "/></g>
<g fill="#EFF6FCFF" stroke="#EFF6FCFF">
<path d="M 132.419 194.917 C 132.189 195.146 132.000 196.158 132.000 197.167 C 132.000 198.882 133.258 199.000 151.500 199.000 L 171.000 199.000 171.000 196.417 L 171.000 193.835 151.919 194.167 C 141.425 194.350 132.650 194.688 132.419 194.917 "/></g>
<g fill="#406671FF" stroke="#406671FF">
<path d="M 128.846 93.285 C 128.322 94.266 127.973 100.107 128.071 106.265 C 128.214 115.283 128.565 117.702 129.875 118.699 C 130.991 119.549 136.117 119.946 146.250 119.968 C 158.709 119.995 161.000 119.767 161.000 118.500 C 161.000 117.231 158.611 117.000 145.500 117.000 L 130.000 117.000 130.000 105.000 L 130.000 93.000 149.417 93.000 C 164.014 93.000 168.959 93.310 169.338 94.250 C 169.645 95.012 169.873 94.833 169.921 93.790 C 169.993 92.240 168.120 92.053 149.900 91.790 C 131.459 91.524 129.721 91.647 128.846 93.285 "/></g>
<g fill="#00010001" stroke="#00010001">
<path d="M 173.076 223.224 C 169.938 228.645 169.484 229.894 171.259 228.226 C 172.561 227.003 174.244 224.428 174.999 222.502 L 176.373 219.000 200.687 219.000 C 221.632 219.000 225.000 218.792 225.000 217.500 C 225.000 216.209 221.681 216.000 201.129 216.000 L 177.259 216.000 173.076 223.224 "/></g>
<g fill="#00010001" stroke="#00010001">
<path d="M 41.102 184.750 L 41.000 193.000 60.808 193.000 L 80.616 193.000 83.558 196.976 C 85.176 199.163 86.844 200.963 87.265 200.976 C 87.686 200.989 86.336 198.776 84.265 196.057 L 80.500 191.114 66.000 191.053 C 53.470 191.001 51.067 190.729 48.314 189.050 C 44.885 186.959 43.076 184.254 41.929 179.500 C 41.430 177.435 41.173 179.072 41.102 184.750 "/></g>
<g fill="#CBDCECFF" stroke="#CBDCECFF">
<path d="M 132.000 191.893 C 132.000 193.657 135.432 194.000 153.082 194.000 C 168.342 194.000 171.000 193.778 171.000 192.500 C 171.000 191.218 168.167 191.000 151.500 191.000 C 140.724 191.000 132.000 191.400 132.000 191.893 "/></g>
<g fill="#A5A5A51F" stroke="#A5A5A51F">
<path d="M 175.000 195.000 L 175.000 199.000 180.750 198.988 C 186.209 198.976 186.614 198.800 188.750 195.502 C 189.988 193.591 191.000 191.797 191.000 191.514 C 191.000 191.231 187.400 191.000 183.000 191.000 L 175.000 191.000 175.000 195.000 "/></g>
<g fill="#EFF6FCFF" stroke="#EFF6FCFF">
<path d="M 294.200 154.200 C 293.540 154.860 293.000 156.795 293.000 158.500 C 293.000 162.425 294.575 164.000 298.500 164.000 C 302.425 164.000 304.000 162.425 304.000 158.500 C 304.000 154.575 302.425 153.000 298.500 153.000 C 296.795 153.000 294.860 153.540 294.200 154.200 M 301.376 157.231 C 302.215 158.563 302.084 159.344 300.811 160.618 C 297.815 163.614 293.345 159.699 296.046 156.444 C 297.601 154.571 299.916 154.913 301.376 157.231 "/></g>
<g fill="#EAEDF4FF" stroke="#EAEDF4FF">
<path d="M 207.975 51.658 C 208.650 51.993 209.084 69.391 209.245 102.583 L 209.490 153.000 209.495 102.333 C 209.499 62.069 209.238 51.614 208.225 51.408 C 207.524 51.266 207.411 51.379 207.975 51.658 "/></g>
<g fill="#0000FEFF" stroke="#0000FEFF">
<path d="M 168.260 102.456 C 167.578 103.247 167.418 104.140 167.905 104.441 C 168.392 104.742 169.048 104.316 169.364 103.494 C 169.957 101.947 172.665 101.551 175.418 102.607 C 177.287 103.324 177.538 108.062 175.800 109.800 C 175.140 110.460 172.440 111.000 169.800 111.000 C 167.160 111.000 165.000 111.450 165.000 112.000 C 165.000 112.550 165.421 113.000 165.937 113.000 C 166.452 113.000 167.035 114.463 167.233 116.250 L 167.593 119.500 168.801 116.672 C 169.859 114.197 170.385 113.926 173.006 114.501 C 175.364 115.019 176.150 114.770 176.700 113.330 C 177.085 112.323 178.230 110.606 179.245 109.512 C 180.396 108.274 180.980 106.390 180.796 104.512 C 180.510 101.597 180.322 101.492 175.000 101.259 C 171.212 101.093 169.114 101.466 168.260 102.456 "/></g>
<g fill="#6B8A9FFF" stroke="#6B8A9FFF">
<path d="M 52.485 114.250 C 52.497 150.629 52.767 160.479 53.750 160.400 C 54.438 160.345 54.554 160.233 54.010 160.150 C 53.378 160.054 52.921 143.375 52.745 114.000 L 52.470 68.000 52.485 114.250 "/></g>
<g fill="#6B8A9FFF" stroke="#6B8A9FFF">
<path d="M 131.079 191.729 C 131.126 192.776 131.364 192.989 131.662 192.250 C 132.041 191.310 136.986 191.000 151.583 191.000 L 171.000 191.000 171.000 194.979 L 171.000 198.959 150.750 199.251 L 130.500 199.544 151.305 199.772 L 172.110 200.000 171.805 195.250 L 171.500 190.500 151.250 190.229 C 132.414 189.977 131.006 190.082 131.079 191.729 "/></g>
<g fill="#0000FEFF" stroke="#0000FEFF">
<path d="M 169.000 96.117 C 169.000 96.603 168.138 97.000 167.084 97.000 C 165.916 97.000 164.649 98.172 163.840 100.000 C 163.109 101.650 162.172 103.000 161.756 103.000 C 160.471 103.000 160.922 106.065 162.429 107.571 C 163.325 108.468 165.933 109.000 169.429 109.000 C 174.333 109.000 175.000 108.761 175.000 107.000 C 175.000 105.900 174.550 105.000 174.000 105.000 C 173.450 105.000 173.113 105.552 173.250 106.226 C 173.649 108.184 169.021 108.329 166.918 106.425 C 162.840 102.735 165.612 99.000 172.429 99.000 C 175.825 99.000 177.000 98.615 177.000 97.500 C 177.000 96.675 176.663 95.951 176.250 95.890 C 172.178 95.295 169.000 95.395 169.000 96.117 "/></g>
<g fill="#406671FF" stroke="#406671FF">
<path d="M 236.000 210.000 C 236.000 210.636 243.833 211.000 257.500 211.000 C 271.167 211.000 279.000 210.636 279.000 210.000 C 279.000 209.364 271.167 209.000 257.500 209.000 C 243.833 209.000 236.000 209.364 236.000 210.000 "/></g>
<g fill="#406671FF" stroke="#406671FF">
<path d="M 15.000 210.000 C 15.000 210.636 22.833 211.000 36.500 211.000 C 50.167 211.000 58.000 210.636 58.000 210.000 C 58.000 209.364 50.167 209.000 36.500 209.000 C 22.833 209.000 15.000 209.364 15.000 210.000 "/></g>
<g fill="#00010001" stroke="#00010001">
<path d="M 190.999 191.750 C 190.999 192.163 204.161 192.262 220.249 191.970 L 249.500 191.440 220.250 191.220 C 204.163 191.099 191.000 191.338 190.999 191.750 "/></g>
<g fill="#CBDCECFF" stroke="#CBDCECFF">
<path d="M 217.000 64.956 C 217.000 65.547 222.155 65.679 230.499 65.302 C 243.727 64.704 244.038 64.738 246.005 67.006 C 247.109 68.279 248.307 69.026 248.667 68.666 C 249.027 68.307 248.504 67.110 247.506 66.006 C 245.849 64.176 244.435 64.000 231.345 64.000 C 222.889 64.000 217.000 64.392 217.000 64.956 "/></g>
<g fill="#E1F3FFFF" stroke="#E1F3FFFF">
<path d="M 59.001 64.750 C 59.002 65.163 65.414 65.581 73.251 65.680 C 83.376 65.808 86.342 65.608 83.500 64.988 C 78.562 63.911 59.000 63.721 59.001 64.750 "/></g>
<g fill="#406671FF" stroke="#406671FF">
<path d="M 132.000 108.000 C 132.000 108.593 135.667 109.000 141.000 109.000 C 146.333 109.000 150.000 108.593 150.000 108.000 C 150.000 107.407 146.333 107.000 141.000 107.000 C 135.667 107.000 132.000 107.407 132.000 108.000 "/></g>
<g fill="#00010001" stroke="#00010001">
<path d="M 109.995 21.192 C 108.638 23.012 107.521 24.815 107.514 25.200 C 107.506 25.585 106.938 26.463 106.250 27.150 C 104.806 28.594 104.535 32.405 105.939 31.538 C 107.454 30.601 113.192 20.075 112.810 18.931 C 112.619 18.356 111.351 19.373 109.995 21.192 "/></g>
<g fill="#0000FEFF" stroke="#0000FEFF">
<path d="M 175.000 118.788 C 175.000 120.191 174.107 120.611 170.847 120.741 C 168.563 120.832 166.223 121.377 165.647 121.953 C 164.095 123.505 169.276 123.305 170.925 121.750 C 171.985 120.750 172.342 120.750 172.708 121.750 C 172.960 122.438 174.029 123.000 175.083 123.000 C 176.546 123.000 177.000 122.290 177.000 120.000 C 177.000 118.350 176.550 117.000 176.000 117.000 C 175.450 117.000 175.000 117.804 175.000 118.788 "/></g>
<g fill="#00010001" stroke="#00010001">
<path d="M 178.638 213.500 C 177.858 215.535 183.738 215.539 187.636 213.506 C 190.488 212.019 190.476 212.012 184.857 212.006 C 180.759 212.002 179.056 212.411 178.638 213.500 "/></g>
<g fill="#406671FF" stroke="#406671FF">
<path d="M 215.173 86.776 C 213.782 87.239 213.547 97.000 214.927 97.000 C 215.438 97.000 215.966 94.611 216.101 91.692 C 216.272 87.988 215.992 86.503 215.173 86.776 "/></g>
<g fill="#EFF6FCFF" stroke="#EFF6FCFF">
<path d="M 288.364 169.493 C 288.018 170.396 288.214 171.614 288.800 172.200 C 290.324 173.724 293.210 172.331 292.812 170.265 C 292.369 167.963 289.165 167.407 288.364 169.493 "/></g>
<g fill="#406671FF" stroke="#406671FF">
<path d="M 73.000 210.000 C 73.000 210.550 75.250 211.000 78.000 211.000 C 80.750 211.000 83.000 210.550 83.000 210.000 C 83.000 209.450 80.750 209.000 78.000 209.000 C 75.250 209.000 73.000 209.450 73.000 210.000 "/></g>
<g fill="#EFF6FCFF" stroke="#EFF6FCFF">
<path d="M 169.626 116.533 C 168.572 119.280 168.900 119.742 171.549 119.235 C 173.218 118.916 173.991 118.191 173.788 117.136 C 173.365 114.943 170.401 114.514 169.626 116.533 "/></g>
<g fill="#00010001" stroke="#00010001">
<path d="M 260.542 51.721 C 262.986 56.000 264.988 58.893 264.993 58.151 C 265.000 56.729 258.215 45.251 256.878 44.425 C 256.450 44.160 258.098 47.443 260.542 51.721 "/></g>
<g fill="#406671FF" stroke="#406671FF">
<path d="M 102.180 63.250 C 102.356 64.488 103.063 65.455 103.750 65.400 C 104.438 65.345 104.550 65.233 104.000 65.150 C 103.450 65.068 103.000 64.498 103.000 63.883 C 103.000 63.243 104.027 62.963 105.409 63.227 C 107.134 63.557 107.671 63.306 107.302 62.344 C 107.018 61.605 105.678 61.000 104.323 61.000 C 102.342 61.000 101.923 61.439 102.180 63.250 "/></g>
<g fill="#00010001" stroke="#00010001">
<path d="M 140.538 21.750 C 143.530 26.959 145.000 28.866 145.000 27.538 C 145.000 26.472 138.978 17.000 138.301 17.000 C 138.031 17.000 139.038 19.138 140.538 21.750 "/></g>
<g fill="#00010001" stroke="#00010001">
<path d="M 97.019 212.500 C 97.019 213.050 98.477 215.959 100.259 218.964 C 102.042 221.969 103.375 223.843 103.222 223.129 C 102.819 221.249 97.019 211.311 97.019 212.500 "/></g>
<g fill="#FDC43FFF" stroke="#FDC43FFF">
<path d="M 112.604 62.590 C 111.842 64.576 112.804 66.261 114.342 65.632 C 115.158 65.298 115.131 65.135 114.250 65.079 C 112.156 64.947 112.858 63.000 115.000 63.000 C 116.100 63.000 117.000 62.550 117.000 62.000 C 117.000 60.364 113.266 60.866 112.604 62.590 "/></g>
<g fill="#00010001" stroke="#00010001">
<path d="M 84.000 191.885 C 84.000 192.437 85.149 194.151 86.553 195.694 L 89.106 198.500 87.560 195.313 C 85.961 192.016 84.000 190.128 84.000 191.885 "/></g>
<g fill="#00010001" stroke="#00010001">
<path d="M 161.136 28.750 C 160.994 32.133 163.249 33.400 164.342 30.551 C 164.703 29.610 164.418 29.286 163.529 29.627 C 162.668 29.958 161.995 29.289 161.716 27.826 C 161.377 26.051 161.240 26.269 161.136 28.750 "/></g>
<g fill="#6B8A9FFF" stroke="#6B8A9FFF">
<path d="M 216.099 91.843 L 216.706 97.500 216.853 92.309 C 216.934 89.454 216.661 86.908 216.246 86.652 C 215.831 86.395 215.765 88.731 216.099 91.843 "/></g>
<g fill="#406671FF" stroke="#406671FF">
<path d="M 64.000 210.000 C 64.000 210.550 65.125 211.000 66.500 211.000 C 67.875 211.000 69.000 210.550 69.000 210.000 C 69.000 209.450 67.875 209.000 66.500 209.000 C 65.125 209.000 64.000 209.450 64.000 210.000 "/></g>
<g fill="#CBDCECFF" stroke="#CBDCECFF">
<path d="M 84.250 64.958 C 86.313 65.358 88.000 65.306 88.000 64.843 C 88.000 64.379 86.313 64.052 84.250 64.115 L 80.500 64.230 84.250 64.958 "/></g>
<g fill="#FFB912FF" stroke="#FFB912FF">
<path d="M 113.000 64.000 C 113.000 64.550 113.900 65.000 115.000 65.000 C 116.100 65.000 117.000 64.550 117.000 64.000 C 117.000 63.450 116.100 63.000 115.000 63.000 C 113.900 63.000 113.000 63.450 113.000 64.000 "/></g>
<g fill="#FE5B56FF" stroke="#FE5B56FF">
<path d="M 103.000 64.000 C 103.000 64.550 103.900 65.000 105.000 65.000 C 106.100 65.000 107.000 64.550 107.000 64.000 C 107.000 63.450 106.100 63.000 105.000 63.000 C 103.900 63.000 103.000 63.450 103.000 64.000 "/></g>
<g fill="#406671FF" stroke="#406671FF">
<path d="M 215.248 99.751 C 213.804 100.232 213.540 103.000 214.937 103.000 C 215.453 103.000 216.014 102.175 216.185 101.167 C 216.373 100.057 216.004 99.499 215.248 99.751 "/></g>
<g fill="#EFF6FCFF" stroke="#EFF6FCFF">
<path d="M 167.581 106.131 C 167.876 106.609 169.329 106.954 170.809 106.898 C 173.343 106.801 173.312 106.751 170.272 106.028 C 168.479 105.602 167.282 105.648 167.581 106.131 "/></g>
<g fill="#EFF6FCFF" stroke="#EFF6FCFF">
<path d="M 172.728 103.972 C 174.521 104.398 175.718 104.352 175.419 103.869 C 175.124 103.391 173.671 103.046 172.191 103.102 C 169.657 103.199 169.688 103.249 172.728 103.972 "/></g>
<g fill="#00010001" stroke="#00010001">
<path d="M 166.128 24.965 C 165.374 25.407 164.979 26.383 165.250 27.134 C 165.593 28.083 166.012 27.837 166.622 26.331 C 167.313 24.623 167.208 24.333 166.128 24.965 "/></g>
<g fill="#3230FFFF" stroke="#3230FFFF">
<path d="M 170.500 107.123 L 167.500 107.763 170.250 107.882 C 171.763 107.947 173.113 107.658 173.250 107.241 C 173.388 106.824 172.150 106.770 170.500 107.123 "/></g>
<g fill="#A5A5A51F" stroke="#A5A5A51F">
<path d="M 287.548 169.202 C 287.149 170.138 287.178 171.478 287.611 172.180 C 288.100 172.971 288.376 172.324 288.337 170.478 C 288.291 168.315 288.075 167.966 287.548 169.202 "/></g>
<g fill="#00010001" stroke="#00010001">
<path d="M 170.250 19.422 L 169.500 21.343 170.250 19.422 L 171.000 17.500 170.250 19.422 "/></g>
<g fill="#6B8A9FFF" stroke="#6B8A9FFF">
<path d="M 215.950 101.199 C 216.605 102.833 216.892 103.009 216.937 101.809 C 216.971 100.879 216.556 99.844 216.013 99.508 C 215.374 99.113 215.352 99.708 215.950 101.199 "/></g>
<g fill="#CBDCECFF" stroke="#CBDCECFF">
<path d="M 253.000 183.888 L 251.500 185.563 253.000 183.888 L 254.500 182.212 253.000 183.888 "/></g>
<g fill="#EAEDF4FF" stroke="#EAEDF4FF">
<path d="M 57.000 66.000 C 57.000 66.550 57.450 67.000 58.000 67.000 C 58.550 67.000 59.000 66.550 59.000 66.000 C 59.000 65.450 58.550 65.000 58.000 65.000 C 57.450 65.000 57.000 65.450 57.000 66.000 "/></g>
<g fill="#446368BF" stroke="#446368BF">
<path d="M 255.000 187.888 L 253.500 189.563 255.000 187.888 L 256.500 186.212 255.000 187.888 "/></g>
<g fill="#00010001" stroke="#00010001">
<path d="M 89.000 199.800 C 89.000 200.460 89.540 201.000 90.200 201.000 C 91.133 201.000 91.133 200.733 90.200 199.800 C 89.267 198.867 89.000 198.867 89.000 199.800 "/></g>
<g fill="#6B8A9FFF" stroke="#6B8A9FFF">
<path d="M 47.378 60.378 L 46.500 61.256 47.378 60.378 L 48.256 59.500 47.378 60.378 "/></g>
<g fill="#FFE77EFF" stroke="#FFE77EFF">
<path d="M 111.000 62.200 C 111.000 63.133 111.267 63.133 112.200 62.200 C 113.133 61.267 113.133 61.000 112.200 61.000 C 111.540 61.000 111.000 61.540 111.000 62.200 "/></g>
<g fill="#446368BF" stroke="#446368BF">
<path d="M 47.500 184.500 L 49.000 186.000 47.500 184.500 L 46.000 183.000 47.500 184.500 "/></g>
<g fill="#446368BF" stroke="#446368BF">
<path d="M 255.500 58.500 L 257.000 60.000 255.500 58.500 L 254.000 57.000 255.500 58.500 "/></g>
<g fill="#000BE4FF" stroke="#000BE4FF">
<path d="M 165.800 114.200 C 166.733 115.133 167.000 115.133 167.000 114.200 C 167.000 113.540 166.460 113.000 165.800 113.000 C 164.867 113.000 164.867 113.267 165.800 114.200 "/></g>
</svg>
