<?xml version="1.0" encoding="utf-8"?>
<!DOCTYPE svg PUBLIC "-//W3C//DTD SVG 20010904//EN" "http://www.w3.org/TR/2001/REC-SVG-20010904/DTD/svg10.dtd">
<svg version="1.0" xmlns="http://www.w3.org/2000/svg" width="318pt" height="231pt" viewBox="0 0 318 231" style="" preserveAspectRatio="xMidYMid meet">
<g fill="#000000FF" stroke="#000000FF">
<path d="M 1.000 115.509 L 1.000 230.017 54.390 229.759 L 107.780 229.500 102.330 220.250 L 96.879 211.000 92.439 211.000 C 86.846 211.000 86.054 208.293 91.506 207.810 L 95.013 207.500 89.927 198.750 L 84.842 190.000 67.406 190.000 L 49.971 190.000 46.235 186.577 L 42.500 183.154 42.500 122.096 L 42.500 61.038 45.767 57.769 L 49.034 54.500 71.216 54.000 L 93.398 53.500 104.278 34.750 L 115.159 16.000 126.373 16.000 L 137.587 16.000 142.858 25.037 L 148.129 34.075 145.687 38.445 L 143.244 42.815 149.151 44.303 L 155.057 45.791 160.687 36.146 C 163.783 30.841 168.419 22.900 170.989 18.500 L 175.662 10.500 206.237 10.236 L 236.812 9.971 251.598 35.653 L 266.384 61.335 263.192 67.097 L 260.000 72.858 260.000 125.686 C 260.000 157.051 259.603 179.896 259.024 181.917 C 258.487 183.789 257.059 186.373 255.850 187.660 L 253.651 190.000 222.882 190.000 L 192.113 190.000 189.612 194.195 C 187.158 198.309 187.148 198.415 189.055 199.751 C 190.341 200.652 191.000 202.280 191.000 204.557 L 191.000 208.000 209.500 208.000 C 225.179 208.000 228.000 208.226 228.000 209.482 C 228.000 210.744 224.398 211.004 203.822 211.232 L 179.644 211.500 174.362 220.500 L 169.081 229.500 243.040 229.756 L 317.000 230.013 317.000 115.506 L 317.000 1.000 159.000 1.000 L 1.000 1.000 1.000 115.509 M 301.477 152.171 C 302.891 152.816 304.311 154.391 304.632 155.671 C 306.150 161.720 301.905 166.134 296.348 164.284 C 291.265 162.593 290.513 154.502 295.228 152.230 C 298.201 150.797 298.456 150.795 301.477 152.171 M 280.000 209.500 C 280.000 210.789 276.833 211.000 257.500 211.000 C 238.167 211.000 235.000 210.789 235.000 209.500 C 235.000 208.211 238.167 208.000 257.500 208.000 C 276.833 208.000 280.000 208.211 280.000 209.500 M 59.000 209.500 C 59.000 210.789 55.833 211.000 36.500 211.000 C 17.167 211.000 14.000 210.789 14.000 209.500 C 14.000 208.211 17.167 208.000 36.500 208.000 C 55.833 208.000 59.000 208.211 59.000 209.500 M 84.000 209.500 C 84.000 210.667 82.667 211.000 78.000 211.000 C 73.333 211.000 72.000 210.667 72.000 209.500 C 72.000 208.333 73.333 208.000 78.000 208.000 C 82.667 208.000 84.000 208.333 84.000 209.500 M 293.362 168.500 C 294.306 170.962 292.947 173.000 290.362 173.000 C 289.028 173.000 287.678 172.325 287.362 171.500 C 286.417 169.038 287.776 167.000 290.362 167.000 C 291.695 167.000 293.045 167.675 293.362 168.500 M 70.000 209.500 C 70.000 210.548 68.944 211.000 66.500 211.000 C 64.056 211.000 63.000 210.548 63.000 209.500 C 63.000 208.452 64.056 208.000 66.500 208.000 C 68.944 208.000 70.000 208.452 70.000 209.500 "/></g>
<g fill="#416672FF" stroke="#416672FF">
<path d="M 175.491 33.865 C 170.939 35.933 165.333 41.826 164.406 45.518 C 164.063 46.883 163.348 48.000 162.816 48.000 C 162.284 48.000 154.795 46.006 146.174 43.570 C 119.431 36.010 117.734 35.640 113.515 36.431 C 108.177 37.433 102.460 43.253 100.830 49.345 L 99.585 54.000 74.927 54.000 C 51.436 54.000 50.144 54.099 47.615 56.088 C 41.847 60.625 42.000 58.828 42.000 122.000 C 42.000 185.172 41.847 183.375 47.615 187.912 C 50.205 189.949 51.229 190.000 89.635 190.000 L 129.000 190.000 129.000 194.500 L 129.000 199.000 122.200 199.000 C 114.491 199.000 113.000 199.924 113.000 204.700 L 113.000 208.000 100.500 208.000 C 90.056 208.000 88.000 208.247 88.000 209.500 C 88.000 210.819 96.444 211.000 158.000 211.000 C 219.556 211.000 228.000 210.819 228.000 209.500 C 228.000 208.221 225.278 208.000 209.500 208.000 L 191.000 208.000 191.000 204.700 C 191.000 199.924 189.509 199.000 181.800 199.000 L 175.000 199.000 175.000 194.500 L 175.000 190.000 214.326 190.000 L 253.651 190.000 255.850 187.660 C 257.059 186.373 258.487 183.789 259.024 181.917 C 259.608 179.879 259.991 155.836 259.978 122.007 C 259.957 68.659 259.850 65.266 258.057 61.316 C 254.919 54.406 253.282 54.000 228.550 54.000 L 207.000 54.000 206.978 51.250 C 206.947 47.423 203.801 41.015 200.376 37.803 C 194.172 31.986 183.386 30.279 175.491 33.865 M 97.000 63.986 C 97.000 64.529 94.711 73.137 91.913 83.116 C 88.418 95.583 87.011 102.235 87.416 104.380 C 88.262 108.854 91.465 113.673 94.706 115.345 C 96.243 116.138 117.075 122.224 141.000 128.871 C 186.901 141.622 187.573 141.737 193.814 137.910 C 197.950 135.374 199.707 130.857 207.399 103.000 C 214.339 77.866 214.899 75.156 213.900 71.500 C 213.300 69.300 211.873 66.488 210.730 65.250 L 208.651 63.000 227.135 63.000 C 240.397 63.000 246.072 63.353 247.226 64.250 C 249.284 65.850 249.500 72.076 249.218 121.750 L 249.000 160.000 150.500 160.000 L 52.000 160.000 52.000 113.500 C 52.000 68.333 52.057 66.943 54.000 65.000 C 55.870 63.130 57.333 63.000 76.500 63.000 C 89.311 63.000 97.000 63.370 97.000 63.986 M 249.811 169.621 C 249.493 174.627 248.930 176.578 247.504 177.621 C 245.932 178.770 229.811 179.000 150.809 179.000 C 57.333 179.000 55.972 178.972 54.000 177.000 C 52.444 175.444 52.000 173.667 52.000 169.000 L 52.000 163.000 151.116 163.000 L 250.233 163.000 249.811 169.621 M 140.147 44.163 L 162.794 50.391 163.424 55.137 C 165.089 67.690 173.302 75.401 185.000 75.394 C 191.891 75.390 197.494 72.613 202.310 66.815 L 205.850 62.554 208.063 64.527 C 210.175 66.410 213.509 72.825 212.763 73.571 C 212.568 73.766 199.257 80.242 183.184 87.963 C 164.146 97.108 152.834 101.999 150.730 101.996 C 145.231 101.990 141.620 98.765 133.752 86.833 C 102.018 38.708 104.209 43.256 111.075 39.752 C 112.959 38.790 115.175 37.988 116.000 37.969 C 116.825 37.950 127.691 40.737 140.147 44.163 M 135.911 93.368 C 143.652 104.839 149.515 106.303 162.160 99.919 C 165.341 98.314 168.358 97.000 168.866 97.000 C 169.374 97.000 175.724 105.204 182.976 115.232 L 196.163 133.463 193.577 135.687 C 188.326 140.204 187.088 140.007 141.826 127.471 C 118.547 121.023 98.375 115.172 97.000 114.469 C 93.694 112.778 90.256 108.977 89.837 106.550 C 89.552 104.903 92.609 103.159 109.500 95.329 C 120.500 90.230 129.824 86.045 130.220 86.029 C 130.615 86.013 133.176 89.316 135.911 93.368 M 98.751 58.250 C 98.443 59.179 92.670 59.628 76.270 60.000 C 56.387 60.451 53.997 60.688 52.102 62.405 C 50.013 64.298 50.000 64.660 50.000 121.082 L 50.000 177.855 52.635 179.927 C 55.258 181.991 55.676 182.000 150.185 182.000 C 251.000 182.000 249.611 182.062 251.379 177.455 C 252.190 175.341 252.190 66.659 251.379 64.545 C 249.905 60.703 245.894 60.000 225.466 60.000 C 210.205 60.000 205.926 59.722 206.249 58.750 C 206.561 57.814 212.013 57.432 227.977 57.230 C 251.760 56.928 252.930 57.196 255.584 63.546 C 257.662 68.519 257.682 175.432 255.606 180.401 C 252.644 187.490 260.456 187.000 150.412 187.000 C 53.354 187.000 51.217 186.959 48.770 185.034 C 43.943 181.237 43.934 181.104 44.226 120.152 L 44.500 62.835 47.766 59.918 L 51.032 57.000 75.099 57.000 C 93.908 57.000 99.076 57.273 98.751 58.250 M 192.768 35.548 C 200.477 38.769 204.940 45.746 204.978 54.637 C 205.021 64.719 195.472 74.000 185.055 74.000 C 168.204 74.000 158.901 53.779 169.795 40.832 C 175.029 34.611 185.025 32.312 192.768 35.548 M 117.914 65.789 L 130.079 84.078 122.289 87.651 C 91.328 101.852 89.000 102.801 89.000 101.220 C 89.000 99.755 97.409 68.638 102.130 52.629 C 103.245 48.849 104.515 46.149 104.953 46.629 C 105.390 47.108 111.223 55.730 117.914 65.789 M 213.000 76.556 C 213.000 77.024 199.986 123.972 198.393 129.250 C 198.103 130.213 197.558 130.987 197.183 130.972 C 196.807 130.957 194.155 127.694 191.289 123.722 C 188.423 119.750 182.690 111.836 178.549 106.136 L 171.019 95.772 185.760 88.634 C 193.867 84.708 202.975 80.287 206.000 78.809 C 211.689 76.029 213.000 75.607 213.000 76.556 M 187.500 205.000 L 187.500 207.500 151.723 207.763 C 120.549 207.992 115.872 207.831 115.366 206.513 C 115.047 205.681 115.047 204.319 115.366 203.487 C 115.872 202.169 120.549 202.008 151.723 202.237 L 187.500 202.500 187.500 205.000 M 172.000 194.500 L 172.000 199.000 151.500 199.000 L 131.000 199.000 131.000 194.500 L 131.000 190.000 151.500 190.000 L 172.000 190.000 172.000 194.500 "/></g>
<g fill="#F1F7FEFF" stroke="#F1F7FEFF">
<path d="M 56.200 67.200 C 55.302 68.098 55.000 79.911 55.000 114.200 L 55.000 160.000 151.500 160.000 L 248.000 160.000 248.000 114.934 C 248.000 85.782 247.634 69.186 246.965 67.934 C 246.004 66.139 244.715 66.000 229.024 66.000 L 212.119 66.000 213.553 68.750 C 214.342 70.263 214.990 72.922 214.994 74.661 C 215.003 79.234 200.298 131.047 198.171 133.938 C 192.204 142.047 187.653 142.443 166.891 136.660 C 157.876 134.149 138.380 128.725 123.568 124.606 C 108.755 120.488 95.480 116.263 94.068 115.217 C 89.766 112.032 87.000 107.093 87.003 102.602 C 87.005 99.376 91.284 82.039 95.606 67.750 C 96.097 66.125 94.747 66.000 76.767 66.000 C 63.037 66.000 57.051 66.349 56.200 67.200 M 80.989 76.487 C 81.697 77.340 81.954 79.046 81.593 80.487 C 80.810 83.607 76.594 83.979 75.035 81.066 C 73.696 78.564 73.712 78.431 75.571 76.571 C 77.543 74.600 79.399 74.571 80.989 76.487 M 125.070 134.584 C 126.830 136.705 125.130 139.400 121.777 139.804 C 118.984 140.141 117.560 137.962 118.545 134.859 C 119.274 132.560 123.251 132.393 125.070 134.584 "/></g>
<g fill="#A5A5A5FF" stroke="#A5A5A5FF">
<path d="M 172.866 15.750 C 171.013 18.913 168.824 22.850 168.000 24.500 C 167.177 26.150 166.264 27.725 165.971 28.000 C 165.125 28.795 158.000 41.079 158.000 41.743 C 158.000 42.073 157.285 43.133 156.410 44.099 C 154.927 45.738 155.079 45.928 158.660 46.923 C 163.772 48.342 163.692 48.361 164.406 45.518 C 165.287 42.008 170.634 36.227 175.115 33.941 C 179.913 31.493 189.762 31.326 194.300 33.614 C 201.318 37.154 207.000 44.914 207.000 50.960 L 207.000 54.000 229.365 54.000 C 250.675 54.000 251.858 54.101 254.440 56.131 C 257.489 58.529 258.994 61.641 259.942 67.500 L 260.588 71.500 262.989 67.000 C 264.310 64.525 265.270 61.691 265.124 60.703 C 264.887 59.100 258.371 47.263 257.031 46.000 C 256.739 45.725 254.971 42.575 253.103 39.000 C 251.234 35.425 248.197 30.129 246.353 27.231 C 244.509 24.332 243.000 21.520 243.000 20.981 C 243.000 20.441 242.550 20.000 242.000 20.000 C 241.450 20.000 241.000 19.351 241.000 18.557 C 241.000 17.764 240.056 15.514 238.901 13.557 L 236.802 10.000 206.518 10.000 L 176.234 10.000 172.866 15.750 "/></g>
<g fill="#F1F7FEFF" stroke="#F1F7FEFF">
<path d="M 110.500 40.208 C 105.511 43.069 105.518 43.086 122.572 68.895 C 142.120 98.479 141.519 97.639 144.535 99.615 C 149.542 102.895 152.912 101.829 183.115 87.411 C 204.942 76.991 212.000 73.187 212.000 71.845 C 212.000 70.869 210.614 68.491 208.920 66.562 L 205.840 63.054 202.670 67.201 C 190.073 83.679 163.000 75.393 163.000 55.060 C 163.000 51.086 162.961 51.045 157.750 49.565 C 118.952 38.549 114.819 37.731 110.500 40.208 "/></g>
<g fill="#F1F7FEFF" stroke="#F1F7FEFF">
<path d="M 53.200 170.725 C 53.459 175.676 53.838 176.622 56.000 177.719 C 57.977 178.722 78.137 178.936 152.331 178.744 C 243.912 178.506 246.196 178.453 247.581 176.559 C 248.361 175.491 249.000 172.454 249.000 169.809 L 249.000 165.000 150.950 165.000 L 52.900 165.000 53.200 170.725 "/></g>
<g fill="#F1F7FEFF" stroke="#F1F7FEFF">
<path d="M 119.500 93.054 C 115.100 95.212 106.694 99.105 100.821 101.705 L 90.142 106.431 91.706 109.080 C 92.567 110.537 94.484 112.446 95.967 113.322 C 99.900 115.645 181.210 138.000 185.727 138.000 C 189.504 138.000 194.000 135.789 194.000 133.932 C 194.000 132.569 168.923 99.000 167.905 99.000 C 167.439 99.000 165.038 100.424 162.569 102.164 C 151.659 109.854 138.064 105.209 131.903 91.686 C 131.230 90.209 129.964 89.029 129.089 89.065 C 128.215 89.100 123.900 90.895 119.500 93.054 "/></g>
<g fill="#F1F7FEFF" stroke="#F1F7FEFF">
<path d="M 52.284 57.701 C 51.065 57.937 48.928 59.485 47.534 61.142 L 45.000 64.153 45.000 121.942 C 45.000 178.644 45.038 179.779 47.045 182.331 C 48.171 183.761 50.758 185.394 52.795 185.960 C 57.805 187.351 243.097 187.379 248.100 185.989 C 250.080 185.439 252.555 184.044 253.600 182.889 C 255.421 180.877 255.500 178.351 255.500 121.808 L 255.500 62.827 252.694 60.413 C 249.917 58.024 249.671 58.000 228.444 58.000 C 214.815 58.000 207.000 58.364 207.000 59.000 C 207.000 59.633 214.306 60.000 226.918 60.000 C 237.873 60.000 247.565 60.280 248.455 60.621 C 252.881 62.320 253.000 63.901 253.000 121.000 C 253.000 178.099 252.881 179.680 248.455 181.379 C 247.565 181.720 203.428 182.000 150.373 182.000 L 53.909 182.000 51.455 179.545 L 49.000 177.091 49.000 121.000 L 49.000 64.909 51.455 62.455 L 53.909 60.000 75.955 60.000 C 94.884 60.000 98.000 59.788 98.000 58.500 C 98.000 57.208 94.977 57.019 76.250 57.136 C 64.288 57.211 53.503 57.465 52.284 57.701 "/></g>
<g fill="#A5A5A5FF" stroke="#A5A5A5FF">
<path d="M 98.000 211.514 C 98.000 212.116 100.273 216.273 101.000 217.000 C 101.275 217.275 102.919 220.200 104.652 223.500 L 107.804 229.500 138.469 229.500 L 169.133 229.500 172.817 222.545 C 174.842 218.720 177.063 214.975 177.750 214.224 C 178.438 213.472 179.000 212.439 179.000 211.929 C 179.000 211.372 162.756 211.000 138.500 211.000 C 116.225 211.000 98.000 211.231 98.000 211.514 "/></g>
<g fill="#0000FFFF" stroke="#0000FFFF">
<path d="M 182.500 34.469 C 181.950 34.665 180.271 35.096 178.768 35.427 C 175.327 36.185 169.397 41.335 167.287 45.398 C 165.203 49.413 165.203 58.587 167.287 62.602 C 169.286 66.452 175.288 71.820 178.268 72.423 C 179.496 72.671 181.754 73.141 183.287 73.466 C 189.715 74.829 199.085 69.588 202.713 62.602 C 204.778 58.624 204.799 49.408 202.751 45.500 C 201.028 42.213 196.636 37.816 193.500 36.238 C 191.226 35.094 184.005 33.933 182.500 34.469 M 193.500 44.000 L 195.051 47.000 187.633 47.000 C 181.488 47.000 180.100 47.300 179.548 48.750 C 179.014 50.153 179.131 50.252 180.141 49.250 C 180.916 48.480 184.193 48.000 188.674 48.000 C 195.608 48.000 196.013 48.129 197.331 50.750 C 198.615 53.302 198.469 53.913 195.313 59.250 L 191.911 65.000 185.012 65.000 C 178.993 65.000 177.912 64.713 176.532 62.750 L 174.951 60.500 181.225 60.226 C 190.642 59.815 191.701 58.749 182.499 58.944 C 174.685 59.110 174.459 59.047 172.812 56.259 C 171.161 53.464 171.199 53.273 174.621 47.202 L 178.116 41.000 185.032 41.000 C 191.706 41.000 192.003 41.105 193.500 44.000 "/></g>
<g fill="#F1F7FEFF" stroke="#F1F7FEFF">
<path d="M 100.026 62.202 C 91.268 93.524 89.144 102.159 90.323 101.652 C 104.443 95.577 128.434 83.752 128.235 82.964 C 127.983 81.960 106.526 49.362 105.026 47.702 C 104.629 47.263 102.379 53.788 100.026 62.202 "/></g>
<g fill="#F1F7FEFF" stroke="#F1F7FEFF">
<path d="M 191.154 86.561 L 171.807 95.969 175.284 100.735 C 177.197 103.356 182.687 110.900 187.484 117.500 C 192.281 124.100 196.513 129.618 196.888 129.762 C 197.263 129.905 198.286 127.430 199.163 124.262 C 200.040 121.093 203.286 109.470 206.378 98.434 C 212.382 77.004 212.392 76.960 211.250 77.077 C 210.838 77.119 201.794 81.387 191.154 86.561 "/></g>
<g fill="#A5A5A5FF" stroke="#A5A5A5FF">
<path d="M 105.437 33.162 C 93.125 54.425 93.210 54.225 96.720 53.816 C 98.933 53.557 99.640 52.749 100.616 49.361 C 102.366 43.287 104.647 40.349 109.399 38.049 C 114.987 35.344 117.539 35.459 130.000 38.977 C 135.775 40.608 141.046 41.955 141.714 41.971 C 143.548 42.015 147.845 35.124 147.295 33.020 C 147.030 32.006 145.955 30.255 144.906 29.130 C 143.858 28.004 143.000 26.633 143.000 26.083 C 143.000 25.532 141.766 23.038 140.257 20.541 L 137.515 16.000 126.444 16.000 L 115.373 16.000 105.437 33.162 "/></g>
<g fill="#A5A5A5FF" stroke="#A5A5A5FF">
<path d="M 85.542 190.765 C 86.116 191.169 87.242 192.850 88.045 194.500 C 88.849 196.150 90.814 199.863 92.412 202.750 L 95.318 208.000 104.159 208.000 L 113.000 208.000 113.000 205.082 C 113.000 199.410 113.581 199.000 121.607 199.000 L 129.000 199.000 129.000 194.500 L 129.000 190.000 106.750 190.015 C 94.513 190.024 84.969 190.361 85.542 190.765 "/></g>
<g fill="#F1F7FEFF" stroke="#F1F7FEFF">
<path d="M 116.367 203.487 C 116.047 204.319 116.047 205.681 116.367 206.513 C 116.872 207.831 121.438 207.992 151.724 207.763 L 186.500 207.500 186.500 205.000 L 186.500 202.500 151.724 202.237 C 121.438 202.008 116.872 202.169 116.367 203.487 "/></g>
<g fill="#DFE5EEFF" stroke="#DFE5EEFF">
<path d="M 53.000 164.000 C 53.000 164.660 86.333 165.000 151.000 165.000 C 215.667 165.000 249.000 164.660 249.000 164.000 C 249.000 163.340 215.667 163.000 151.000 163.000 C 86.333 163.000 53.000 163.340 53.000 164.000 "/></g>
<g fill="#F1F7FEFF" stroke="#F1F7FEFF">
<path d="M 174.951 47.586 C 172.103 52.564 171.895 53.436 173.046 55.586 C 174.229 57.796 174.949 58.000 181.562 58.000 C 187.061 58.000 188.923 57.642 189.362 56.500 C 190.436 53.700 188.915 52.000 185.334 52.000 C 183.287 52.000 182.134 51.593 182.500 51.000 C 182.840 50.450 184.612 50.000 186.438 50.000 C 189.160 50.000 189.974 50.523 190.962 52.909 C 191.862 55.080 191.883 56.349 191.049 57.909 C 190.078 59.723 189.007 60.000 182.965 60.000 C 175.733 60.000 175.173 60.327 177.392 63.250 C 178.414 64.596 180.198 65.000 185.129 65.000 L 191.538 65.000 194.817 59.037 C 197.975 53.292 198.034 52.981 196.432 50.537 C 194.922 48.232 194.148 48.000 187.952 48.000 C 182.023 48.000 181.052 48.259 180.503 49.991 C 179.612 52.797 180.662 54.000 184.000 54.000 C 185.585 54.000 187.160 54.450 187.500 55.000 C 187.873 55.604 186.503 56.000 184.038 56.000 C 180.656 56.000 179.762 55.572 178.818 53.500 C 177.966 51.630 177.966 50.370 178.818 48.500 C 179.876 46.178 180.459 46.000 186.987 46.000 C 193.767 46.000 193.972 45.929 192.768 44.000 C 191.721 42.324 190.436 42.000 184.833 42.000 L 178.147 42.000 174.951 47.586 "/></g>
<g fill="#DFE5EEFF" stroke="#DFE5EEFF">
<path d="M 56.000 64.294 L 53.500 65.559 53.240 112.779 C 53.070 143.763 53.324 160.000 53.980 160.000 C 54.629 160.000 55.072 143.574 55.240 113.250 L 55.500 66.500 75.918 66.000 C 90.999 65.631 96.444 65.173 96.751 64.250 C 97.349 62.452 59.560 62.493 56.000 64.294 "/></g>
<g fill="#DFE5EEFF" stroke="#DFE5EEFF">
<path d="M 211.441 64.532 C 212.963 65.683 216.892 66.000 229.632 66.000 C 241.534 66.000 246.098 66.334 246.691 67.250 C 247.136 67.938 247.734 89.200 248.020 114.500 L 248.539 160.500 248.770 114.184 C 248.926 82.787 248.656 67.225 247.930 65.870 C 247.074 64.270 246.252 64.005 243.805 64.543 C 241.688 65.008 240.960 64.874 241.434 64.107 C 241.924 63.314 237.484 63.009 225.809 63.032 C 211.250 63.060 209.708 63.221 211.441 64.532 "/></g>
<g fill="#F1F7FEFF" stroke="#F1F7FEFF">
<path d="M 132.000 196.500 L 132.000 199.000 151.500 199.000 L 171.000 199.000 171.000 196.500 L 171.000 194.000 151.500 194.000 L 132.000 194.000 132.000 196.500 "/></g>
<g fill="#DFE5EEFF" stroke="#DFE5EEFF">
<path d="M 132.000 192.000 C 132.000 193.926 132.667 194.000 149.918 194.000 C 168.594 194.000 171.000 193.702 171.000 191.393 C 171.000 190.250 167.501 190.000 151.500 190.000 C 132.667 190.000 132.000 190.068 132.000 192.000 "/></g>
<g fill="#F1F7FEFF" stroke="#F1F7FEFF">
<path d="M 294.635 153.073 C 291.094 155.857 291.094 160.143 294.635 162.927 C 296.084 164.067 297.823 165.000 298.500 165.000 C 301.156 165.000 305.000 160.860 305.000 158.000 C 305.000 155.140 301.156 151.000 298.500 151.000 C 297.823 151.000 296.084 151.933 294.635 153.073 M 300.500 158.000 C 300.500 160.851 297.344 162.059 296.390 159.574 C 295.480 157.203 296.767 154.809 298.747 155.190 C 299.854 155.403 300.500 156.439 300.500 158.000 "/></g>
<g fill="#416672FF" stroke="#416672FF">
<path d="M 235.000 209.500 C 235.000 210.846 237.751 211.005 257.001 210.769 C 270.609 210.603 279.097 210.118 279.251 209.500 C 279.410 208.862 271.450 208.403 257.250 208.231 C 237.776 207.995 235.000 208.154 235.000 209.500 "/></g>
<g fill="#416672FF" stroke="#416672FF">
<path d="M 14.000 209.500 C 14.000 210.846 16.751 211.005 36.001 210.769 C 49.609 210.603 58.097 210.118 58.251 209.500 C 58.410 208.862 50.450 208.403 36.250 208.231 C 16.776 207.995 14.000 208.154 14.000 209.500 "/></g>
<g fill="#A5A5A5FF" stroke="#A5A5A5FF">
<path d="M 175.000 194.500 L 175.000 199.000 181.000 199.000 C 184.494 199.000 187.000 198.565 187.000 197.958 C 187.000 197.385 187.900 195.950 189.000 194.770 C 192.697 190.801 191.689 190.000 183.000 190.000 L 175.000 190.000 175.000 194.500 "/></g>
<g fill="#416672FF" stroke="#416672FF">
<path d="M 72.000 209.500 C 72.000 210.667 73.333 211.000 78.000 211.000 C 82.667 211.000 84.000 210.667 84.000 209.500 C 84.000 208.333 82.667 208.000 78.000 208.000 C 73.333 208.000 72.000 208.333 72.000 209.500 "/></g>
<g fill="#F1F7FEFF" stroke="#F1F7FEFF">
<path d="M 287.487 169.042 C 286.667 171.624 288.083 173.323 290.644 172.830 C 291.859 172.596 292.500 171.613 292.500 169.986 C 292.500 166.640 288.489 165.884 287.487 169.042 "/></g>
<g fill="#000000FF" stroke="#000000FF">
<path d="M 297.250 155.731 C 296.563 155.970 296.000 156.981 296.000 157.976 C 296.000 159.921 297.725 160.976 299.750 160.269 C 300.438 160.030 301.000 159.019 301.000 158.024 C 301.000 156.079 299.275 155.024 297.250 155.731 "/></g>
<g fill="#416672FF" stroke="#416672FF">
<path d="M 63.694 208.639 C 62.484 209.850 64.124 211.000 67.059 211.000 C 69.007 211.000 70.000 210.493 70.000 209.500 C 70.000 207.988 65.025 207.309 63.694 208.639 "/></g>
<g fill="#7F7CFFFF" stroke="#7F7CFFFF">
<path d="M 177.652 41.750 C 177.395 42.163 180.631 42.237 184.843 41.916 L 192.500 41.331 185.309 41.166 C 181.354 41.075 177.908 41.338 177.652 41.750 "/></g>
<g fill="#0000FFFF" stroke="#0000FFFF">
<path d="M 185.749 51.723 C 187.637 51.958 189.431 52.937 190.034 54.063 C 190.604 55.128 190.942 56.053 190.785 56.118 C 190.628 56.184 190.829 56.186 191.231 56.125 C 191.634 56.063 191.449 54.885 190.821 53.506 C 189.885 51.453 189.030 51.029 186.089 51.160 L 182.500 51.320 185.749 51.723 "/></g>
<g fill="#0000FFFF" stroke="#0000FFFF">
<path d="M 179.247 53.000 C 180.350 54.842 181.567 55.485 183.872 55.444 C 186.685 55.394 186.710 55.369 184.122 55.194 C 182.495 55.085 180.484 54.022 179.497 52.750 C 177.750 50.501 177.750 50.501 179.247 53.000 "/></g>
<g fill="#A5A5A5FF" stroke="#A5A5A5FF">
<path d="M 138.000 100.000 L 140.500 102.500 138.000 100.000 L 135.500 97.500 138.000 100.000 "/></g>
<g fill="#A5A5A5FF" stroke="#A5A5A5FF">
<path d="M 242.500 64.000 C 241.181 64.567 241.011 64.878 242.000 64.914 C 242.825 64.945 244.175 64.533 245.000 64.000 C 246.828 62.819 245.249 62.819 242.500 64.000 "/></g>
<g fill="#A5A5A5FF" stroke="#A5A5A5FF">
<path d="M 176.564 110.104 C 176.880 110.615 177.635 110.726 178.242 110.350 C 178.934 109.923 178.719 109.576 177.668 109.422 C 176.745 109.286 176.249 109.593 176.564 110.104 "/></g>
<g fill="#A5A5A5FF" stroke="#A5A5A5FF">
<path d="M 211.800 77.200 C 212.733 78.133 213.000 78.133 213.000 77.200 C 213.000 76.540 212.460 76.000 211.800 76.000 C 210.867 76.000 210.867 76.267 211.800 77.200 "/></g>
<g fill="#A5A5A5FF" stroke="#A5A5A5FF">
<path d="M 253.500 60.500 L 255.000 62.000 253.500 60.500 L 252.000 59.000 253.500 60.500 "/></g>
<g fill="#0600DBFF" stroke="#0600DBFF">
<path d="M 170.378 40.378 L 169.500 41.256 170.378 40.378 L 171.256 39.500 170.378 40.378 "/></g>
</svg>
