<?xml version="1.0" encoding="utf-8"?>
<!DOCTYPE svg PUBLIC "-//W3C//DTD SVG 20010904//EN" "http://www.w3.org/TR/2001/REC-SVG-20010904/DTD/svg10.dtd">
<svg version="1.0" xmlns="http://www.w3.org/2000/svg" width="130pt" height="114pt" viewBox="0 0 130 114" style="" preserveAspectRatio="xMidYMid meet">
<g fill="#223BDEFF" stroke="#223BDEFF">
<path d="M 34.400 21.710 C 31.705 26.500 29.050 31.162 28.500 32.071 C 27.950 32.979 26.167 36.147 24.537 39.111 C 22.907 42.075 21.013 45.400 20.329 46.500 C 19.644 47.600 18.076 50.413 16.843 52.750 L 14.601 57.000 16.816 61.250 C 18.034 63.588 20.339 67.750 21.939 70.500 L 24.848 75.500 51.996 75.500 L 79.144 75.500 82.021 70.292 L 84.898 65.084 81.782 59.042 L 78.666 53.000 67.368 53.000 C 57.569 53.000 55.944 52.764 55.120 51.224 C 54.517 50.098 54.522 48.818 55.134 47.724 C 55.973 46.225 57.858 46.000 69.571 46.000 C 82.971 46.000 83.049 46.013 84.182 48.500 C 84.808 49.875 85.699 51.000 86.161 51.000 C 86.622 51.000 87.000 51.407 87.000 51.904 C 87.000 52.401 88.511 55.482 90.359 58.750 L 93.717 64.692 91.086 69.596 C 89.639 72.293 87.185 76.638 85.633 79.250 L 82.810 84.000 56.388 84.000 L 29.966 84.000 32.733 89.134 C 34.255 91.958 36.291 95.783 37.258 97.634 L 39.016 101.000 64.830 101.000 L 90.644 101.000 99.572 85.300 C 104.482 76.666 109.044 68.678 109.708 67.550 C 110.372 66.423 111.924 63.588 113.157 61.250 L 115.399 57.000 113.184 52.750 C 111.966 50.413 109.661 46.250 108.061 43.500 L 105.152 38.500 77.978 38.500 L 50.804 38.500 47.827 44.028 L 44.849 49.557 48.135 55.278 L 51.421 61.000 62.692 61.000 L 73.962 61.000 74.608 63.573 C 74.963 64.988 74.823 66.577 74.297 67.103 C 73.754 67.646 67.591 67.939 60.058 67.780 L 46.777 67.500 41.514 58.392 L 36.251 49.283 39.587 43.392 C 41.421 40.151 43.849 35.813 44.981 33.750 L 47.041 30.000 73.537 30.000 L 100.034 30.000 97.472 25.250 C 96.064 22.638 93.952 18.813 92.780 16.750 L 90.648 13.000 64.974 13.000 L 39.300 13.000 34.400 21.710 "/></g>
<g fill="#00010002" stroke="#00010002">
<path d="M 47.000 32.917 C 47.000 33.971 46.621 34.983 46.159 35.167 C 45.696 35.350 45.030 36.973 44.679 38.774 C 44.084 41.827 44.178 41.975 46.068 40.964 C 47.465 40.216 47.905 39.277 47.483 37.945 C 47.030 36.520 47.254 36.160 48.333 36.574 C 49.139 36.884 50.095 36.656 50.458 36.068 C 50.821 35.481 50.416 35.000 49.559 35.000 C 48.702 35.000 48.000 34.550 48.000 34.000 C 48.000 33.359 57.167 33.000 73.500 33.000 C 89.833 33.000 99.000 32.641 99.000 32.000 C 99.000 31.359 89.667 31.000 73.000 31.000 C 48.043 31.000 47.000 31.077 47.000 32.917 "/></g>
<g fill="#203BE091" stroke="#203BE091">
<path d="M 28.999 83.750 C 28.999 84.163 41.261 84.261 56.249 83.968 L 83.500 83.437 56.250 83.218 C 41.263 83.098 29.000 83.338 28.999 83.750 "/></g>
<g fill="#203BE091" stroke="#203BE091">
<path d="M 73.500 30.025 L 46.500 30.549 73.833 30.775 C 88.867 30.899 101.017 30.663 100.833 30.250 C 100.650 29.838 88.350 29.736 73.500 30.025 "/></g>
<g fill="#00010002" stroke="#00010002">
<path d="M 83.750 54.582 C 82.648 55.686 82.836 59.000 84.000 59.000 C 84.550 59.000 85.000 59.900 85.000 61.000 C 85.000 62.100 85.450 63.000 86.000 63.000 C 86.550 63.000 87.007 63.788 87.015 64.750 C 87.028 66.195 87.190 66.248 87.945 65.055 C 88.569 64.068 88.203 62.689 86.788 60.702 C 85.649 59.103 84.668 56.902 84.609 55.812 C 84.549 54.722 84.163 54.169 83.750 54.582 "/></g>
<g fill="#00010002" stroke="#00010002">
<path d="M 81.351 48.474 C 81.663 49.286 81.151 50.394 80.208 50.943 C 79.235 51.511 79.037 51.952 79.750 51.970 C 80.438 51.986 81.007 52.788 81.015 53.750 C 81.028 55.246 81.172 55.282 82.000 54.000 C 83.329 51.944 83.253 47.000 81.893 47.000 C 81.284 47.000 81.040 47.663 81.351 48.474 "/></g>
<g fill="#00010002" stroke="#00010002">
<path d="M 39.000 48.941 C 39.000 51.173 39.450 53.000 40.000 53.000 C 40.550 53.000 41.000 51.452 41.000 49.559 C 41.000 47.666 40.550 45.840 40.000 45.500 C 39.396 45.127 39.000 46.490 39.000 48.941 "/></g>
<g fill="#00010002" stroke="#00010002">
<path d="M 33.015 16.750 C 33.007 17.988 33.450 19.000 34.000 19.000 C 35.253 19.000 35.253 17.939 34.000 16.000 C 33.216 14.787 33.028 14.931 33.015 16.750 "/></g>
<g fill="#00010002" stroke="#00010002">
<path d="M 16.644 44.767 C 16.296 45.330 16.702 46.056 17.547 46.380 C 18.722 46.830 18.870 46.590 18.179 45.356 C 17.633 44.380 17.027 44.148 16.644 44.767 "/></g>
<g fill="#00004C01" stroke="#00004C01">
<path d="M 33.000 20.200 C 33.000 21.133 33.267 21.133 34.200 20.200 C 35.133 19.267 35.133 19.000 34.200 19.000 C 33.540 19.000 33.000 19.540 33.000 20.200 "/></g>
<g fill="#01000502" stroke="#01000502">
<path d="M 83.800 60.200 C 84.733 61.133 85.000 61.133 85.000 60.200 C 85.000 59.540 84.460 59.000 83.800 59.000 C 82.867 59.000 82.867 59.267 83.800 60.200 "/></g>
</svg>
