<?xml version="1.0" encoding="utf-8"?>
<!DOCTYPE svg PUBLIC "-//W3C//DTD SVG 20010904//EN" "http://www.w3.org/TR/2001/REC-SVG-20010904/DTD/svg10.dtd">
<svg version="1.0" xmlns="http://www.w3.org/2000/svg" width="457pt" height="130pt" viewBox="0 0 457 130" style="" preserveAspectRatio="xMidYMid meet">
<g fill="#000000FF" stroke="#000000FF">
<path d="M 1.000 65.000 L 1.000 129.000 228.500 129.000 L 456.000 129.000 456.000 65.000 L 456.000 1.000 228.500 1.000 L 1.000 1.000 1.000 65.000 M 124.871 22.132 C 127.142 26.055 129.000 29.600 129.000 30.010 C 129.000 30.420 129.675 31.315 130.500 32.000 C 131.325 32.685 132.000 34.083 132.000 35.108 C 132.000 36.878 130.501 36.984 101.924 37.235 L 71.847 37.500 68.997 42.500 C 67.429 45.250 65.064 49.482 63.741 51.905 L 61.336 56.310 63.418 60.405 C 64.563 62.657 65.760 64.725 66.079 65.000 C 66.397 65.275 67.931 67.863 69.488 70.750 L 72.318 76.000 86.659 76.000 C 101.673 76.000 102.043 75.881 100.393 71.582 C 99.883 70.254 97.737 70.000 87.002 70.000 L 74.217 70.000 72.531 66.250 C 69.723 60.008 68.563 58.000 67.763 58.000 C 66.339 58.000 66.993 56.277 71.129 49.132 L 75.259 42.000 105.590 42.000 L 135.922 42.000 142.461 53.083 C 146.057 59.179 149.000 64.543 149.000 65.002 C 149.000 65.707 139.059 83.306 136.010 88.000 C 135.474 88.825 134.099 91.300 132.954 93.500 C 131.810 95.700 130.334 98.400 129.674 99.500 C 129.014 100.600 126.753 104.538 124.651 108.250 L 120.828 115.000 91.521 115.000 L 62.214 115.000 56.107 104.681 C 52.748 99.006 50.000 94.056 50.000 93.681 C 50.000 93.307 63.613 92.997 80.250 92.993 L 110.500 92.987 115.500 84.243 C 118.250 79.435 120.646 74.937 120.823 74.250 C 121.099 73.186 118.104 67.341 113.266 59.500 C 112.587 58.400 111.747 56.713 111.399 55.750 C 110.837 54.195 109.179 54.000 96.490 54.000 C 81.572 54.000 79.740 54.556 82.448 58.260 C 83.458 59.640 85.835 59.986 95.937 60.218 L 108.201 60.500 111.802 67.172 L 115.402 73.845 112.556 79.172 C 107.419 88.785 110.625 88.000 76.506 88.000 L 46.321 88.000 45.193 85.750 C 44.573 84.513 42.236 80.350 40.000 76.500 C 32.718 63.963 32.887 65.883 38.241 56.500 C 39.497 54.300 42.049 49.800 43.914 46.500 C 45.779 43.200 50.655 34.763 54.750 27.750 L 62.196 15.000 91.468 15.000 L 120.741 15.000 124.871 22.132 M 285.429 40.571 C 286.293 41.436 287.000 42.473 287.000 42.876 C 287.000 43.279 289.925 48.735 293.500 55.000 L 300.000 66.391 300.000 52.650 L 300.000 38.909 306.750 39.204 L 313.500 39.500 313.500 65.000 L 313.500 90.500 306.031 90.500 L 298.562 90.500 294.245 83.000 C 291.870 78.875 288.707 73.052 287.214 70.059 L 284.500 64.618 284.000 77.559 L 283.500 90.500 276.750 90.796 L 270.000 91.091 270.000 65.046 L 270.000 39.000 276.929 39.000 C 281.894 39.000 284.302 39.445 285.429 40.571 M 207.576 39.232 C 210.109 39.909 213.940 41.969 216.091 43.810 C 219.820 47.001 220.000 47.429 220.000 53.078 L 220.000 59.000 213.563 59.000 L 207.127 59.000 206.813 55.781 C 206.380 51.326 202.619 49.248 197.348 50.550 C 194.521 51.248 193.417 52.081 193.188 53.689 C 192.916 55.605 193.742 56.136 199.796 57.939 C 203.602 59.073 207.178 60.000 207.744 60.000 C 209.260 60.000 213.350 62.260 216.879 65.048 C 219.847 67.394 219.982 67.821 219.991 74.899 C 220.000 81.992 219.861 82.433 216.629 85.572 C 213.196 88.905 205.111 92.000 199.833 92.000 C 193.810 92.000 187.547 89.513 183.267 85.421 C 179.225 81.558 179.000 81.043 179.000 75.671 L 179.000 70.000 185.943 70.000 L 192.885 70.000 193.193 74.250 C 193.479 78.206 193.747 78.561 197.082 79.385 C 201.500 80.477 206.358 78.471 206.803 75.370 C 207.039 73.718 206.219 72.905 203.032 71.630 C 200.792 70.733 198.266 70.000 197.418 70.000 C 193.701 70.000 185.766 66.516 182.527 63.461 C 179.276 60.395 179.000 59.679 179.001 54.317 C 179.002 49.722 179.475 47.955 181.251 45.907 C 187.006 39.272 197.643 36.575 207.576 39.232 M 349.702 40.250 C 351.945 43.211 364.000 82.196 364.000 86.488 L 364.000 91.000 358.121 91.000 C 351.658 91.000 351.916 91.261 348.996 81.750 L 347.845 78.000 341.151 78.000 L 334.457 78.000 332.468 84.250 L 330.478 90.500 324.739 90.800 L 319.000 91.100 319.000 86.508 C 319.000 83.504 321.285 75.098 325.605 62.208 C 329.238 51.368 332.629 41.713 333.140 40.750 C 333.897 39.327 335.441 39.000 341.413 39.000 C 346.115 39.000 349.096 39.449 349.702 40.250 M 261.800 45.250 L 262.100 51.000 251.050 51.000 L 240.000 51.000 240.000 55.000 L 240.000 59.000 250.000 59.000 L 260.000 59.000 260.000 64.500 L 260.000 70.000 250.000 70.000 L 240.000 70.000 240.000 74.500 L 240.000 79.000 251.000 79.000 L 262.000 79.000 262.000 85.000 L 262.000 91.000 244.000 91.000 L 226.000 91.000 226.000 64.977 L 226.000 38.954 243.750 39.227 L 261.500 39.500 261.800 45.250 M 402.500 45.000 L 402.500 50.500 396.271 50.797 L 390.042 51.094 389.771 70.797 L 389.500 90.500 382.750 90.796 L 376.000 91.091 376.000 71.091 L 376.000 51.091 369.250 50.796 L 362.500 50.500 362.187 46.136 C 361.646 38.595 360.660 38.926 382.727 39.229 L 402.500 39.500 402.500 45.000 M 423.000 65.000 L 423.000 91.000 416.000 91.000 L 409.000 91.000 409.000 65.000 L 409.000 39.000 416.000 39.000 L 423.000 39.000 423.000 65.000 "/></g>
<g fill="#FFFFFFFF" stroke="#FFFFFFFF">
<path d="M 54.750 27.750 C 50.655 34.763 45.779 43.200 43.914 46.500 C 42.049 49.800 39.497 54.300 38.241 56.500 C 32.887 65.883 32.718 63.963 40.000 76.500 C 42.236 80.350 44.573 84.513 45.193 85.750 L 46.321 88.000 76.506 88.000 C 110.625 88.000 107.419 88.785 112.556 79.172 L 115.402 73.845 111.802 67.172 L 108.201 60.500 95.937 60.218 C 85.835 59.986 83.458 59.640 82.448 58.260 C 79.740 54.556 81.572 54.000 96.490 54.000 C 109.179 54.000 110.837 54.195 111.399 55.750 C 111.747 56.713 112.587 58.400 113.266 59.500 C 118.104 67.341 121.099 73.186 120.823 74.250 C 120.646 74.937 118.250 79.435 115.500 84.243 L 110.500 92.987 80.250 92.993 C 63.613 92.997 50.000 93.307 50.000 93.681 C 50.000 94.056 52.748 99.006 56.107 104.681 L 62.214 115.000 91.521 115.000 L 120.828 115.000 124.651 108.250 C 126.753 104.538 129.014 100.600 129.674 99.500 C 130.334 98.400 131.810 95.700 132.954 93.500 C 134.099 91.300 135.474 88.825 136.010 88.000 C 139.059 83.306 149.000 65.707 149.000 65.002 C 149.000 64.543 146.057 59.179 142.461 53.083 L 135.922 42.000 105.590 42.000 L 75.259 42.000 71.129 49.132 C 66.993 56.277 66.339 58.000 67.763 58.000 C 68.563 58.000 69.723 60.008 72.531 66.250 L 74.217 70.000 87.002 70.000 C 97.737 70.000 99.883 70.254 100.393 71.582 C 102.043 75.881 101.673 76.000 86.659 76.000 L 72.318 76.000 69.488 70.750 C 67.931 67.863 66.397 65.275 66.079 65.000 C 65.760 64.725 64.563 62.657 63.418 60.405 L 61.336 56.310 63.741 51.905 C 65.064 49.482 67.429 45.250 68.997 42.500 L 71.847 37.500 101.924 37.235 C 130.501 36.984 132.000 36.878 132.000 35.108 C 132.000 34.083 131.325 32.685 130.500 32.000 C 129.675 31.315 129.000 30.420 129.000 30.010 C 129.000 29.600 127.142 26.055 124.871 22.132 L 120.741 15.000 91.468 15.000 L 62.196 15.000 54.750 27.750 "/></g>
<g fill="#FFFFFFFF" stroke="#FFFFFFFF">
<path d="M 270.000 65.046 L 270.000 91.091 276.750 90.796 L 283.500 90.500 284.000 77.559 L 284.500 64.618 287.214 70.059 C 288.707 73.052 291.870 78.875 294.245 83.000 L 298.562 90.500 306.031 90.500 L 313.500 90.500 313.500 65.000 L 313.500 39.500 306.750 39.204 L 300.000 38.909 300.000 52.650 L 300.000 66.391 293.500 55.000 C 289.925 48.735 287.000 43.279 287.000 42.876 C 287.000 42.473 286.293 41.436 285.429 40.571 C 284.302 39.445 281.894 39.000 276.929 39.000 L 270.000 39.000 270.000 65.046 "/></g>
<g fill="#FFFFFFFF" stroke="#FFFFFFFF">
<path d="M 192.000 39.365 C 182.359 42.546 179.003 46.406 179.001 54.317 C 179.000 59.679 179.276 60.395 182.527 63.461 C 185.766 66.516 193.701 70.000 197.418 70.000 C 198.266 70.000 200.792 70.733 203.032 71.630 C 206.219 72.905 207.039 73.718 206.803 75.370 C 206.358 78.471 201.500 80.477 197.082 79.385 C 193.747 78.561 193.479 78.206 193.193 74.250 L 192.885 70.000 185.943 70.000 L 179.000 70.000 179.000 75.671 C 179.000 81.043 179.225 81.558 183.267 85.421 C 187.547 89.513 193.810 92.000 199.833 92.000 C 205.111 92.000 213.196 88.905 216.629 85.572 C 219.861 82.433 220.000 81.992 219.991 74.899 C 219.982 67.821 219.847 67.394 216.879 65.048 C 213.350 62.260 209.260 60.000 207.744 60.000 C 207.178 60.000 203.602 59.073 199.796 57.939 C 193.742 56.136 192.916 55.605 193.188 53.689 C 193.417 52.081 194.521 51.248 197.348 50.550 C 202.619 49.248 206.380 51.326 206.813 55.781 L 207.127 59.000 213.563 59.000 L 220.000 59.000 220.000 53.078 C 220.000 47.429 219.820 47.001 216.091 43.810 C 209.907 38.517 200.070 36.702 192.000 39.365 "/></g>
<g fill="#FFFFFFFF" stroke="#FFFFFFFF">
<path d="M 333.140 40.750 C 332.629 41.713 329.238 51.368 325.605 62.208 C 321.285 75.098 319.000 83.504 319.000 86.508 L 319.000 91.100 324.739 90.800 L 330.478 90.500 332.468 84.250 L 334.457 78.000 341.151 78.000 L 347.845 78.000 348.996 81.750 C 351.916 91.261 351.658 91.000 358.121 91.000 L 364.000 91.000 364.000 86.488 C 364.000 82.196 351.945 43.211 349.702 40.250 C 349.096 39.449 346.115 39.000 341.413 39.000 C 335.441 39.000 333.897 39.327 333.140 40.750 M 343.985 66.750 C 343.993 66.888 342.602 67.000 340.893 67.000 C 338.330 67.000 337.910 66.693 338.495 65.250 C 338.885 64.288 339.681 62.182 340.263 60.570 L 341.321 57.641 342.645 62.070 C 343.374 64.507 343.976 66.613 343.985 66.750 "/></g>
<g fill="#FFFFFFFF" stroke="#FFFFFFFF">
<path d="M 226.000 64.977 L 226.000 91.000 244.000 91.000 L 262.000 91.000 262.000 85.000 L 262.000 79.000 251.000 79.000 L 240.000 79.000 240.000 74.500 L 240.000 70.000 250.000 70.000 L 260.000 70.000 260.000 64.500 L 260.000 59.000 250.000 59.000 L 240.000 59.000 240.000 55.000 L 240.000 51.000 251.050 51.000 L 262.100 51.000 261.800 45.250 L 261.500 39.500 243.750 39.227 L 226.000 38.954 226.000 64.977 "/></g>
<g fill="#FFFFFFFF" stroke="#FFFFFFFF">
<path d="M 362.414 40.364 C 362.117 41.138 362.015 43.735 362.187 46.136 L 362.500 50.500 369.250 50.796 L 376.000 51.091 376.000 71.091 L 376.000 91.091 382.750 90.796 L 389.500 90.500 389.771 70.797 L 390.042 51.094 396.271 50.797 L 402.500 50.500 402.500 45.000 L 402.500 39.500 382.727 39.229 C 366.473 39.006 362.857 39.208 362.414 40.364 "/></g>
<g fill="#FFFFFFFF" stroke="#FFFFFFFF">
<path d="M 409.000 65.000 L 409.000 91.000 416.000 91.000 L 423.000 91.000 423.000 65.000 L 423.000 39.000 416.000 39.000 L 409.000 39.000 409.000 65.000 "/></g>
<g fill="#000000FF" stroke="#000000FF">
<path d="M 340.263 60.570 C 339.681 62.182 338.885 64.288 338.495 65.250 C 337.910 66.693 338.330 67.000 340.893 67.000 C 342.602 67.000 343.993 66.888 343.985 66.750 C 343.976 66.613 343.374 64.507 342.645 62.070 L 341.321 57.641 340.263 60.570 "/></g>
</svg>
