<?xml version="1.0" encoding="utf-8"?>
<!DOCTYPE svg PUBLIC "-//W3C//DTD SVG 20010904//EN" "http://www.w3.org/TR/2001/REC-SVG-20010904/DTD/svg10.dtd">
<svg version="1.0" xmlns="http://www.w3.org/2000/svg" width="318pt" height="229pt" viewBox="0 0 318 229" style="" preserveAspectRatio="xMidYMid meet">
<g fill="#486468FE" stroke="#486468FE">
<path d="M 91.455 33.455 C 89.231 35.678 89.000 36.715 89.000 44.455 L 89.000 53.000 70.450 53.000 C 55.826 53.000 51.280 53.321 48.967 54.517 C 42.869 57.671 43.000 56.220 43.000 120.403 C 43.000 162.484 43.324 179.617 44.154 181.439 C 46.899 187.464 46.829 187.454 90.000 188.000 L 129.500 188.500 129.500 193.000 L 129.500 197.500 122.000 198.000 L 114.500 198.500 114.193 202.750 L 113.885 207.000 101.443 207.000 C 93.814 207.000 89.000 207.387 89.000 208.000 C 89.000 208.657 112.667 209.000 158.000 209.000 C 203.333 209.000 227.000 208.657 227.000 208.000 C 227.000 207.369 220.186 207.000 208.557 207.000 L 190.115 207.000 189.807 202.750 L 189.500 198.500 181.750 198.208 L 174.000 197.916 174.000 192.958 L 174.000 188.000 213.326 188.000 L 252.651 188.000 254.701 185.750 C 259.030 180.997 259.000 181.460 259.000 119.948 L 259.000 60.765 255.043 56.808 L 251.086 52.851 242.540 53.175 C 237.472 53.368 233.825 53.093 233.576 52.500 C 233.346 51.950 233.122 52.738 233.079 54.250 C 233.036 55.763 233.450 57.000 234.000 57.000 C 234.550 57.000 235.000 56.550 235.000 56.000 C 235.000 54.308 247.862 54.805 250.928 56.616 C 256.689 60.020 256.476 57.753 256.782 118.965 C 256.988 160.151 256.750 176.189 255.902 178.235 C 255.263 179.778 253.414 182.156 251.794 183.520 L 248.847 186.000 151.391 186.000 C 44.653 186.000 48.719 186.226 45.566 180.128 C 43.244 175.638 43.198 66.492 45.516 61.607 C 48.347 55.641 50.763 55.000 70.404 55.000 C 87.333 55.000 88.000 55.076 88.000 57.000 C 88.000 58.921 87.333 59.000 71.189 59.000 C 55.652 59.000 54.211 59.155 52.189 61.039 L 50.000 63.078 49.932 110.789 C 49.835 178.064 49.732 175.075 52.240 177.750 L 54.349 180.000 150.720 180.000 L 247.091 180.000 249.545 177.545 L 252.000 175.091 252.000 119.680 C 252.000 54.797 252.798 59.418 241.492 58.835 L 234.996 58.500 235.114 61.500 C 235.180 63.187 235.432 63.734 235.689 62.750 C 236.285 60.472 243.618 60.344 246.777 62.557 L 249.000 64.113 249.000 111.557 L 249.000 159.000 232.500 159.000 L 216.000 159.000 215.767 131.750 L 215.535 104.500 215.251 130.750 L 214.967 157.000 211.983 157.000 L 209.000 157.000 209.000 120.000 L 209.000 83.000 213.750 82.930 C 222.923 82.794 222.923 81.144 213.750 81.070 C 208.630 81.029 205.000 80.585 205.000 80.000 C 205.000 79.450 204.213 79.012 203.250 79.027 C 201.959 79.046 202.222 79.501 204.250 80.758 L 207.000 82.463 207.000 119.732 L 207.000 157.000 152.500 157.000 L 98.000 157.000 98.000 104.500 L 98.000 52.000 146.019 52.000 L 194.038 52.000 193.373 54.649 C 192.905 56.514 193.048 57.089 193.854 56.590 C 194.484 56.201 195.000 54.997 195.000 53.915 C 195.000 51.602 203.254 43.000 205.474 43.000 C 206.313 43.000 207.000 42.592 207.000 42.094 C 207.000 40.271 202.674 42.390 198.726 46.146 L 194.674 50.000 145.337 50.000 L 96.000 50.000 96.000 103.500 L 96.000 157.000 93.000 157.000 L 90.000 157.000 90.000 97.556 L 90.000 38.112 92.413 35.306 L 94.826 32.500 150.663 32.215 C 181.373 32.058 207.500 32.176 208.722 32.477 C 211.259 33.102 215.000 36.766 215.000 38.625 C 215.000 39.312 213.538 40.055 211.750 40.277 C 209.892 40.507 210.855 40.699 214.000 40.724 C 217.025 40.748 218.713 40.562 217.750 40.311 C 216.788 40.059 216.000 38.966 216.000 37.881 C 216.000 36.797 214.895 34.805 213.545 33.455 L 211.091 31.000 152.500 31.000 L 93.909 31.000 91.455 33.455 M 88.375 64.125 C 88.719 65.844 89.000 87.904 89.000 113.148 L 89.000 159.045 70.750 158.773 L 52.500 158.500 52.240 112.215 L 51.980 65.929 54.445 63.465 C 56.851 61.058 57.274 61.000 72.330 61.000 L 87.750 61.000 88.375 64.125 M 248.794 168.224 C 248.527 174.786 248.271 175.564 246.000 176.709 C 244.042 177.697 223.265 177.974 150.205 177.985 L 56.909 178.000 54.455 175.545 C 52.390 173.481 52.000 172.131 52.000 167.045 L 52.000 161.000 150.544 161.000 L 249.088 161.000 248.794 168.224 M 186.814 203.763 L 187.129 207.025 151.328 206.763 C 117.703 206.516 115.506 206.390 115.179 204.692 C 114.252 199.875 113.589 199.957 151.224 200.237 L 186.500 200.500 186.814 203.763 M 171.805 193.250 L 172.110 198.000 151.555 198.000 L 131.000 198.000 131.000 193.667 C 131.000 191.283 131.309 189.024 131.687 188.646 C 132.065 188.268 141.178 188.081 151.937 188.229 L 171.500 188.500 171.805 193.250 "/></g>
<g fill="#FEFEFEFE" stroke="#FEFEFEFE">
<path d="M 99.000 54.417 C 99.000 55.746 99.563 57.096 100.250 57.417 C 101.250 57.883 101.250 58.117 100.250 58.583 C 99.563 58.904 99.000 59.992 99.000 61.000 C 99.000 62.008 99.563 63.096 100.250 63.417 C 101.250 63.883 101.250 64.117 100.250 64.583 C 99.277 65.037 99.000 75.228 99.000 110.583 L 99.000 156.000 153.000 156.000 L 207.000 156.000 207.000 119.535 C 207.000 84.205 206.938 83.037 205.018 82.010 C 203.072 80.968 203.032 81.371 202.768 104.725 L 202.500 128.500 191.233 128.783 L 179.966 129.066 180.233 103.783 L 180.500 78.500 189.237 78.211 L 197.973 77.923 194.987 72.630 C 193.344 69.720 192.000 66.587 192.000 65.669 C 192.000 64.149 189.448 64.000 163.469 64.000 C 138.486 64.000 134.862 63.805 134.336 62.433 C 132.966 58.862 135.433 58.508 164.049 58.168 C 186.535 57.900 192.000 57.574 192.000 56.499 C 192.000 55.765 192.273 54.452 192.607 53.582 C 193.155 52.153 188.652 52.000 146.107 52.000 L 99.000 52.000 99.000 54.417 M 147.800 78.200 C 148.541 78.941 149.000 82.578 149.000 87.700 C 149.000 95.887 149.034 96.000 151.500 96.000 C 152.875 96.000 154.000 96.450 154.000 97.000 C 154.000 97.550 152.875 98.000 151.500 98.000 C 149.320 98.000 149.000 98.438 149.000 101.427 C 149.000 103.892 149.702 105.407 151.500 106.821 C 154.023 108.806 154.824 111.000 153.025 111.000 C 152.475 111.000 152.312 112.308 152.650 114.000 C 153.342 117.462 151.658 118.097 150.000 115.000 C 149.411 113.900 148.270 113.000 147.465 113.000 C 146.464 113.000 146.000 111.917 146.000 109.581 L 146.000 106.161 133.852 106.070 C 118.613 105.955 118.971 106.310 119.637 92.000 C 120.408 75.415 118.910 77.000 133.819 77.000 C 142.426 77.000 146.992 77.392 147.800 78.200 M 112.000 103.500 L 112.000 129.000 107.559 129.000 C 105.116 129.000 102.841 128.552 102.503 128.005 C 101.760 126.803 100.923 79.934 101.624 78.799 C 101.896 78.359 104.341 78.000 107.059 78.000 L 112.000 78.000 112.000 103.500 M 127.571 58.429 C 130.385 61.242 128.097 65.000 123.571 65.000 C 121.238 65.000 121.000 64.630 121.000 61.000 C 121.000 57.370 121.238 57.000 123.571 57.000 C 124.986 57.000 126.786 57.643 127.571 58.429 M 117.500 60.980 C 117.500 64.790 115.134 66.186 112.452 63.960 C 109.445 61.465 111.609 56.656 115.488 57.212 C 117.063 57.437 117.500 58.255 117.500 60.980 M 106.456 58.344 C 108.807 60.063 107.861 65.000 105.181 65.000 C 101.536 65.000 99.839 61.234 102.250 58.496 C 103.825 56.708 104.199 56.694 106.456 58.344 M 153.500 126.500 C 153.500 127.050 152.038 127.641 150.250 127.813 C 147.787 128.051 147.000 127.733 147.000 126.500 C 147.000 125.267 147.787 124.949 150.250 125.187 C 152.038 125.359 153.500 125.950 153.500 126.500 M 145.000 126.500 C 145.000 128.133 139.537 128.678 138.586 127.139 C 137.754 125.792 139.079 125.000 142.167 125.000 C 144.019 125.000 145.000 125.520 145.000 126.500 M 171.000 112.059 C 171.000 114.007 170.493 115.000 169.500 115.000 C 167.988 115.000 167.309 110.025 168.639 108.694 C 169.850 107.484 171.000 109.124 171.000 112.059 M 170.500 103.500 C 170.500 105.058 169.938 106.521 169.250 106.750 C 168.402 107.033 168.000 105.989 168.000 103.500 C 168.000 101.011 168.402 99.967 169.250 100.250 C 169.938 100.479 170.500 101.942 170.500 103.500 M 170.281 126.500 C 170.401 127.050 169.038 127.641 167.250 127.813 C 164.177 128.110 163.129 127.204 164.713 125.621 C 165.717 124.616 170.017 125.295 170.281 126.500 M 171.000 120.000 C 171.000 122.000 170.500 123.000 169.500 123.000 C 168.500 123.000 168.000 122.000 168.000 120.000 C 168.000 118.000 168.500 117.000 169.500 117.000 C 170.500 117.000 171.000 118.000 171.000 120.000 M 140.813 120.250 C 140.493 123.577 138.766 124.388 138.165 121.494 C 137.716 119.330 138.684 117.000 140.032 117.000 C 140.665 117.000 140.994 118.372 140.813 120.250 M 141.000 112.142 C 141.000 114.117 140.566 115.022 139.750 114.750 C 138.277 114.260 137.591 111.509 138.408 109.378 C 139.317 107.010 141.000 108.805 141.000 112.142 M 161.084 126.500 C 161.096 127.050 160.381 127.651 159.494 127.835 C 157.151 128.321 154.766 127.187 155.531 125.950 C 156.338 124.645 161.054 125.112 161.084 126.500 M 162.000 97.000 C 162.000 97.550 160.425 98.000 158.500 98.000 C 156.575 98.000 155.000 97.550 155.000 97.000 C 155.000 96.450 156.575 96.000 158.500 96.000 C 160.425 96.000 162.000 96.450 162.000 97.000 M 170.000 97.000 C 170.000 97.550 168.650 98.000 167.000 98.000 C 165.350 98.000 164.000 97.550 164.000 97.000 C 164.000 96.450 165.350 96.000 167.000 96.000 C 168.650 96.000 170.000 96.450 170.000 97.000 "/></g>
<g fill="#FEFEFEFE" stroke="#FEFEFEFE">
<path d="M 58.352 64.692 C 57.171 64.923 55.939 66.100 55.616 67.306 C 55.292 68.513 55.021 89.413 55.014 113.750 L 55.000 158.000 71.500 158.000 L 88.000 158.000 88.000 111.000 L 88.000 64.000 74.250 64.136 C 66.688 64.211 59.533 64.461 58.352 64.692 "/></g>
<g fill="#FEFEFEFE" stroke="#FEFEFEFE">
<path d="M 235.645 67.023 C 234.378 73.361 227.980 80.215 221.148 82.556 C 217.594 83.773 217.492 83.949 217.200 89.403 C 216.981 93.488 216.508 95.000 215.450 95.000 C 214.359 95.000 214.000 93.638 214.000 89.500 C 214.000 84.667 213.758 84.000 212.000 84.000 C 210.037 84.000 210.000 84.667 210.000 120.000 C 210.000 155.333 210.037 156.000 212.000 156.000 C 213.948 156.000 214.000 155.333 214.000 130.500 C 214.000 108.500 214.206 105.000 215.500 105.000 C 216.796 105.000 217.000 108.611 217.000 131.500 L 217.000 158.000 231.886 158.000 L 246.773 158.000 247.466 153.381 C 248.590 145.881 246.910 65.625 245.611 64.765 C 245.000 64.361 242.644 64.024 240.375 64.015 C 236.580 64.001 236.202 64.242 235.645 67.023 M 217.000 99.500 C 217.000 101.056 216.433 102.000 215.500 102.000 C 214.567 102.000 214.000 101.056 214.000 99.500 C 214.000 97.944 214.567 97.000 215.500 97.000 C 216.433 97.000 217.000 97.944 217.000 99.500 "/></g>
<g fill="#AAAAAA1E" stroke="#AAAAAA1E">
<path d="M 177.169 16.981 C 168.652 31.237 167.341 30.000 190.960 30.000 L 211.154 30.000 214.077 32.923 C 215.685 34.531 217.000 36.512 217.000 37.325 C 217.000 38.139 218.463 39.312 220.250 39.933 C 227.037 42.291 228.826 43.497 231.622 47.597 L 234.500 51.819 243.000 52.160 C 256.771 52.711 259.996 56.502 260.006 72.151 C 260.012 80.526 260.151 81.240 261.345 79.000 C 262.079 77.625 264.776 72.975 267.339 68.667 C 269.903 64.359 272.000 60.400 272.000 59.869 C 272.000 59.338 270.425 56.442 268.500 53.433 C 266.575 50.423 265.000 47.712 265.000 47.407 C 265.000 46.637 250.480 21.638 246.369 15.331 C 244.516 12.487 243.000 9.675 243.000 9.081 C 243.000 8.330 233.771 8.009 212.750 8.028 L 182.500 8.057 177.169 16.981 "/></g>
<g fill="#FEFEFEFE" stroke="#FEFEFEFE">
<path d="M 53.000 168.845 C 53.000 177.736 44.142 177.000 151.174 177.000 C 258.362 177.000 249.000 177.797 249.000 168.671 L 249.000 164.000 151.000 164.000 L 53.000 164.000 53.000 168.845 "/></g>
<g fill="#FEFEFEFE" stroke="#FEFEFEFE">
<path d="M 93.250 35.525 L 91.000 37.929 91.000 96.964 C 91.000 155.247 91.025 156.000 92.991 156.000 C 94.951 156.000 94.987 155.169 95.241 102.750 L 95.500 49.500 145.720 49.241 C 194.431 48.989 195.971 48.923 196.988 47.022 C 198.382 44.419 205.576 40.318 210.250 39.463 C 214.571 38.673 214.854 37.873 211.811 35.039 C 209.660 33.035 208.647 33.001 152.561 33.061 L 95.500 33.122 93.250 35.525 "/></g>
<g fill="#FEFEFEFE" stroke="#FEFEFEFE">
<path d="M 53.610 56.737 C 49.530 57.157 48.072 58.129 46.158 61.705 C 45.319 63.272 45.000 79.638 45.000 121.034 L 45.000 178.200 48.400 181.600 L 51.800 185.000 150.384 185.000 L 248.968 185.000 252.234 182.082 L 255.500 179.164 255.500 120.716 L 255.500 62.269 252.144 59.135 C 249.108 56.298 248.180 56.000 242.394 56.000 C 238.798 56.000 236.000 56.438 236.000 57.000 C 236.000 57.550 238.440 58.000 241.423 58.000 C 245.799 58.000 247.441 58.500 249.923 60.589 L 253.000 63.178 253.000 119.660 C 253.000 179.546 253.181 177.227 248.295 179.842 C 245.186 181.506 56.809 181.501 53.684 179.837 C 48.966 177.324 49.065 178.612 49.032 119.339 L 49.000 63.178 52.077 60.589 C 55.113 58.034 55.367 58.000 71.577 58.000 C 81.859 58.000 88.000 57.626 88.000 57.000 C 88.000 56.032 62.362 55.835 53.610 56.737 "/></g>
<g fill="#AAAAAA1E" stroke="#AAAAAA1E">
<path d="M 105.000 211.532 C 105.000 212.375 106.913 216.425 109.250 220.533 L 113.500 228.001 144.360 227.751 L 175.220 227.500 180.090 219.500 C 182.768 215.100 184.969 211.163 184.980 210.750 C 184.991 210.338 167.000 210.000 145.000 210.000 C 109.737 210.000 105.000 210.181 105.000 211.532 "/></g>
<g fill="#0000FEFE" stroke="#0000FEFE">
<path d="M 201.250 47.549 C 198.913 49.971 197.000 52.639 197.000 53.477 C 197.000 54.314 196.550 55.000 196.000 55.000 C 195.429 55.000 195.000 58.000 195.000 62.000 C 195.000 66.000 195.429 69.000 196.000 69.000 C 196.550 69.000 197.000 69.695 197.000 70.545 C 197.000 72.546 201.454 77.000 203.455 77.000 C 204.305 77.000 205.000 77.450 205.000 78.000 C 205.000 78.550 205.900 79.000 207.000 79.000 C 208.100 79.000 209.000 79.450 209.000 80.000 C 209.000 80.556 211.667 81.000 215.000 81.000 C 218.333 81.000 221.000 80.556 221.000 80.000 C 221.000 79.450 221.690 79.000 222.533 79.000 C 224.524 79.000 231.000 72.524 231.000 70.533 C 231.000 69.690 231.450 69.000 232.000 69.000 C 232.571 69.000 233.000 66.000 233.000 62.000 C 233.000 58.000 232.571 55.000 232.000 55.000 C 231.450 55.000 231.000 54.310 231.000 53.467 C 231.000 51.476 224.524 45.000 222.533 45.000 C 221.690 45.000 221.000 44.550 221.000 44.000 C 221.000 43.413 217.798 43.030 213.250 43.072 L 205.500 43.145 201.250 47.549 M 211.000 55.418 C 211.000 55.648 211.273 56.548 211.607 57.418 C 212.025 58.508 211.637 59.005 210.357 59.015 C 208.792 59.028 208.736 59.183 210.000 60.000 C 212.255 61.458 213.000 61.209 213.000 59.000 C 213.000 56.293 214.615 56.462 215.399 59.250 C 215.978 61.308 216.121 61.350 217.069 59.744 C 217.803 58.501 218.820 58.168 220.553 58.603 C 222.047 58.978 223.000 58.785 223.000 58.108 C 223.000 57.499 223.450 57.000 224.000 57.000 C 225.390 57.000 225.250 61.062 223.750 64.293 C 222.727 66.495 221.834 66.986 218.833 66.992 C 216.802 66.997 214.965 66.443 214.714 65.750 C 214.352 64.750 213.838 64.750 212.144 65.750 C 208.698 67.785 203.327 67.358 202.710 65.000 C 202.163 62.906 204.341 62.125 205.500 64.000 C 205.840 64.550 206.766 65.000 207.559 65.000 C 208.352 65.000 209.000 64.550 209.000 64.000 C 209.000 63.450 208.293 63.000 207.429 63.000 C 205.068 63.000 203.000 60.465 203.000 57.571 C 203.000 55.238 203.370 55.000 207.000 55.000 C 209.200 55.000 211.000 55.188 211.000 55.418 "/></g>
<g fill="#00000000" stroke="#00000000">
<path d="M 194.250 194.941 C 192.463 198.196 191.000 202.015 191.000 203.429 L 191.000 206.000 208.000 206.000 L 225.000 206.000 225.000 203.500 L 225.000 201.000 237.000 201.000 L 249.000 201.000 249.000 195.000 L 249.000 189.000 223.250 189.012 L 197.500 189.024 194.250 194.941 M 209.000 197.000 L 209.000 201.000 201.297 201.000 L 193.594 201.000 197.500 197.000 C 200.701 193.721 202.091 193.000 205.203 193.000 C 208.966 193.000 209.000 193.036 209.000 197.000 "/></g>
<g fill="#C2CEDEFE" stroke="#C2CEDEFE">
<path d="M 102.501 80.194 C 102.190 81.462 102.062 92.625 102.218 105.000 L 102.500 127.500 107.268 127.806 L 112.035 128.111 111.768 103.306 L 111.500 78.500 107.283 78.194 C 103.587 77.926 102.996 78.173 102.501 80.194 M 110.242 116.250 C 110.493 116.938 110.495 119.162 110.246 121.194 C 109.845 124.472 109.446 124.923 106.706 125.194 C 103.632 125.499 103.618 125.478 103.899 121.008 C 104.054 118.538 104.392 116.175 104.649 115.758 C 105.416 114.517 109.749 114.898 110.242 116.250 M 108.000 82.149 C 111.731 82.673 111.435 86.393 107.628 86.828 C 103.912 87.253 102.575 85.830 103.442 82.375 C 103.836 80.807 104.433 80.080 104.819 80.701 C 105.193 81.305 106.625 81.956 108.000 82.149 M 110.000 94.987 C 112.033 96.283 110.126 99.377 107.011 99.837 C 103.409 100.370 101.309 95.588 104.750 94.689 C 107.624 93.938 108.427 93.984 110.000 94.987 M 110.447 108.724 C 111.279 110.890 108.627 112.977 105.938 112.274 C 103.466 111.627 102.826 110.617 103.604 108.590 C 104.443 106.402 109.595 106.503 110.447 108.724 M 110.500 103.500 C 110.500 104.963 109.723 105.589 107.609 105.830 C 104.550 106.179 102.829 104.610 103.720 102.287 C 104.059 101.405 105.403 101.004 107.378 101.196 C 109.732 101.425 110.500 101.992 110.500 103.500 M 110.500 90.428 C 110.500 92.894 105.176 94.622 104.334 92.429 C 103.310 89.760 104.844 87.849 107.744 88.183 C 109.689 88.407 110.500 89.067 110.500 90.428 "/></g>
<g fill="#AAAAAA1E" stroke="#AAAAAA1E">
<path d="M 118.740 19.250 C 115.079 24.812 113.000 28.502 113.000 29.434 C 113.000 29.745 121.813 30.000 132.583 30.000 C 143.857 30.000 152.025 29.616 151.833 29.094 C 151.650 28.596 149.700 25.007 147.500 21.118 L 143.500 14.046 132.847 14.023 L 122.194 14.000 118.740 19.250 "/></g>
<g fill="#00000000" stroke="#00000000">
<path d="M 183.829 212.949 C 182.631 215.056 182.489 216.021 183.329 216.364 C 184.038 216.653 183.908 216.876 183.000 216.929 C 182.175 216.976 180.474 218.812 179.220 221.008 L 176.940 225.000 200.970 225.000 L 225.000 225.000 225.000 220.500 L 225.000 216.000 205.000 216.000 C 185.667 216.000 185.000 215.933 185.000 214.000 C 185.000 212.067 185.667 212.000 205.000 212.000 C 217.667 212.000 225.000 211.633 225.000 211.000 C 225.000 210.367 217.754 210.002 205.250 210.006 L 185.500 210.013 183.829 212.949 "/></g>
<g fill="#AAAAAA1E" stroke="#AAAAAA1E">
<path d="M 95.907 197.250 L 100.784 205.500 106.892 205.798 L 113.000 206.095 113.000 202.748 C 113.000 197.922 114.475 197.000 122.200 197.000 L 129.000 197.000 129.000 193.000 L 129.000 189.000 110.015 189.000 L 91.030 189.000 95.907 197.250 "/></g>
<g fill="#C2CEDEFE" stroke="#C2CEDEFE">
<path d="M 180.090 115.424 C 180.171 120.141 180.633 124.000 181.118 124.000 C 181.603 124.000 182.000 123.550 182.000 123.000 C 182.000 122.450 182.450 122.000 183.000 122.000 C 183.550 122.000 184.000 122.675 184.000 123.500 C 184.000 124.353 183.102 125.000 181.917 125.000 C 180.698 125.000 180.006 125.517 180.249 126.246 C 180.538 127.113 184.052 127.590 191.832 127.818 L 203.000 128.146 203.000 118.073 L 203.000 108.000 192.750 108.118 C 186.455 108.191 183.657 108.505 185.500 108.931 C 187.150 109.313 191.313 109.423 194.750 109.176 C 200.054 108.794 201.000 108.974 201.000 110.363 C 201.000 111.675 199.860 112.023 195.250 112.118 C 188.074 112.266 186.590 112.062 186.153 110.867 C 185.494 109.064 183.201 112.052 183.720 114.037 C 184.004 115.122 183.734 116.000 183.117 116.000 C 182.057 116.000 181.575 113.489 181.933 109.839 C 182.022 108.925 181.612 107.878 181.020 107.512 C 180.280 107.055 179.990 109.526 180.090 115.424 M 197.582 114.000 C 199.462 114.000 201.000 114.450 201.000 115.000 C 201.000 115.550 198.975 116.000 196.500 116.000 C 194.025 116.000 192.000 116.450 192.000 117.000 C 192.000 117.550 194.025 118.000 196.500 118.000 C 202.385 118.000 202.327 119.693 196.426 120.162 C 190.821 120.608 190.304 120.286 190.548 116.500 C 190.800 112.602 190.744 112.688 192.582 113.393 C 193.452 113.727 195.702 114.000 197.582 114.000 M 201.000 123.593 C 201.000 124.563 199.783 125.000 197.082 125.000 C 192.403 125.000 190.000 124.200 189.999 122.643 C 189.998 121.883 191.839 121.615 195.499 121.843 C 199.399 122.085 201.000 122.595 201.000 123.593 M 188.000 123.500 C 188.000 124.325 187.550 125.000 187.000 125.000 C 186.450 125.000 186.000 124.325 186.000 123.500 C 186.000 122.675 186.450 122.000 187.000 122.000 C 187.550 122.000 188.000 122.675 188.000 123.500 M 184.000 119.500 C 184.000 120.325 183.550 121.000 183.000 121.000 C 182.450 121.000 182.000 120.325 182.000 119.500 C 182.000 118.675 182.450 118.000 183.000 118.000 C 183.550 118.000 184.000 118.675 184.000 119.500 M 188.500 119.000 C 188.160 119.550 187.459 120.000 186.941 120.000 C 186.423 120.000 186.000 119.550 186.000 119.000 C 186.000 118.450 186.702 118.000 187.559 118.000 C 188.416 118.000 188.840 118.450 188.500 119.000 M 188.000 115.000 C 188.000 115.550 187.550 116.000 187.000 116.000 C 186.450 116.000 186.000 115.550 186.000 115.000 C 186.000 114.450 186.450 114.000 187.000 114.000 C 187.550 114.000 188.000 114.450 188.000 115.000 "/></g>
<g fill="#90ACB0FE" stroke="#90ACB0FE">
<path d="M 180.417 93.355 C 180.131 94.101 180.033 97.588 180.199 101.105 L 180.500 107.500 191.750 107.783 L 203.000 108.066 203.000 100.679 L 203.000 93.293 195.349 92.647 C 184.054 91.692 181.000 91.837 180.417 93.355 M 201.000 100.000 C 201.000 100.564 198.167 101.000 194.500 101.000 C 190.833 101.000 188.000 100.564 188.000 100.000 C 188.000 99.436 190.833 99.000 194.500 99.000 C 198.167 99.000 201.000 99.436 201.000 100.000 M 201.000 96.000 C 201.000 96.564 198.167 97.000 194.500 97.000 C 190.833 97.000 188.000 96.564 188.000 96.000 C 188.000 95.436 190.833 95.000 194.500 95.000 C 198.167 95.000 201.000 95.436 201.000 96.000 M 200.917 104.633 C 201.146 104.835 198.333 105.000 194.667 105.000 C 190.679 105.000 188.000 104.578 188.000 103.950 C 188.000 102.994 199.763 103.615 200.917 104.633 M 186.000 104.287 C 186.000 104.995 185.100 105.642 184.000 105.725 C 182.857 105.811 182.000 105.259 182.000 104.438 C 182.000 103.647 182.900 103.000 184.000 103.000 C 185.100 103.000 186.000 103.579 186.000 104.287 M 186.000 100.000 C 186.000 100.550 185.100 101.000 184.000 101.000 C 182.900 101.000 182.000 100.550 182.000 100.000 C 182.000 99.450 182.900 99.000 184.000 99.000 C 185.100 99.000 186.000 99.450 186.000 100.000 M 186.000 96.000 C 186.000 96.550 185.100 97.000 184.000 97.000 C 182.900 97.000 182.000 96.550 182.000 96.000 C 182.000 95.450 182.900 95.000 184.000 95.000 C 185.100 95.000 186.000 95.450 186.000 96.000 "/></g>
<g fill="#FEFEFEFE" stroke="#FEFEFEFE">
<path d="M 116.180 203.250 L 116.500 205.500 151.750 205.763 L 187.000 206.026 187.000 203.513 L 187.000 201.000 151.430 201.000 L 115.861 201.000 116.180 203.250 "/></g>
<g fill="#E8ECF8FE" stroke="#E8ECF8FE">
<path d="M 138.000 58.882 C 135.373 59.346 134.500 59.999 134.500 61.500 C 134.500 63.448 135.255 63.507 163.267 63.765 L 192.034 64.031 191.804 61.015 L 191.575 58.000 166.537 58.132 C 152.767 58.204 139.925 58.542 138.000 58.882 "/></g>
<g fill="#C2CEDEFE" stroke="#C2CEDEFE">
<path d="M 180.730 78.603 C 180.329 79.005 180.005 82.296 180.010 85.917 L 180.021 92.500 191.510 92.755 L 203.000 93.010 203.000 87.160 C 203.000 79.252 201.908 78.465 190.480 78.134 C 185.520 77.990 181.132 78.201 180.730 78.603 M 201.000 85.282 C 201.000 86.972 195.850 87.366 194.827 85.754 C 194.192 84.754 194.028 84.754 194.015 85.750 C 193.998 87.198 182.464 87.559 181.586 86.139 C 180.524 84.421 182.506 84.000 191.667 84.000 C 198.591 84.000 201.000 84.331 201.000 85.282 M 189.757 88.930 C 191.757 89.504 193.000 89.504 193.000 88.930 C 193.000 88.419 194.800 88.000 197.000 88.000 C 199.892 88.000 201.000 88.416 201.000 89.502 C 201.000 90.738 199.356 90.987 191.750 90.906 C 182.148 90.804 180.573 90.499 181.543 88.931 C 182.277 87.743 185.615 87.742 189.757 88.930 "/></g>
<g fill="#FEFEFEFE" stroke="#FEFEFEFE">
<path d="M 125.000 92.051 L 125.000 101.103 134.000 100.872 C 140.673 100.701 143.000 100.300 143.000 99.320 C 143.000 98.579 141.905 98.000 140.500 98.000 C 139.125 98.000 138.000 97.550 138.000 97.000 C 138.000 96.450 139.125 96.000 140.500 96.000 C 142.910 96.000 143.000 95.767 143.000 89.500 L 143.000 83.000 134.000 83.000 L 125.000 83.000 125.000 92.051 "/></g>
<g fill="#00AAEEFE" stroke="#00AAEEFE">
<path d="M 121.000 92.000 L 121.000 105.000 129.500 105.000 C 137.333 105.000 138.000 104.843 138.000 103.000 C 138.000 101.205 137.333 101.000 131.500 101.000 L 125.000 101.000 125.000 91.000 L 125.000 81.000 133.800 81.000 C 139.311 81.000 143.048 81.448 143.800 82.200 C 145.049 83.449 145.499 96.535 144.393 99.418 C 144.059 100.288 143.159 101.000 142.393 101.000 C 141.627 101.000 141.000 101.900 141.000 103.000 C 141.000 105.341 143.490 105.653 145.571 103.571 C 146.645 102.498 147.000 99.267 147.000 90.571 L 147.000 79.000 134.000 79.000 L 121.000 79.000 121.000 92.000 "/></g>
<g fill="#90ACB0FE" stroke="#90ACB0FE">
<path d="M 52.409 162.377 C 52.118 163.134 52.051 165.947 52.260 168.627 L 52.640 173.500 52.820 167.755 L 53.000 162.010 151.250 161.750 L 249.500 161.490 151.219 161.245 C 68.515 161.039 52.853 161.218 52.409 162.377 "/></g>
<g fill="#E8ECF8FE" stroke="#E8ECF8FE">
<path d="M 95.459 50.250 C 95.195 50.938 95.101 75.125 95.249 104.000 L 95.518 156.500 95.759 103.259 L 96.000 50.019 145.750 49.750 L 195.500 49.481 145.719 49.240 C 106.637 49.052 95.834 49.269 95.459 50.250 "/></g>
<g fill="#AAAAAA1E" stroke="#AAAAAA1E">
<path d="M 53.857 66.000 C 52.709 72.246 52.817 158.000 53.972 158.000 C 54.691 158.000 54.938 143.021 54.760 110.250 C 54.617 83.988 54.211 64.075 53.857 66.000 "/></g>
<g fill="#AAAAAA1E" stroke="#AAAAAA1E">
<path d="M 175.000 193.000 L 175.000 197.000 181.950 197.000 C 187.517 197.000 189.095 197.347 189.875 198.742 C 190.411 199.700 191.043 200.262 191.279 199.992 C 192.219 198.913 197.000 190.282 197.000 189.662 C 197.000 189.298 192.050 189.000 186.000 189.000 L 175.000 189.000 175.000 193.000 "/></g>
<g fill="#FEFEFEFE" stroke="#FEFEFEFE">
<path d="M 132.000 195.000 C 132.000 196.932 132.667 197.000 151.500 197.000 C 170.333 197.000 171.000 196.932 171.000 195.000 C 171.000 193.068 170.333 193.000 151.500 193.000 C 132.667 193.000 132.000 193.068 132.000 195.000 "/></g>
<g fill="#90ACB0FE" stroke="#90ACB0FE">
<path d="M 52.500 112.750 L 52.500 158.500 70.250 158.487 L 88.000 158.474 70.510 158.237 L 53.020 158.000 52.760 112.500 L 52.500 67.000 52.500 112.750 "/></g>
<g fill="#E8ECF8FE" stroke="#E8ECF8FE">
<path d="M 247.637 112.088 C 247.831 137.162 248.217 157.449 248.495 157.172 C 249.223 156.443 248.887 104.614 248.021 84.000 C 247.550 72.803 247.412 82.920 247.637 112.088 "/></g>
<g fill="#FEFEFEFE" stroke="#FEFEFEFE">
<path d="M 294.200 152.200 C 293.540 152.860 293.000 154.795 293.000 156.500 C 293.000 160.425 294.575 162.000 298.500 162.000 C 302.425 162.000 304.000 160.425 304.000 156.500 C 304.000 152.575 302.425 151.000 298.500 151.000 C 296.795 151.000 294.860 151.540 294.200 152.200 M 301.376 155.231 C 302.215 156.563 302.084 157.344 300.811 158.618 C 297.815 161.614 293.345 157.699 296.046 154.444 C 297.601 152.571 299.916 152.913 301.376 155.231 "/></g>
<g fill="#486468FE" stroke="#486468FE">
<path d="M 236.000 208.000 C 236.000 208.636 243.833 209.000 257.500 209.000 C 271.167 209.000 279.000 208.636 279.000 208.000 C 279.000 207.364 271.167 207.000 257.500 207.000 C 243.833 207.000 236.000 207.364 236.000 208.000 "/></g>
<g fill="#486468FE" stroke="#486468FE">
<path d="M 15.000 208.000 C 15.000 208.636 22.833 209.000 36.500 209.000 C 50.167 209.000 58.000 208.636 58.000 208.000 C 58.000 207.364 50.167 207.000 36.500 207.000 C 22.833 207.000 15.000 207.364 15.000 208.000 "/></g>
<g fill="#90ACB0FE" stroke="#90ACB0FE">
<path d="M 131.398 189.405 C 131.102 190.177 131.003 192.315 131.180 194.155 L 131.500 197.500 151.250 197.488 L 171.000 197.476 151.500 197.238 L 132.000 197.000 132.000 193.021 L 132.000 189.042 151.750 188.749 L 171.500 188.455 151.719 188.228 C 135.501 188.041 131.840 188.253 131.398 189.405 "/></g>
<g fill="#E8ECF8FE" stroke="#E8ECF8FE">
<path d="M 132.425 192.122 C 132.120 192.615 140.567 192.993 151.691 192.985 C 165.217 192.974 171.024 192.653 170.000 191.971 C 168.149 190.738 133.193 190.879 132.425 192.122 "/></g>
<g fill="#00000000" stroke="#00000000">
<path d="M 264.021 74.337 C 263.286 75.515 263.250 75.963 263.926 75.546 C 264.602 75.128 265.000 76.016 265.000 77.941 C 265.000 80.843 265.205 81.000 269.000 81.000 C 272.982 81.000 273.000 80.982 273.000 77.105 C 273.000 73.307 272.903 73.201 269.095 72.838 C 266.098 72.552 264.919 72.901 264.021 74.337 "/></g>
<g fill="#C2CEDEFE" stroke="#C2CEDEFE">
<path d="M 57.000 63.000 C 59.028 64.310 88.000 64.310 88.000 63.000 C 88.000 62.374 81.927 62.006 71.750 62.015 C 60.889 62.026 55.997 62.352 57.000 63.000 "/></g>
<g fill="#90ACB0FE" stroke="#90ACB0FE">
<path d="M 104.667 115.667 C 104.300 116.033 104.000 118.283 104.000 120.667 C 104.000 124.778 104.148 125.000 106.891 125.000 C 109.483 125.000 109.829 124.613 110.240 121.250 C 110.492 119.188 110.493 116.938 110.242 116.250 C 109.763 114.937 105.810 114.524 104.667 115.667 "/></g>
<g fill="#486468FE" stroke="#486468FE">
<path d="M 146.586 104.636 C 146.264 105.476 146.000 107.750 146.000 109.689 C 146.000 112.443 146.335 113.085 147.530 112.627 C 148.529 112.243 149.453 112.901 150.191 114.520 C 151.385 117.140 153.010 117.856 152.985 115.750 C 152.976 115.063 152.559 113.851 152.057 113.058 C 151.442 112.085 151.630 111.260 152.635 110.525 C 153.893 109.605 153.584 108.943 150.649 106.272 C 147.857 103.731 147.057 103.409 146.586 104.636 "/></g>
<g fill="#90ACB0FE" stroke="#90ACB0FE">
<path d="M 190.871 113.143 C 190.334 114.631 190.501 119.601 191.103 120.013 C 192.326 120.852 201.000 119.876 201.000 118.899 C 201.000 118.405 198.975 118.000 196.500 118.000 C 194.025 118.000 192.000 117.550 192.000 117.000 C 192.000 116.450 194.025 116.000 196.500 116.000 C 198.975 116.000 201.000 115.550 201.000 115.000 C 201.000 114.450 199.462 114.000 197.582 114.000 C 195.702 114.000 193.452 113.727 192.582 113.393 C 191.712 113.059 190.942 112.947 190.871 113.143 "/></g>
<g fill="#C2CEDEFE" stroke="#C2CEDEFE">
<path d="M 132.001 190.500 C 132.001 191.132 139.168 191.500 151.501 191.500 C 163.834 191.500 171.001 191.132 171.001 190.500 C 171.001 189.868 163.834 189.500 151.501 189.500 C 139.168 189.500 132.001 189.868 132.001 190.500 "/></g>
<g fill="#90ACB0FE" stroke="#90ACB0FE">
<path d="M 186.000 110.747 C 186.000 111.640 188.156 112.000 193.500 112.000 C 199.590 112.000 201.000 111.710 201.000 110.459 C 201.000 109.181 199.714 108.967 193.500 109.205 C 188.309 109.404 186.000 109.879 186.000 110.747 "/></g>
<g fill="#FEFEFEFE" stroke="#FEFEFEFE">
<path d="M 204.000 58.357 C 204.000 60.304 204.649 60.984 207.000 61.500 C 210.665 62.305 211.050 65.000 207.500 65.000 C 206.125 65.000 205.000 64.523 205.000 63.941 C 205.000 63.359 204.482 63.202 203.849 63.594 C 203.051 64.087 203.263 64.719 204.540 65.653 C 206.934 67.403 208.502 67.355 210.386 65.471 C 212.464 63.393 211.466 61.358 207.733 60.057 C 205.300 59.209 204.889 58.711 205.838 57.762 C 206.787 56.813 207.502 56.832 209.134 57.851 C 210.854 58.926 211.142 58.922 210.782 57.826 C 210.542 57.097 208.918 56.359 207.173 56.187 C 204.377 55.910 204.000 56.168 204.000 58.357 "/></g>
<g fill="#90ACB0FE" stroke="#90ACB0FE">
<path d="M 181.694 84.639 C 180.200 86.133 182.498 87.000 187.952 87.000 C 192.215 87.000 193.941 86.596 194.362 85.500 C 194.836 84.264 193.826 84.000 188.635 84.000 C 185.169 84.000 182.046 84.288 181.694 84.639 "/></g>
<g fill="#AAAAAA1E" stroke="#AAAAAA1E">
<path d="M 245.000 63.917 C 245.000 64.421 245.563 65.020 246.250 65.248 C 247.148 65.546 247.655 70.140 248.050 81.581 L 248.600 97.500 248.800 81.679 C 248.959 69.099 248.707 65.564 247.571 64.429 C 245.928 62.785 245.000 62.600 245.000 63.917 "/></g>
<g fill="#FEFEFEFE" stroke="#FEFEFEFE">
<path d="M 214.269 62.525 C 215.440 66.340 217.305 66.672 217.821 63.157 C 218.206 60.544 220.000 61.287 220.000 64.059 C 220.000 66.841 221.877 66.453 223.025 63.435 C 224.474 59.622 224.048 58.025 222.508 61.500 L 221.179 64.500 220.481 61.750 C 220.097 60.238 219.419 59.000 218.975 59.000 C 218.530 59.000 217.735 60.238 217.207 61.750 L 216.247 64.500 215.515 61.750 C 215.112 60.238 214.424 59.000 213.985 59.000 C 213.546 59.000 213.674 60.586 214.269 62.525 "/></g>
<g fill="#90ACB0FE" stroke="#90ACB0FE">
<path d="M 104.387 89.433 C 104.057 90.295 104.033 91.643 104.334 92.429 C 105.176 94.622 110.500 92.894 110.500 90.428 C 110.500 87.931 105.289 87.083 104.387 89.433 "/></g>
<g fill="#90ACB0FE" stroke="#90ACB0FE">
<path d="M 190.000 122.893 C 190.000 124.211 192.653 125.000 197.082 125.000 C 199.898 125.000 201.000 124.578 201.000 123.500 C 201.000 122.348 199.722 122.000 195.500 122.000 C 192.475 122.000 190.000 122.402 190.000 122.893 "/></g>
<g fill="#E8ECF8FE" stroke="#E8ECF8FE">
<path d="M 103.380 83.452 C 102.531 85.664 103.644 86.713 106.717 86.601 C 108.803 86.525 109.580 85.937 109.820 84.250 C 110.092 82.332 109.682 82.000 107.038 82.000 C 105.250 82.000 103.701 82.615 103.380 83.452 M 109.000 84.500 C 109.000 86.114 108.084 86.353 105.582 85.393 C 103.147 84.459 103.707 83.000 106.500 83.000 C 108.056 83.000 109.000 83.567 109.000 84.500 "/></g>
<g fill="#90ACB0FE" stroke="#90ACB0FE">
<path d="M 188.000 81.000 C 188.000 81.564 190.833 82.000 194.500 82.000 C 198.167 82.000 201.000 81.564 201.000 81.000 C 201.000 80.436 198.167 80.000 194.500 80.000 C 190.833 80.000 188.000 80.436 188.000 81.000 "/></g>
<g fill="#C2CEDEFE" stroke="#C2CEDEFE">
<path d="M 188.000 100.000 C 188.000 100.564 190.833 101.000 194.500 101.000 C 198.167 101.000 201.000 100.564 201.000 100.000 C 201.000 99.436 198.167 99.000 194.500 99.000 C 190.833 99.000 188.000 99.436 188.000 100.000 "/></g>
<g fill="#C2CEDEFE" stroke="#C2CEDEFE">
<path d="M 188.000 96.000 C 188.000 96.564 190.833 97.000 194.500 97.000 C 198.167 97.000 201.000 96.564 201.000 96.000 C 201.000 95.436 198.167 95.000 194.500 95.000 C 190.833 95.000 188.000 95.436 188.000 96.000 "/></g>
<g fill="#90ACB0FE" stroke="#90ACB0FE">
<path d="M 192.638 89.500 C 192.180 90.695 192.970 91.000 196.531 91.000 C 199.837 91.000 201.000 90.610 201.000 89.500 C 201.000 88.424 199.901 88.000 197.107 88.000 C 194.569 88.000 193.014 88.522 192.638 89.500 "/></g>
<g fill="#E8ECF8FE" stroke="#E8ECF8FE">
<path d="M 180.000 128.224 C 180.000 128.651 185.063 128.964 191.250 128.921 C 197.438 128.878 202.050 128.680 201.500 128.481 C 199.391 127.719 180.000 127.487 180.000 128.224 "/></g>
<g fill="#88F8FEFE" stroke="#88F8FEFE">
<path d="M 134.250 82.731 L 143.000 83.075 143.194 86.038 C 143.366 88.655 143.395 88.621 143.444 85.750 L 143.500 82.500 134.500 82.444 L 125.500 82.388 134.250 82.731 "/></g>
<g fill="#486468FE" stroke="#486468FE">
<path d="M 221.000 42.000 C 221.000 42.550 221.710 43.000 222.578 43.000 C 223.447 43.000 225.886 44.800 228.000 47.000 C 232.220 51.392 233.661 52.104 231.983 48.969 C 230.871 46.890 223.381 41.000 221.850 41.000 C 221.382 41.000 221.000 41.450 221.000 42.000 "/></g>
<g fill="#FEFEFEFE" stroke="#FEFEFEFE">
<path d="M 288.364 167.493 C 288.018 168.396 288.214 169.614 288.800 170.200 C 290.324 171.724 293.210 170.331 292.812 168.265 C 292.369 165.963 289.165 165.407 288.364 167.493 "/></g>
<g fill="#486468FE" stroke="#486468FE">
<path d="M 73.000 208.000 C 73.000 208.550 75.250 209.000 78.000 209.000 C 80.750 209.000 83.000 208.550 83.000 208.000 C 83.000 207.450 80.750 207.000 78.000 207.000 C 75.250 207.000 73.000 207.450 73.000 208.000 "/></g>
<g fill="#90ACB0FE" stroke="#90ACB0FE">
<path d="M 181.694 88.639 C 180.484 89.850 182.124 91.000 185.059 91.000 C 187.007 91.000 188.000 90.493 188.000 89.500 C 188.000 87.988 183.025 87.309 181.694 88.639 "/></g>
<g fill="#FEFEFEFE" stroke="#FEFEFEFE">
<path d="M 104.000 109.393 C 104.000 110.159 104.732 111.067 105.627 111.410 C 107.459 112.114 110.271 110.248 109.430 108.887 C 108.533 107.435 104.000 107.858 104.000 109.393 "/></g>
<g fill="#C2CEDEFE" stroke="#C2CEDEFE">
<path d="M 188.000 103.950 C 188.000 104.578 190.679 105.000 194.667 105.000 C 202.763 105.000 202.614 104.496 194.250 103.583 C 190.120 103.132 188.000 103.257 188.000 103.950 "/></g>
<g fill="#FEFEFEFE" stroke="#FEFEFEFE">
<path d="M 105.008 95.974 C 103.891 96.680 103.803 97.203 104.658 98.058 C 106.220 99.620 110.054 98.303 109.342 96.449 C 108.704 94.786 107.156 94.616 105.008 95.974 "/></g>
<g fill="#00000000" stroke="#00000000">
<path d="M 105.710 216.623 C 105.397 216.936 106.797 219.405 108.821 222.109 L 112.500 227.026 110.000 221.940 C 107.373 216.595 106.643 215.690 105.710 216.623 "/></g>
<g fill="#FEFEFEFE" stroke="#FEFEFEFE">
<path d="M 104.000 103.500 C 104.000 104.664 104.727 105.042 106.531 104.816 C 107.923 104.642 109.062 104.050 109.062 103.500 C 109.062 102.950 107.923 102.358 106.531 102.184 C 104.727 101.958 104.000 102.336 104.000 103.500 "/></g>
<g fill="#E8ECF8FE" stroke="#E8ECF8FE">
<path d="M 106.500 101.878 C 110.299 102.691 110.271 104.310 106.443 105.132 L 103.500 105.763 106.643 105.882 C 109.762 105.999 111.107 104.652 110.269 102.250 C 110.030 101.563 108.408 101.053 106.667 101.118 L 103.500 101.237 106.500 101.878 "/></g>
<g fill="#00000000" stroke="#00000000">
<path d="M 269.586 64.863 C 265.803 70.857 265.983 72.060 269.846 66.594 C 271.687 63.990 272.957 61.624 272.669 61.335 C 272.380 61.047 270.993 62.635 269.586 64.863 "/></g>
<g fill="#FEFEFEFE" stroke="#FEFEFEFE">
<path d="M 104.000 83.893 C 104.000 84.786 106.351 86.000 108.082 86.000 C 108.587 86.000 109.000 85.325 109.000 84.500 C 109.000 83.567 108.056 83.000 106.500 83.000 C 105.125 83.000 104.000 83.402 104.000 83.893 "/></g>
<g fill="#C2CEDEFE" stroke="#C2CEDEFE">
<path d="M 236.000 63.171 C 236.000 64.137 239.232 64.075 243.500 63.026 C 245.938 62.426 245.517 62.293 241.250 62.315 C 238.363 62.329 236.000 62.714 236.000 63.171 "/></g>
<g fill="#E8ECF8FE" stroke="#E8ECF8FE">
<path d="M 182.701 110.664 C 183.133 111.788 182.958 112.092 182.162 111.600 C 181.303 111.069 181.325 111.612 182.242 113.610 C 183.303 115.918 183.505 116.024 183.532 114.288 C 183.550 113.156 184.168 111.503 184.905 110.615 C 186.066 109.216 185.965 109.000 184.154 109.000 C 182.614 109.000 182.231 109.439 182.701 110.664 "/></g>
<g fill="#E8ECF8FE" stroke="#E8ECF8FE">
<path d="M 101.750 78.586 C 101.338 78.997 101.000 81.808 101.000 84.833 C 101.000 87.858 101.180 90.146 101.400 89.917 C 102.152 89.132 102.501 77.837 101.750 78.586 "/></g>
<g fill="#90ACB0FE" stroke="#90ACB0FE">
<path d="M 168.000 120.000 C 168.000 121.650 168.450 123.000 169.000 123.000 C 169.550 123.000 170.000 121.650 170.000 120.000 C 170.000 118.350 169.550 117.000 169.000 117.000 C 168.450 117.000 168.000 118.350 168.000 120.000 "/></g>
<g fill="#90ACB0FE" stroke="#90ACB0FE">
<path d="M 139.000 120.000 C 139.000 121.650 139.450 123.000 140.000 123.000 C 140.550 123.000 141.000 121.650 141.000 120.000 C 141.000 118.350 140.550 117.000 140.000 117.000 C 139.450 117.000 139.000 118.350 139.000 120.000 "/></g>
<g fill="#90ACB0FE" stroke="#90ACB0FE">
<path d="M 168.000 112.000 C 168.000 113.650 168.450 115.000 169.000 115.000 C 169.550 115.000 170.000 113.650 170.000 112.000 C 170.000 110.350 169.550 109.000 169.000 109.000 C 168.450 109.000 168.000 110.350 168.000 112.000 "/></g>
<g fill="#90ACB0FE" stroke="#90ACB0FE">
<path d="M 164.000 97.000 C 164.000 97.550 165.350 98.000 167.000 98.000 C 168.650 98.000 170.000 97.550 170.000 97.000 C 170.000 96.450 168.650 96.000 167.000 96.000 C 165.350 96.000 164.000 96.450 164.000 97.000 "/></g>
<g fill="#90ACB0FE" stroke="#90ACB0FE">
<path d="M 156.000 97.000 C 156.000 97.550 157.350 98.000 159.000 98.000 C 160.650 98.000 162.000 97.550 162.000 97.000 C 162.000 96.450 160.650 96.000 159.000 96.000 C 157.350 96.000 156.000 96.450 156.000 97.000 "/></g>
<g fill="#90ACB0FE" stroke="#90ACB0FE">
<path d="M 235.408 57.225 C 235.579 58.067 237.422 58.487 240.833 58.462 L 246.000 58.423 241.083 58.212 C 238.379 58.095 235.938 57.539 235.658 56.975 C 235.379 56.411 235.266 56.524 235.408 57.225 "/></g>
<g fill="#FE6C6EFE" stroke="#FE6C6EFE">
<path d="M 103.000 61.000 C 103.000 63.369 103.634 63.509 105.571 61.571 C 107.509 59.634 107.369 59.000 105.000 59.000 C 103.667 59.000 103.000 59.667 103.000 61.000 "/></g>
<g fill="#90ACB0FE" stroke="#90ACB0FE">
<path d="M 164.500 126.000 C 164.139 126.583 165.156 127.000 166.941 127.000 C 168.623 127.000 170.000 126.550 170.000 126.000 C 170.000 125.450 168.902 125.000 167.559 125.000 C 166.216 125.000 164.840 125.450 164.500 126.000 "/></g>
<g fill="#90ACB0FE" stroke="#90ACB0FE">
<path d="M 156.000 126.000 C 156.000 126.550 157.377 127.000 159.059 127.000 C 160.844 127.000 161.861 126.583 161.500 126.000 C 161.160 125.450 159.784 125.000 158.441 125.000 C 157.098 125.000 156.000 125.450 156.000 126.000 "/></g>
<g fill="#90ACB0FE" stroke="#90ACB0FE">
<path d="M 168.750 100.571 C 167.609 101.731 167.855 106.000 169.063 106.000 C 169.653 106.000 169.987 104.621 169.813 102.904 C 169.641 101.202 169.163 100.152 168.750 100.571 "/></g>
<g fill="#90ACB0FE" stroke="#90ACB0FE">
<path d="M 139.000 102.941 C 139.000 104.623 139.450 106.000 140.000 106.000 C 140.550 106.000 141.000 104.902 141.000 103.559 C 141.000 102.216 140.550 100.840 140.000 100.500 C 139.417 100.139 139.000 101.156 139.000 102.941 "/></g>
<g fill="#E8ECF8FE" stroke="#E8ECF8FE">
<path d="M 105.500 107.675 C 109.974 108.664 110.302 108.931 108.990 110.512 C 108.207 111.456 108.144 112.000 108.819 112.000 C 110.598 112.000 111.245 110.000 109.964 108.456 C 109.299 107.655 107.573 107.052 106.128 107.116 C 104.114 107.205 103.967 107.335 105.500 107.675 "/></g>
<g fill="#486468FE" stroke="#486468FE">
<path d="M 64.000 208.000 C 64.000 208.550 65.125 209.000 66.500 209.000 C 67.875 209.000 69.000 208.550 69.000 208.000 C 69.000 207.450 67.875 207.000 66.500 207.000 C 65.125 207.000 64.000 207.450 64.000 208.000 "/></g>
<g fill="#90ACB0FE" stroke="#90ACB0FE">
<path d="M 147.500 126.000 C 147.138 126.585 148.176 127.000 150.000 127.000 C 151.824 127.000 152.862 126.585 152.500 126.000 C 152.160 125.450 151.035 125.000 150.000 125.000 C 148.965 125.000 147.840 125.450 147.500 126.000 "/></g>
<g fill="#90ACB0FE" stroke="#90ACB0FE">
<path d="M 139.500 126.000 C 139.138 126.585 140.176 127.000 142.000 127.000 C 143.824 127.000 144.862 126.585 144.500 126.000 C 144.160 125.450 143.035 125.000 142.000 125.000 C 140.965 125.000 139.840 125.450 139.500 126.000 "/></g>
<g fill="#90ACB0FE" stroke="#90ACB0FE">
<path d="M 148.000 97.000 C 146.862 97.736 147.284 97.973 149.750 97.985 C 151.538 97.993 153.000 97.550 153.000 97.000 C 153.000 95.730 149.965 95.730 148.000 97.000 "/></g>
<g fill="#90ACB0FE" stroke="#90ACB0FE">
<path d="M 139.000 97.000 C 139.000 97.550 140.463 97.993 142.250 97.985 C 144.716 97.973 145.138 97.736 144.000 97.000 C 142.035 95.730 139.000 95.730 139.000 97.000 "/></g>
<g fill="#E8ECF8FE" stroke="#E8ECF8FE">
<path d="M 102.642 128.230 C 102.904 128.654 105.229 128.937 107.809 128.859 L 112.500 128.718 107.333 128.089 C 104.491 127.743 102.380 127.807 102.642 128.230 "/></g>
<g fill="#E8ECF8FE" stroke="#E8ECF8FE">
<path d="M 108.802 95.500 C 109.672 97.143 109.472 97.717 107.681 98.715 C 106.049 99.623 105.910 99.938 107.128 99.965 C 108.023 99.984 109.334 99.302 110.042 98.450 C 111.108 97.165 111.022 96.609 109.535 95.200 C 107.837 93.590 107.799 93.605 108.802 95.500 "/></g>
<g fill="#E8ECF8FE" stroke="#E8ECF8FE">
<path d="M 55.116 65.750 C 55.187 67.442 55.408 67.827 55.689 66.750 C 55.941 65.788 57.126 64.968 58.323 64.930 C 60.427 64.862 60.433 64.831 58.500 64.000 C 55.345 62.644 54.993 62.826 55.116 65.750 "/></g>
<g fill="#FEFEFEFE" stroke="#FEFEFEFE">
<path d="M 182.000 100.000 C 182.000 100.550 182.900 101.000 184.000 101.000 C 185.100 101.000 186.000 100.550 186.000 100.000 C 186.000 99.450 185.100 99.000 184.000 99.000 C 182.900 99.000 182.000 99.450 182.000 100.000 "/></g>
<g fill="#FEFEFEFE" stroke="#FEFEFEFE">
<path d="M 182.000 96.000 C 182.000 96.550 182.900 97.000 184.000 97.000 C 185.100 97.000 186.000 96.550 186.000 96.000 C 186.000 95.450 185.100 95.000 184.000 95.000 C 182.900 95.000 182.000 95.450 182.000 96.000 "/></g>
<g fill="#E8ECF8FE" stroke="#E8ECF8FE">
<path d="M 104.750 94.823 C 102.777 95.188 102.523 96.775 104.081 99.000 C 104.933 100.217 105.029 100.122 104.589 98.500 C 104.291 97.400 104.599 96.050 105.274 95.500 C 106.184 94.758 106.049 94.583 104.750 94.823 "/></g>
<g fill="#00000000" stroke="#00000000">
<path d="M 91.632 191.963 C 92.454 193.612 93.585 195.244 94.146 195.590 C 94.707 195.937 94.456 194.849 93.590 193.173 C 92.723 191.498 91.592 189.866 91.075 189.547 C 90.559 189.227 90.809 190.315 91.632 191.963 "/></g>
<g fill="#FEFEFEFE" stroke="#FEFEFEFE">
<path d="M 188.500 90.000 C 188.840 90.550 189.766 91.000 190.559 91.000 C 191.352 91.000 192.000 90.550 192.000 90.000 C 192.000 89.450 191.073 89.000 189.941 89.000 C 188.809 89.000 188.160 89.450 188.500 90.000 "/></g>
<g fill="#FEFEFEFE" stroke="#FEFEFEFE">
<path d="M 184.500 81.000 C 184.160 81.550 184.809 82.000 185.941 82.000 C 187.073 82.000 188.000 81.550 188.000 81.000 C 188.000 80.450 187.352 80.000 186.559 80.000 C 185.766 80.000 184.840 80.450 184.500 81.000 "/></g>
<g fill="#90ACB0FE" stroke="#90ACB0FE">
<path d="M 139.086 111.809 C 139.039 113.629 139.411 114.864 139.912 114.554 C 140.433 114.232 140.470 112.814 139.998 111.245 L 139.172 108.500 139.086 111.809 "/></g>
<g fill="#E8ECF8FE" stroke="#E8ECF8FE">
<path d="M 197.453 84.924 C 197.767 85.433 197.231 86.055 196.262 86.308 C 194.921 86.658 195.038 86.796 196.750 86.884 C 198.135 86.955 199.000 86.423 199.000 85.500 C 199.000 84.675 198.523 84.000 197.941 84.000 C 197.359 84.000 197.139 84.416 197.453 84.924 "/></g>
<g fill="#00000000" stroke="#00000000">
<path d="M 254.601 29.000 C 255.548 30.925 256.464 32.050 256.638 31.500 C 256.811 30.950 256.036 29.375 254.916 28.000 L 252.880 25.500 254.601 29.000 "/></g>
<g fill="#486468FE" stroke="#486468FE">
<path d="M 228.149 76.604 C 227.406 77.444 226.996 78.330 227.239 78.572 C 227.481 78.814 228.496 78.110 229.494 77.006 C 230.493 75.903 230.903 75.017 230.405 75.038 C 229.907 75.059 228.892 75.764 228.149 76.604 "/></g>
<g fill="#486468FE" stroke="#486468FE">
<path d="M 198.506 77.006 C 199.504 78.110 200.527 78.806 200.780 78.554 C 201.321 78.012 198.471 75.000 197.416 75.000 C 197.017 75.000 197.507 75.903 198.506 77.006 "/></g>
<g fill="#486468FE" stroke="#486468FE">
<path d="M 233.015 69.250 C 233.028 71.069 233.216 71.213 234.000 70.000 C 235.253 68.061 235.253 67.000 234.000 67.000 C 233.450 67.000 233.007 68.013 233.015 69.250 "/></g>
<g fill="#90ACB0FE" stroke="#90ACB0FE">
<path d="M 186.000 123.500 C 186.000 124.325 186.450 125.000 187.000 125.000 C 187.550 125.000 188.000 124.325 188.000 123.500 C 188.000 122.675 187.550 122.000 187.000 122.000 C 186.450 122.000 186.000 122.675 186.000 123.500 "/></g>
<g fill="#90ACB0FE" stroke="#90ACB0FE">
<path d="M 181.543 80.931 C 180.860 82.036 182.437 83.230 183.361 82.306 C 184.311 81.355 184.134 80.000 183.059 80.000 C 182.541 80.000 181.859 80.419 181.543 80.931 "/></g>
<g fill="#C2CEDEFE" stroke="#C2CEDEFE">
<path d="M 155.581 127.131 C 155.876 127.609 157.329 127.954 158.809 127.898 C 161.343 127.801 161.312 127.751 158.272 127.028 C 156.479 126.602 155.282 126.648 155.581 127.131 "/></g>
<g fill="#E8ECF8FE" stroke="#E8ECF8FE">
<path d="M 138.102 120.191 C 138.046 121.671 138.391 123.124 138.869 123.419 C 139.352 123.718 139.398 122.521 138.972 120.728 C 138.249 117.688 138.199 117.657 138.102 120.191 "/></g>
<g fill="#E8ECF8FE" stroke="#E8ECF8FE">
<path d="M 138.750 108.596 C 138.338 109.001 138.055 110.496 138.123 111.917 C 138.227 114.098 138.344 113.983 138.873 111.179 C 139.218 109.353 139.163 108.190 138.750 108.596 "/></g>
<g fill="#00000000" stroke="#00000000">
<path d="M 262.654 42.787 C 263.656 44.595 264.583 45.720 264.714 45.287 C 264.845 44.854 264.026 43.375 262.893 42.000 L 260.833 39.500 262.654 42.787 "/></g>
<g fill="#486468FE" stroke="#486468FE">
<path d="M 223.000 80.000 C 223.000 80.550 223.423 81.000 223.941 81.000 C 224.459 81.000 225.160 80.550 225.500 80.000 C 225.840 79.450 225.416 79.000 224.559 79.000 C 223.702 79.000 223.000 79.450 223.000 80.000 "/></g>
<g fill="#486468FE" stroke="#486468FE">
<path d="M 193.969 69.250 L 194.873 71.500 194.937 69.250 C 194.971 68.013 194.565 67.000 194.032 67.000 C 193.427 67.000 193.404 67.844 193.969 69.250 "/></g>
<g fill="#FEFEFEFE" stroke="#FEFEFEFE">
<path d="M 195.000 85.000 C 195.000 85.550 195.702 86.000 196.559 86.000 C 197.416 86.000 197.840 85.550 197.500 85.000 C 197.160 84.450 196.459 84.000 195.941 84.000 C 195.423 84.000 195.000 84.450 195.000 85.000 "/></g>
<g fill="#90ACB0FE" stroke="#90ACB0FE">
<path d="M 186.000 119.000 C 186.000 119.550 186.423 120.000 186.941 120.000 C 187.459 120.000 188.160 119.550 188.500 119.000 C 188.840 118.450 188.416 118.000 187.559 118.000 C 186.702 118.000 186.000 118.450 186.000 119.000 "/></g>
<g fill="#90ACB0FE" stroke="#90ACB0FE">
<path d="M 199.000 84.941 C 199.000 85.459 199.450 86.160 200.000 86.500 C 200.550 86.840 201.000 86.416 201.000 85.559 C 201.000 84.702 200.550 84.000 200.000 84.000 C 199.450 84.000 199.000 84.423 199.000 84.941 "/></g>
<g fill="#E8ECF8FE" stroke="#E8ECF8FE">
<path d="M 209.000 83.968 C 209.000 84.573 209.844 84.596 211.250 84.031 L 213.500 83.127 211.250 83.063 C 210.013 83.029 209.000 83.435 209.000 83.968 "/></g>
<g fill="#E8ECF8FE" stroke="#E8ECF8FE">
<path d="M 127.969 61.250 L 128.873 63.500 128.937 61.250 C 128.971 60.013 128.565 59.000 128.032 59.000 C 127.427 59.000 127.404 59.844 127.969 61.250 "/></g>
<g fill="#E8ECF8FE" stroke="#E8ECF8FE">
<path d="M 99.000 57.893 C 99.000 58.384 99.652 59.036 100.449 59.342 C 101.418 59.714 101.714 59.418 101.342 58.449 C 100.735 56.867 99.000 56.455 99.000 57.893 "/></g>
<g fill="#00000000" stroke="#00000000">
<path d="M 97.032 200.559 C 97.049 201.076 97.724 202.374 98.532 203.441 C 99.339 204.509 99.986 204.959 99.968 204.441 C 99.951 203.924 99.276 202.626 98.468 201.559 C 97.661 200.491 97.014 200.041 97.032 200.559 "/></g>
<g fill="#90ACB0FE" stroke="#90ACB0FE">
<path d="M 186.000 115.000 C 186.000 115.550 186.450 116.000 187.000 116.000 C 187.550 116.000 188.000 115.550 188.000 115.000 C 188.000 114.450 187.550 114.000 187.000 114.000 C 186.450 114.000 186.000 114.450 186.000 115.000 "/></g>
<g fill="#90ACB0FE" stroke="#90ACB0FE">
<path d="M 212.500 39.089 C 210.810 39.740 210.771 39.870 212.250 39.930 C 213.213 39.968 214.113 39.622 214.250 39.159 C 214.388 38.697 213.600 38.665 212.500 39.089 "/></g>
<g fill="#AAAAAA1E" stroke="#AAAAAA1E">
<path d="M 109.880 85.161 C 109.652 87.087 109.748 87.183 110.425 85.707 C 110.877 84.721 111.002 83.668 110.701 83.368 C 110.401 83.068 110.031 83.875 109.880 85.161 "/></g>
<g fill="#E8ECF8FE" stroke="#E8ECF8FE">
<path d="M 103.152 109.955 C 103.412 110.736 104.264 111.588 105.045 111.848 C 105.938 112.146 105.762 111.619 104.571 110.429 C 103.381 109.238 102.854 109.063 103.152 109.955 "/></g>
<g fill="#E8ECF8FE" stroke="#E8ECF8FE">
<path d="M 99.000 64.000 C 99.000 64.550 99.450 65.000 100.000 65.000 C 100.550 65.000 101.000 64.550 101.000 64.000 C 101.000 63.450 100.550 63.000 100.000 63.000 C 99.450 63.000 99.000 63.450 99.000 64.000 "/></g>
<g fill="#E8ECF8FE" stroke="#E8ECF8FE">
<path d="M 92.667 34.667 C 92.300 35.033 92.000 35.740 92.000 36.238 C 92.000 36.736 92.707 36.436 93.571 35.571 C 94.436 34.707 94.736 34.000 94.238 34.000 C 93.740 34.000 93.033 34.300 92.667 34.667 "/></g>
<g fill="#00000000" stroke="#00000000">
<path d="M 257.752 183.250 C 257.363 184.238 257.517 185.000 258.105 185.000 C 258.678 185.000 258.988 184.213 258.794 183.250 C 258.458 181.583 258.408 181.583 257.752 183.250 "/></g>
<g fill="#00000000" stroke="#00000000">
<path d="M 258.150 35.129 C 259.002 36.626 259.395 36.868 259.215 35.787 C 259.058 34.845 258.450 33.778 257.865 33.417 C 257.279 33.055 257.408 33.825 258.150 35.129 "/></g>
<g fill="#00000000" stroke="#00000000">
<path d="M 251.150 23.129 C 252.002 24.626 252.395 24.868 252.215 23.787 C 252.058 22.845 251.450 21.778 250.865 21.417 C 250.279 21.055 250.408 21.825 251.150 23.129 "/></g>
<g fill="#00000000" stroke="#00000000">
<path d="M 146.150 19.129 C 147.002 20.626 147.395 20.868 147.215 19.787 C 147.058 18.845 146.450 17.778 145.865 17.417 C 145.279 17.055 145.408 17.825 146.150 19.129 "/></g>
<g fill="#0004E6FE" stroke="#0004E6FE">
<path d="M 212.031 61.500 C 212.031 62.050 212.467 63.175 213.000 64.000 C 213.533 64.825 213.969 65.050 213.969 64.500 C 213.969 63.950 213.533 62.825 213.000 62.000 C 212.467 61.175 212.031 60.950 212.031 61.500 "/></g>
<g fill="#6C6CFEFE" stroke="#6C6CFEFE">
<path d="M 222.667 58.667 C 222.300 59.033 222.000 59.740 222.000 60.238 C 222.000 60.736 222.707 60.436 223.571 59.571 C 224.436 58.707 224.736 58.000 224.238 58.000 C 223.740 58.000 223.033 58.300 222.667 58.667 "/></g>
<g fill="#90ACB0FE" stroke="#90ACB0FE">
<path d="M 249.378 178.378 L 248.500 179.256 249.378 178.378 L 250.256 177.500 249.378 178.378 "/></g>
<g fill="#90ACB0FE" stroke="#90ACB0FE">
<path d="M 247.500 63.500 L 249.000 65.000 247.500 63.500 L 246.000 62.000 247.500 63.500 "/></g>
<g fill="#90ACB0FE" stroke="#90ACB0FE">
<path d="M 249.500 60.500 L 251.000 62.000 249.500 60.500 L 248.000 59.000 249.500 60.500 "/></g>
<g fill="#AAAAAA1E" stroke="#AAAAAA1E">
<path d="M 103.695 81.352 C 103.275 82.448 103.413 82.863 104.064 82.460 C 104.637 82.106 104.939 81.318 104.736 80.709 C 104.533 80.100 104.065 80.389 103.695 81.352 "/></g>
<g fill="#AAAAAA1E" stroke="#AAAAAA1E">
<path d="M 252.500 58.500 L 254.000 60.000 252.500 58.500 L 251.000 57.000 252.500 58.500 "/></g>
<g fill="#E8ECF8FE" stroke="#E8ECF8FE">
<path d="M 54.500 175.500 L 56.000 177.000 54.500 175.500 L 53.000 174.000 54.500 175.500 "/></g>
<g fill="#E8ECF8FE" stroke="#E8ECF8FE">
<path d="M 169.000 106.047 C 168.010 106.656 167.925 106.975 168.750 106.985 C 169.438 106.993 170.113 106.578 170.250 106.062 C 170.404 105.485 169.924 105.479 169.000 106.047 "/></g>
<g fill="#E8ECF8FE" stroke="#E8ECF8FE">
<path d="M 197.843 77.613 C 198.446 78.651 198.953 78.964 198.970 78.309 C 198.986 77.654 198.493 76.805 197.874 76.422 C 197.045 75.910 197.037 76.224 197.843 77.613 "/></g>
<g fill="#E8ECF8FE" stroke="#E8ECF8FE">
<path d="M 121.000 63.800 C 121.000 64.460 121.540 65.000 122.200 65.000 C 123.133 65.000 123.133 64.733 122.200 63.800 C 121.267 62.867 121.000 62.867 121.000 63.800 "/></g>
<g fill="#E8ECF8FE" stroke="#E8ECF8FE">
<path d="M 121.000 58.200 C 121.000 59.133 121.267 59.133 122.200 58.200 C 123.133 57.267 123.133 57.000 122.200 57.000 C 121.540 57.000 121.000 57.540 121.000 58.200 "/></g>
<g fill="#E8ECF8FE" stroke="#E8ECF8FE">
<path d="M 116.387 58.157 C 117.776 58.963 118.090 58.955 117.578 58.126 C 117.195 57.507 116.346 57.014 115.691 57.030 C 115.036 57.047 115.349 57.554 116.387 58.157 "/></g>
<g fill="#E8ECF8FE" stroke="#E8ECF8FE">
<path d="M 198.378 45.378 L 197.500 46.256 198.378 45.378 L 199.256 44.500 198.378 45.378 "/></g>
<g fill="#0004E6FE" stroke="#0004E6FE">
<path d="M 203.000 78.200 C 203.000 79.133 203.267 79.133 204.200 78.200 C 205.133 77.267 205.133 77.000 204.200 77.000 C 203.540 77.000 203.000 77.540 203.000 78.200 "/></g>
<g fill="#0004E6FE" stroke="#0004E6FE">
<path d="M 231.000 53.800 C 231.000 54.460 231.540 55.000 232.200 55.000 C 233.133 55.000 233.133 54.733 232.200 53.800 C 231.267 52.867 231.000 52.867 231.000 53.800 "/></g>
<g fill="#0004E6FE" stroke="#0004E6FE">
<path d="M 229.000 49.800 C 229.000 50.460 229.540 51.000 230.200 51.000 C 231.133 51.000 231.133 50.733 230.200 49.800 C 229.267 48.867 229.000 48.867 229.000 49.800 "/></g>
<g fill="#0004E6FE" stroke="#0004E6FE">
<path d="M 199.624 47.799 C 199.212 48.466 199.390 49.000 200.024 49.000 C 200.653 49.000 200.987 48.460 200.766 47.799 C 200.455 46.865 200.202 46.865 199.624 47.799 "/></g>
<g fill="#0000F8FE" stroke="#0000F8FE">
<path d="M 203.000 56.200 C 203.000 57.133 203.267 57.133 204.200 56.200 C 205.133 55.267 205.133 55.000 204.200 55.000 C 203.540 55.000 203.000 55.540 203.000 56.200 "/></g>
</svg>
