<?xml version="1.0" encoding="utf-8"?>
<!DOCTYPE svg PUBLIC "-//W3C//DTD SVG 20010904//EN" "http://www.w3.org/TR/2001/REC-SVG-20010904/DTD/svg10.dtd">
<svg version="1.0" xmlns="http://www.w3.org/2000/svg" width="2502pt" height="2502pt" viewBox="0 0 2502 2502" style="" preserveAspectRatio="xMidYMid meet">
<g fill="#FFFFFFFF" stroke="#FFFFFFFF">
<path d="M 1252.500 332.622 C 1234.711 333.174 1196.864 335.941 1178.000 338.067 C 983.325 360.012 801.154 445.783 659.006 582.423 C 584.580 653.966 525.707 733.367 479.516 824.500 C 464.646 853.837 457.585 869.516 445.513 900.000 C 393.079 1032.405 373.287 1175.534 387.573 1319.000 C 396.406 1407.694 419.691 1498.064 455.211 1581.500 C 463.305 1600.513 483.873 1642.415 494.039 1660.604 C 498.618 1668.797 502.313 1676.175 502.250 1677.000 C 502.187 1677.825 499.159 1689.300 495.521 1702.500 C 491.884 1715.700 484.899 1741.125 480.000 1759.000 C 475.101 1776.875 466.773 1807.250 461.493 1826.500 C 456.213 1845.750 446.541 1881.075 440.000 1905.000 C 433.459 1928.925 421.761 1971.675 414.005 2000.000 C 385.371 2104.571 375.983 2139.316 376.280 2139.614 C 376.448 2139.781 379.266 2139.233 382.543 2138.396 C 391.146 2136.197 514.829 2103.793 699.000 2055.486 C 754.825 2040.844 811.659 2025.950 825.298 2022.389 L 850.096 2015.914 877.798 2029.773 C 983.965 2082.885 1093.791 2113.039 1216.000 2122.632 C 1242.205 2124.688 1311.292 2124.980 1335.500 2123.136 C 1399.440 2118.265 1445.901 2110.909 1500.500 2097.013 C 1623.681 2065.662 1736.721 2009.202 1838.320 1928.282 C 2006.161 1794.604 2121.934 1601.657 2160.405 1391.494 C 2166.242 1359.608 2170.415 1327.351 2173.212 1292.500 C 2174.945 1270.916 2174.938 1186.064 2173.202 1164.000 C 2161.339 1013.243 2117.146 877.547 2039.509 753.500 C 1945.579 603.419 1804.384 480.609 1644.000 409.490 C 1545.448 365.789 1444.193 341.070 1335.000 334.056 C 1317.621 332.940 1269.305 332.100 1252.500 332.622 M 1332.500 484.976 C 1478.227 496.040 1610.910 545.525 1725.500 631.549 C 1868.218 738.688 1968.730 893.609 2006.589 1064.798 C 2024.811 1147.194 2029.132 1231.523 2019.434 1315.500 C 2011.155 1387.193 1991.420 1460.026 1961.990 1527.500 C 1955.171 1543.134 1937.874 1577.709 1929.378 1592.689 C 1894.641 1653.931 1855.122 1705.890 1805.518 1755.535 C 1762.616 1798.473 1718.436 1833.368 1667.661 1864.417 C 1560.641 1929.862 1443.712 1966.050 1316.500 1973.098 C 1293.725 1974.359 1244.138 1973.777 1223.000 1971.999 C 1144.377 1965.388 1075.814 1949.684 1007.000 1922.528 C 966.077 1906.378 935.319 1891.177 892.418 1865.901 L 872.337 1854.069 851.418 1859.576 C 839.913 1862.605 817.000 1868.639 800.500 1872.983 C 784.000 1877.328 755.650 1884.764 737.500 1889.507 C 686.251 1902.899 645.926 1913.497 617.150 1921.137 C 602.657 1924.985 590.638 1927.971 590.440 1927.773 C 590.242 1927.575 594.588 1911.007 600.099 1890.956 C 605.610 1870.905 614.116 1839.875 619.001 1822.000 C 623.887 1804.125 631.724 1775.550 636.418 1758.500 C 641.111 1741.450 649.519 1710.745 655.103 1690.267 L 665.255 1653.035 653.246 1633.767 C 628.750 1594.463 612.244 1563.721 596.726 1528.500 C 545.079 1411.280 524.729 1282.300 537.560 1153.500 C 544.080 1088.044 560.115 1021.285 584.276 959.000 C 651.722 785.133 785.793 639.673 953.500 558.411 C 1044.725 514.208 1139.471 489.706 1241.000 484.060 C 1260.085 482.999 1313.504 483.533 1332.500 484.976 "/></g>
<g fill="#5BF573FF" stroke="#5BF573FF">
<path d="M 569.500 4.104 C 515.762 6.019 456.616 10.197 428.500 14.064 C 401.306 17.804 365.360 26.535 333.593 37.116 C 216.340 76.173 116.616 163.071 59.901 275.609 C 35.986 323.062 16.392 388.707 10.534 441.000 C 8.668 457.656 6.430 484.844 5.019 508.000 C 4.432 517.625 3.441 533.375 2.815 543.000 C 2.012 555.359 1.568 666.262 1.304 920.500 L 0.931 1280.500 32.966 1280.210 C 55.126 1280.010 65.000 1280.248 65.000 1280.985 C 65.000 1281.733 112.403 1282.026 224.633 1281.972 L 384.266 1281.896 383.603 1274.575 C 382.338 1260.615 382.927 1192.186 384.512 1169.000 C 392.656 1049.871 422.348 939.185 474.511 833.500 C 528.628 723.856 602.542 628.526 695.517 548.458 C 810.174 449.719 950.036 380.733 1096.680 350.588 C 1164.440 336.659 1223.494 331.178 1293.500 332.322 C 1339.469 333.073 1366.988 335.178 1408.478 341.117 C 1643.264 374.726 1854.096 500.397 1997.975 692.500 C 2055.443 769.229 2098.315 850.541 2128.517 940.085 C 2161.993 1039.333 2177.568 1140.845 2175.687 1247.500 C 2175.405 1263.450 2174.894 1277.204 2174.551 1278.065 C 2174.208 1278.926 2174.366 1280.726 2174.901 1282.065 C 2175.436 1283.404 2175.902 1283.938 2175.937 1283.250 C 2175.987 1282.255 2209.200 1282.000 2338.500 1282.000 L 2501.000 1282.000 2501.000 935.113 C 2501.000 589.681 2500.828 569.068 2497.469 512.500 C 2493.251 441.476 2489.083 412.060 2477.010 368.131 C 2461.625 312.150 2442.771 270.255 2412.689 225.210 C 2382.080 179.376 2345.094 140.211 2301.466 107.436 C 2249.232 68.196 2194.024 42.160 2126.864 25.094 C 2080.876 13.408 2060.240 11.015 1952.000 4.819 C 1927.696 3.428 607.642 2.745 569.500 4.104 "/></g>
<g fill="#3ACB3EFF" stroke="#3ACB3EFF">
<path d="M 1.309 1816.750 C 1.580 1895.874 2.213 1958.518 2.844 1968.500 C 5.675 2013.283 6.182 2020.710 7.561 2037.500 C 10.786 2076.775 15.027 2102.038 24.017 2135.534 C 43.477 2208.039 73.695 2266.962 120.416 2323.500 C 133.042 2338.779 165.067 2370.866 180.000 2383.199 C 238.659 2431.647 297.855 2461.727 372.500 2481.017 C 407.842 2490.149 421.856 2492.540 460.000 2495.943 C 521.216 2501.405 471.852 2501.109 1264.500 2500.754 C 1943.648 2500.449 1996.883 2500.305 2015.000 2498.719 C 2078.185 2493.190 2088.744 2491.605 2126.500 2481.986 C 2186.696 2466.649 2234.981 2445.229 2283.229 2412.458 C 2361.847 2359.059 2424.064 2281.780 2458.302 2195.000 C 2473.127 2157.424 2486.104 2108.741 2490.422 2074.500 C 2492.217 2060.259 2494.538 2035.310 2496.004 2014.500 C 2499.985 1957.944 2500.251 1946.587 2500.707 1813.750 L 2501.159 1682.000 2292.280 1682.000 C 2131.151 1682.000 2083.126 1682.274 2082.200 1683.200 C 2081.540 1683.860 2081.000 1686.695 2081.000 1689.500 C 2081.000 1692.305 2080.460 1695.140 2079.800 1695.800 C 2078.367 1697.233 2054.588 1697.437 2048.685 1696.067 C 2044.870 1695.181 2044.870 1695.181 2041.723 1700.341 C 2035.040 1711.297 2012.774 1744.143 2002.976 1757.500 C 1974.535 1796.271 1947.738 1827.348 1911.542 1863.538 C 1790.841 1984.218 1638.148 2068.002 1472.500 2104.442 C 1400.413 2120.300 1329.365 2126.895 1252.615 2124.852 C 1119.516 2121.308 984.105 2086.361 867.360 2025.425 C 858.483 2020.791 850.579 2017.000 849.795 2017.000 C 849.012 2017.000 822.750 2023.712 791.435 2031.915 C 653.881 2067.949 400.369 2134.407 388.558 2137.528 C 381.439 2139.410 375.450 2140.784 375.249 2140.582 C 375.047 2140.380 384.107 2106.529 395.383 2065.358 C 406.659 2024.186 429.674 1940.100 446.528 1878.500 C 463.383 1816.900 480.509 1754.377 484.586 1739.561 C 490.825 1716.892 492.000 1711.403 492.000 1704.936 L 492.000 1697.250 488.875 1696.625 C 487.156 1696.281 484.681 1696.000 483.375 1696.000 C 481.101 1696.000 481.000 1695.702 481.000 1689.000 L 481.000 1682.000 240.924 1682.000 L 0.849 1682.000 1.309 1816.750 "/></g>
<g fill="#5BF573FF" stroke="#5BF573FF">
<path d="M 1240.000 484.596 C 1237.525 484.796 1229.200 485.442 1221.500 486.031 C 1044.270 499.597 878.301 576.321 751.935 703.101 C 613.523 841.967 535.311 1028.645 534.744 1221.500 C 534.652 1252.579 534.752 1258.500 535.603 1272.513 L 536.151 1281.525 728.326 1281.563 C 834.021 1281.584 900.700 1281.346 876.500 1281.035 L 832.500 1280.469 880.000 1280.242 C 906.125 1280.118 927.966 1280.350 928.537 1280.758 C 929.107 1281.166 923.131 1272.500 915.257 1261.500 C 871.651 1200.582 845.954 1149.119 832.120 1095.000 C 821.244 1052.458 821.009 1003.389 831.481 962.076 C 842.605 918.192 863.225 882.637 899.000 845.657 C 915.529 828.572 925.856 821.692 942.171 816.897 C 951.227 814.235 974.799 813.409 1003.610 814.743 C 1021.443 815.569 1023.092 815.810 1028.288 818.352 C 1035.053 821.662 1043.492 830.478 1048.545 839.515 C 1050.543 843.086 1059.732 864.344 1068.966 886.754 C 1099.790 961.561 1117.180 1003.390 1122.490 1015.500 C 1129.888 1032.370 1130.295 1033.953 1129.815 1043.978 C 1129.418 1052.290 1129.098 1053.325 1123.287 1065.109 C 1119.926 1071.924 1115.289 1080.401 1112.983 1083.946 C 1107.795 1091.923 1086.109 1118.246 1070.776 1135.181 C 1064.460 1142.155 1058.472 1149.580 1057.469 1151.681 C 1055.070 1156.700 1054.467 1164.609 1055.996 1170.981 C 1058.746 1182.447 1091.583 1231.792 1120.604 1268.069 C 1130.962 1281.017 1132.072 1282.123 1134.670 1282.086 C 1138.750 1282.029 1801.371 1281.918 1904.344 1281.957 L 2015.187 1282.000 2015.762 1284.196 C 2016.307 1286.284 2016.371 1286.296 2017.030 1284.446 C 2017.494 1283.148 2017.977 1284.640 2018.481 1288.927 C 2019.111 1294.282 2018.968 1295.550 2017.619 1296.537 C 2016.411 1297.420 2016.000 1299.391 2016.000 1304.301 C 2016.000 1307.921 2016.450 1311.160 2017.000 1311.500 C 2017.550 1311.840 2018.056 1314.229 2018.125 1316.809 C 2018.198 1319.526 2018.811 1316.451 2019.582 1309.500 C 2020.541 1300.859 2020.648 1295.120 2019.965 1289.000 C 2018.887 1279.341 2018.905 1274.797 2020.000 1280.000 L 2020.737 1283.500 2020.868 1280.191 C 2020.941 1278.371 2021.401 1277.130 2021.890 1277.432 C 2023.296 1278.301 2024.344 1239.098 2023.666 1211.000 C 2020.948 1098.405 1994.992 993.798 1945.007 894.000 C 1884.954 774.100 1789.607 669.394 1674.500 596.939 C 1575.786 534.803 1465.365 497.776 1345.000 486.449 C 1328.683 484.913 1252.674 483.572 1240.000 484.596 "/></g>
<g fill="#52EA65FF" stroke="#52EA65FF">
<path d="M 876.500 1281.036 C 900.700 1281.347 834.245 1281.584 728.822 1281.562 C 623.400 1281.540 536.952 1281.742 536.717 1282.011 C 535.484 1283.421 540.603 1327.253 545.124 1354.000 C 561.666 1451.859 596.554 1542.088 652.092 1630.645 L 665.980 1652.790 658.456 1680.145 C 654.317 1695.190 650.835 1708.246 650.716 1709.157 C 650.597 1710.068 651.837 1708.268 653.472 1705.157 C 655.106 1702.046 657.131 1698.952 657.972 1698.282 C 658.896 1697.545 662.878 1697.051 668.050 1697.032 C 673.326 1697.012 677.059 1696.541 677.800 1695.800 C 678.460 1695.140 679.000 1692.080 679.000 1689.000 C 679.000 1685.920 679.540 1682.860 680.200 1682.200 C 681.131 1681.269 813.467 1681.000 1269.700 1681.000 L 1858.000 1681.000 1858.036 1688.750 L 1858.072 1696.500 1860.573 1693.500 C 1872.822 1678.808 1901.726 1638.016 1905.646 1629.889 C 1906.943 1627.200 1908.383 1625.000 1908.845 1625.000 C 1909.307 1625.000 1910.543 1623.319 1911.593 1621.265 C 1912.642 1619.211 1914.021 1616.970 1914.658 1616.286 C 1915.952 1614.895 1932.227 1586.739 1935.344 1580.500 C 1936.443 1578.300 1937.713 1575.825 1938.166 1575.000 C 1961.789 1532.023 1986.173 1469.240 1999.918 1416.000 C 2011.758 1370.141 2020.945 1313.938 2017.000 1311.500 C 2016.450 1311.160 2016.000 1307.921 2016.000 1304.301 C 2016.000 1299.391 2016.411 1297.420 2017.619 1296.537 C 2018.968 1295.550 2019.111 1294.282 2018.481 1288.927 C 2017.977 1284.640 2017.494 1283.148 2017.030 1284.446 C 2016.371 1286.296 2016.307 1286.284 2015.762 1284.196 L 2015.187 1282.000 1904.344 1281.957 C 1608.413 1281.843 1137.232 1282.020 1135.091 1282.246 C 1132.916 1282.475 1133.646 1283.571 1142.583 1293.500 C 1190.539 1346.778 1251.658 1393.162 1314.500 1423.969 C 1336.103 1434.559 1373.927 1451.398 1379.500 1452.906 C 1381.700 1453.502 1386.200 1453.987 1389.500 1453.985 C 1397.773 1453.979 1403.989 1450.872 1411.673 1442.902 C 1424.874 1429.209 1467.269 1377.508 1480.472 1359.000 C 1492.692 1341.871 1497.707 1338.040 1508.963 1337.235 C 1521.000 1336.374 1533.881 1341.058 1580.500 1363.251 C 1592.050 1368.749 1602.400 1373.380 1603.500 1373.541 C 1604.600 1373.702 1605.066 1373.871 1604.536 1373.917 C 1604.006 1373.963 1619.081 1381.590 1638.036 1390.867 C 1727.707 1434.754 1726.078 1433.865 1730.466 1441.352 C 1738.486 1455.037 1733.979 1500.423 1720.519 1541.511 C 1714.070 1561.200 1706.939 1572.009 1688.822 1589.559 C 1667.390 1610.321 1641.546 1627.436 1611.500 1640.764 C 1606.000 1643.204 1601.213 1645.663 1600.862 1646.228 C 1600.511 1646.794 1599.654 1646.904 1598.957 1646.474 C 1598.103 1645.946 1597.940 1646.093 1598.455 1646.927 C 1598.972 1647.764 1598.619 1648.072 1597.359 1647.880 C 1596.337 1647.725 1591.675 1648.800 1587.000 1650.270 C 1574.940 1654.062 1566.799 1655.602 1548.149 1657.615 C 1537.497 1658.766 1532.530 1659.652 1533.899 1660.158 C 1537.164 1661.366 1536.389 1662.682 1532.000 1663.384 C 1529.800 1663.736 1528.000 1664.468 1528.000 1665.012 C 1528.000 1665.555 1526.988 1665.964 1525.750 1665.921 C 1524.239 1665.868 1523.989 1665.650 1524.991 1665.257 C 1526.005 1664.860 1525.364 1664.269 1522.991 1663.412 L 1519.500 1662.152 1524.000 1661.958 C 1526.475 1661.851 1528.838 1661.816 1529.250 1661.882 C 1529.663 1661.947 1530.000 1661.550 1530.000 1661.000 C 1530.000 1660.450 1528.988 1660.003 1527.750 1660.006 C 1518.996 1660.030 1485.747 1658.893 1482.500 1658.458 C 1452.732 1654.474 1440.415 1651.484 1404.500 1639.522 C 1286.757 1600.306 1218.743 1565.424 1139.556 1503.643 C 1083.335 1459.779 1024.487 1401.742 976.579 1342.911 C 970.572 1335.535 963.988 1327.700 961.948 1325.500 C 959.909 1323.300 958.073 1321.039 957.870 1320.475 C 957.666 1319.911 950.818 1310.573 942.652 1299.725 L 927.804 1280.000 880.152 1280.234 L 832.500 1280.469 876.500 1281.036 "/></g>
<g fill="#3ACB3EFF" stroke="#3ACB3EFF">
<path d="M 680.200 1682.200 C 679.540 1682.860 679.000 1685.920 679.000 1689.000 C 679.000 1692.080 678.460 1695.140 677.800 1695.800 C 677.059 1696.541 673.326 1697.012 668.050 1697.032 C 662.871 1697.051 658.903 1697.544 657.985 1698.282 C 657.152 1698.952 654.980 1702.326 653.160 1705.781 C 650.085 1711.616 646.821 1722.494 635.991 1763.000 C 633.859 1770.975 622.900 1811.024 611.638 1851.998 C 600.376 1892.971 591.274 1926.608 591.411 1926.745 C 591.626 1926.959 698.818 1898.985 833.488 1863.568 L 872.476 1853.315 879.988 1857.777 C 904.548 1872.364 917.908 1880.008 930.125 1886.462 C 1017.977 1932.870 1109.500 1960.247 1209.573 1970.054 C 1236.792 1972.721 1292.382 1973.734 1321.000 1972.085 C 1496.362 1961.976 1659.372 1891.987 1788.435 1771.390 C 1806.760 1754.268 1830.317 1729.476 1846.677 1710.097 L 1858.000 1696.685 1858.000 1688.843 L 1858.000 1681.000 1269.700 1681.000 C 813.467 1681.000 681.131 1681.269 680.200 1682.200 "/></g>
<g fill="#FFFFFFFF" stroke="#FFFFFFFF">
<path d="M 944.000 817.063 C 933.378 819.828 921.727 825.702 913.000 832.691 C 904.967 839.125 886.072 859.413 875.925 872.500 C 842.924 915.063 826.360 962.279 824.357 1019.500 C 822.972 1059.085 830.250 1097.018 847.649 1140.898 C 867.140 1190.052 891.425 1230.168 944.871 1301.500 C 1009.370 1387.581 1087.907 1466.323 1164.500 1521.700 C 1232.196 1570.645 1295.304 1601.988 1392.585 1634.979 C 1435.689 1649.597 1450.784 1653.555 1475.000 1656.589 C 1511.402 1661.150 1559.545 1658.249 1585.599 1649.926 C 1623.383 1637.855 1664.344 1613.583 1690.078 1588.016 C 1705.911 1572.285 1713.861 1559.472 1720.436 1539.088 C 1730.465 1507.996 1735.629 1473.618 1733.216 1454.019 C 1731.831 1442.766 1729.653 1438.955 1721.524 1433.560 C 1713.142 1427.996 1570.307 1358.377 1544.834 1347.439 C 1530.871 1341.444 1518.578 1337.998 1511.238 1338.022 C 1499.703 1338.060 1493.088 1342.394 1483.245 1356.363 C 1471.881 1372.491 1454.976 1393.557 1425.358 1428.500 C 1397.381 1461.507 1395.458 1461.781 1346.500 1439.747 C 1286.368 1412.683 1245.088 1387.329 1199.817 1349.655 C 1150.984 1309.016 1105.404 1255.261 1067.229 1193.287 C 1049.520 1164.537 1049.737 1156.997 1068.864 1136.644 C 1077.904 1127.026 1102.061 1098.356 1109.735 1088.139 C 1115.435 1080.550 1126.569 1058.753 1128.467 1051.467 C 1131.521 1039.740 1130.488 1035.223 1118.161 1006.419 C 1113.237 994.914 1097.454 956.925 1083.086 922.000 C 1052.372 847.338 1050.445 842.943 1044.498 833.997 C 1036.444 821.882 1029.600 817.441 1016.691 815.957 C 1012.186 815.439 995.675 815.037 980.000 815.063 C 955.058 815.104 950.564 815.354 944.000 817.063 "/></g>
<g fill="#52EA65FF" stroke="#52EA65FF">
<path d="M 2.250 1280.662 C 1.256 1281.063 1.000 1322.186 1.000 1481.583 L 1.000 1682.000 241.000 1682.000 L 481.000 1682.000 481.000 1689.000 C 481.000 1695.702 481.101 1696.000 483.375 1696.000 C 484.681 1696.000 487.156 1696.281 488.875 1696.625 L 492.000 1697.250 492.071 1704.375 L 492.142 1711.500 494.046 1705.000 C 495.093 1701.425 497.325 1693.460 499.006 1687.299 L 502.063 1676.098 495.371 1664.310 C 469.729 1619.143 443.233 1558.527 426.174 1506.000 C 403.673 1436.721 389.811 1365.433 384.415 1291.250 L 383.742 1282.000 380.121 1281.973 C 378.129 1281.958 306.413 1281.970 220.750 1281.999 C 114.845 1282.036 65.000 1281.725 65.000 1281.027 C 65.000 1279.980 4.807 1279.630 2.250 1280.662 "/></g>
<g fill="#52EA65FF" stroke="#52EA65FF">
<path d="M 2173.673 1292.042 C 2171.616 1328.034 2166.382 1367.237 2158.525 1405.500 C 2145.176 1470.504 2126.415 1529.773 2101.073 1587.000 C 2096.568 1597.175 2092.766 1605.950 2092.625 1606.500 C 2091.439 1611.132 2061.464 1667.559 2051.183 1684.513 C 2047.184 1691.108 2045.462 1694.840 2046.114 1695.500 C 2047.647 1697.055 2077.703 1697.491 2079.518 1695.985 C 2080.478 1695.188 2081.000 1692.931 2081.000 1689.578 C 2081.000 1686.730 2081.540 1683.860 2082.200 1683.200 C 2083.126 1682.274 2131.133 1682.000 2292.200 1682.000 L 2501.000 1682.000 2501.000 1482.000 L 2501.000 1282.000 2338.500 1282.000 C 2209.204 1282.000 2175.986 1282.255 2175.930 1283.250 C 2175.891 1283.938 2175.515 1283.619 2175.094 1282.542 C 2174.627 1281.350 2174.072 1285.062 2173.673 1292.042 "/></g>
<g fill="#000000FF" stroke="#000000FF">
<path d="M 1.154 292.750 C 1.238 453.213 1.655 575.725 2.079 565.000 C 4.886 494.004 9.988 434.736 15.635 407.500 C 23.011 371.933 36.156 328.629 47.903 301.206 C 92.939 196.069 175.908 109.321 279.500 59.058 C 322.269 38.306 380.294 20.746 428.000 14.115 C 458.413 9.889 516.822 5.940 578.000 3.976 C 627.806 2.377 1923.210 3.172 1952.000 4.820 C 2057.001 10.828 2080.376 13.424 2121.500 23.641 C 2193.503 41.531 2247.571 66.821 2302.836 108.463 C 2380.385 166.894 2438.856 248.507 2468.654 339.906 C 2489.653 404.315 2494.798 442.006 2500.338 572.000 C 2500.490 575.575 2500.701 448.563 2500.807 289.750 L 2501.000 1.000 1251.000 1.000 L 1.000 1.000 1.154 292.750 "/></g>
<g fill="#000000FF" stroke="#000000FF">
<path d="M 2499.729 1944.673 C 2497.671 2003.902 2492.594 2065.441 2487.446 2093.576 C 2481.796 2124.449 2468.907 2168.985 2457.125 2198.339 C 2426.322 2275.084 2369.219 2348.947 2301.500 2399.640 C 2242.671 2443.679 2180.684 2470.956 2099.713 2488.437 C 2079.724 2492.752 2048.013 2496.335 2006.500 2498.967 C 1997.150 2499.560 1987.700 2500.185 1985.500 2500.355 C 1983.300 2500.525 2098.388 2500.739 2241.252 2500.832 L 2501.003 2501.000 2500.752 2211.750 C 2500.613 2052.342 2500.154 1932.453 2499.729 1944.673 "/></g>
<g fill="#000000FF" stroke="#000000FF">
<path d="M 1.152 2214.750 L 1.000 2501.000 262.250 2500.867 C 489.921 2500.751 520.929 2500.563 503.500 2499.403 C 456.623 2496.284 422.188 2492.518 403.156 2488.431 C 312.821 2469.028 248.365 2438.884 182.000 2385.004 C 164.718 2370.973 129.641 2335.321 114.600 2316.500 C 94.074 2290.815 72.886 2257.790 58.572 2229.173 C 36.637 2185.320 17.138 2120.777 11.088 2072.000 C 7.526 2043.284 4.045 1995.227 2.105 1948.000 C 1.652 1936.985 1.238 2053.062 1.152 2214.750 "/></g>
</svg>
