<?xml version="1.0" encoding="utf-8"?>
<!DOCTYPE svg PUBLIC "-//W3C//DTD SVG 20010904//EN" "http://www.w3.org/TR/2001/REC-SVG-20010904/DTD/svg10.dtd">
<svg version="1.0" xmlns="http://www.w3.org/2000/svg" width="318pt" height="229pt" viewBox="0 0 318 229" style="" preserveAspectRatio="xMidYMid meet">
<g fill="#416573FF" stroke="#416573FF">
<path d="M 90.923 32.923 C 88.175 35.671 88.000 36.329 88.000 43.923 L 88.000 52.000 69.950 52.000 C 49.866 52.000 47.442 52.588 43.960 58.299 C 42.082 61.378 42.007 63.743 42.007 120.500 C 42.007 177.257 42.082 179.622 43.960 182.701 C 47.792 188.987 47.886 189.000 90.450 189.000 L 129.000 189.000 129.000 193.000 L 129.000 197.000 122.571 197.000 C 115.245 197.000 113.000 198.424 113.000 203.071 L 113.000 206.000 100.500 206.000 C 88.667 206.000 88.000 206.107 88.000 208.000 C 88.000 209.981 88.667 210.000 158.000 210.000 C 227.333 210.000 228.000 209.981 228.000 208.000 C 228.000 206.072 227.333 206.000 209.500 206.000 L 191.000 206.000 191.000 203.155 C 191.000 198.700 188.286 197.000 181.171 197.000 L 175.000 197.000 175.000 193.000 L 175.000 189.000 213.896 189.000 L 252.793 189.000 255.847 185.521 C 257.527 183.608 259.170 180.571 259.499 178.771 C 259.827 176.972 259.962 149.770 259.798 118.322 C 259.506 62.305 259.458 61.088 257.429 58.322 C 254.139 53.840 249.463 52.003 241.332 52.002 C 234.215 52.000 234.147 51.975 231.995 48.491 C 229.806 44.951 222.664 40.000 219.745 40.000 C 218.876 40.000 217.340 38.316 216.332 36.258 C 215.325 34.200 213.375 31.956 212.000 31.273 C 210.095 30.325 195.733 30.026 151.673 30.015 L 93.846 30.000 90.923 32.923 M 193.283 54.750 C 190.622 64.445 194.515 74.967 202.570 79.852 L 206.937 82.500 206.968 119.750 L 207.000 157.000 152.500 157.000 L 98.000 157.000 98.000 104.500 L 98.000 52.000 146.019 52.000 L 194.038 52.000 193.283 54.750 M 88.375 64.125 C 88.719 65.844 89.000 87.904 89.000 113.148 L 89.000 159.045 70.750 158.773 L 52.500 158.500 52.240 112.215 L 51.980 65.929 54.445 63.465 C 56.851 61.058 57.274 61.000 72.330 61.000 L 87.750 61.000 88.375 64.125 M 247.467 62.972 C 248.805 64.083 249.000 70.276 249.000 111.647 L 249.000 159.050 232.750 158.775 L 216.500 158.500 215.975 131.500 L 215.451 104.500 215.225 130.750 L 215.000 157.000 212.000 157.000 L 209.000 157.000 209.000 120.000 L 209.000 83.000 214.343 83.000 C 224.487 83.000 233.804 75.039 235.516 64.908 L 236.215 60.766 241.074 61.233 C 243.747 61.490 246.624 62.273 247.467 62.972 M 249.000 163.875 C 249.000 165.456 249.275 168.126 249.612 169.809 C 250.099 172.246 249.702 173.389 247.657 175.434 L 245.091 178.000 151.000 178.000 L 56.909 178.000 54.455 175.545 C 52.390 173.481 52.000 172.131 52.000 167.045 L 52.000 161.000 150.500 161.000 L 249.000 161.000 249.000 163.875 M 88.000 57.000 C 88.000 58.922 87.333 59.000 71.000 59.000 C 55.333 59.000 53.843 59.157 52.000 61.000 C 50.047 62.953 50.000 64.333 50.000 119.500 C 50.000 174.667 50.047 176.047 52.000 178.000 C 53.972 179.972 55.333 180.000 150.686 180.000 L 247.371 180.000 249.686 177.826 L 252.000 175.651 252.000 119.500 L 252.000 63.349 249.746 61.232 C 248.078 59.664 245.937 59.035 241.496 58.807 C 236.970 58.575 235.500 58.132 235.500 57.000 C 235.500 55.805 236.970 55.500 242.732 55.500 C 249.566 55.500 250.143 55.680 253.232 58.769 L 256.500 62.038 256.500 120.500 L 256.500 178.962 253.231 182.231 L 249.962 185.500 150.404 185.500 L 50.846 185.500 47.423 181.765 L 44.000 178.029 44.000 121.416 C 44.000 72.027 44.200 64.380 45.571 61.492 C 48.258 55.830 51.300 55.048 70.750 55.023 C 87.341 55.001 88.000 55.076 88.000 57.000 M 212.077 34.923 C 215.838 38.684 215.770 40.000 211.816 40.000 C 207.583 40.000 200.635 43.456 197.588 47.078 L 195.129 50.000 145.565 50.000 L 96.000 50.000 96.000 103.500 L 96.000 157.000 93.000 157.000 L 90.000 157.000 90.000 97.723 C 90.000 33.471 89.856 35.212 95.357 32.992 C 96.536 32.516 122.622 32.098 153.327 32.063 L 209.154 32.000 212.077 34.923 M 223.000 43.529 C 226.236 45.202 230.346 49.656 232.386 53.700 C 237.275 63.393 230.304 77.878 219.277 80.940 C 214.274 82.329 213.038 82.277 207.890 80.461 C 196.565 76.465 190.781 63.229 195.941 53.115 C 198.320 48.453 204.091 43.237 207.768 42.427 C 209.271 42.096 210.950 41.665 211.500 41.469 C 213.175 40.872 220.346 42.157 223.000 43.529 M 187.455 201.859 C 187.780 202.882 187.760 204.462 187.411 205.372 C 186.835 206.874 183.513 207.001 151.152 206.763 C 117.697 206.516 115.506 206.390 115.179 204.692 C 114.261 199.921 113.652 200.000 151.401 200.000 C 185.091 200.000 186.895 200.093 187.455 201.859 M 171.394 192.061 C 171.751 194.294 171.782 196.544 171.463 197.061 C 171.132 197.596 162.298 198.000 150.941 198.000 L 131.000 198.000 131.000 193.667 C 131.000 191.283 131.300 189.033 131.667 188.667 C 132.033 188.300 140.976 188.000 151.539 188.000 L 170.744 188.000 171.394 192.061 "/></g>
<g fill="#000000FF" stroke="#000000FF">
<path d="M 1.000 114.500 L 1.000 228.000 57.083 228.000 C 89.975 228.000 113.029 227.627 112.833 227.098 C 112.650 226.602 110.475 222.560 108.000 218.114 L 103.500 210.032 95.750 210.016 C 88.733 210.002 88.000 209.815 88.000 208.046 C 88.000 206.341 88.817 206.054 94.400 205.796 L 100.801 205.500 96.068 197.500 L 91.335 189.500 70.918 189.000 C 48.719 188.456 47.260 188.115 43.950 182.686 C 42.085 179.627 42.007 177.159 42.004 120.700 C 42.000 55.811 41.801 57.922 48.299 53.960 C 51.164 52.212 53.413 52.007 69.750 52.004 L 88.000 52.000 88.000 44.056 C 88.000 37.104 88.301 35.761 90.410 33.306 C 92.675 30.668 93.406 30.470 102.639 30.000 L 112.459 29.500 116.960 21.750 L 121.461 14.000 132.481 14.024 L 143.500 14.047 148.000 22.022 L 152.500 29.996 161.000 29.981 L 169.500 29.966 175.824 18.983 L 182.147 8.000 212.353 8.000 L 242.558 8.000 257.029 33.143 C 264.988 46.972 271.627 58.803 271.783 59.435 C 271.939 60.066 269.351 65.282 266.033 71.025 L 260.000 81.468 260.000 129.669 C 260.000 161.294 259.634 178.838 258.936 180.685 C 258.351 182.233 256.692 184.738 255.249 186.250 L 252.626 189.000 225.063 189.012 L 197.500 189.024 194.250 194.941 C 192.463 198.196 191.000 202.015 191.000 203.429 L 191.000 206.000 209.500 206.000 C 227.333 206.000 228.000 206.072 228.000 208.000 C 228.000 209.937 227.327 210.001 206.750 210.019 L 185.500 210.038 180.327 219.019 L 175.155 228.000 246.077 228.000 L 317.000 228.000 317.000 114.500 L 317.000 1.000 159.000 1.000 L 1.000 1.000 1.000 114.500 M 279.500 208.000 C 279.500 209.280 276.241 209.539 257.250 209.769 C 235.439 210.033 235.000 209.998 235.000 208.000 C 235.000 206.002 235.439 205.967 257.250 206.231 C 276.241 206.461 279.500 206.720 279.500 208.000 M 58.500 208.000 C 58.500 209.280 55.241 209.539 36.250 209.769 C 14.439 210.033 14.000 209.998 14.000 208.000 C 14.000 206.002 14.439 205.967 36.250 206.231 C 55.241 206.461 58.500 206.720 58.500 208.000 M 303.171 151.655 C 305.450 153.717 305.542 158.744 303.345 161.171 C 301.283 163.450 296.256 163.542 293.829 161.345 C 291.550 159.283 291.458 154.256 293.655 151.829 C 295.717 149.550 300.744 149.458 303.171 151.655 M 84.000 208.000 C 84.000 209.778 83.333 210.000 78.000 210.000 C 72.667 210.000 72.000 209.778 72.000 208.000 C 72.000 206.222 72.667 206.000 78.000 206.000 C 83.333 206.000 84.000 206.222 84.000 208.000 M 292.926 166.862 C 294.238 169.313 291.990 172.594 289.622 171.685 C 287.317 170.801 286.532 168.269 288.011 166.487 C 289.691 164.463 291.725 164.618 292.926 166.862 M 70.000 208.000 C 70.000 209.547 69.333 210.000 67.059 210.000 C 65.441 210.000 63.840 209.550 63.500 209.000 C 62.447 207.296 63.985 206.000 67.059 206.000 C 69.333 206.000 70.000 206.453 70.000 208.000 "/></g>
<g fill="#FFFFFFFF" stroke="#FFFFFFFF">
<path d="M 99.000 104.000 L 99.000 156.000 153.000 156.000 L 207.000 156.000 207.000 119.108 L 207.000 82.217 204.750 81.603 C 200.086 80.330 192.000 70.457 192.000 66.035 C 192.000 64.082 191.267 64.024 163.250 63.765 C 135.255 63.507 134.500 63.447 134.500 61.500 C 134.500 59.559 135.333 59.485 162.667 59.000 C 178.159 58.725 191.060 58.274 191.336 57.998 C 191.612 57.722 192.148 56.259 192.527 54.748 L 193.217 52.000 146.108 52.000 L 99.000 52.000 99.000 104.000 M 127.303 105.903 C 128.952 107.552 128.825 117.301 127.128 119.346 C 126.055 120.638 123.964 121.000 117.569 121.000 C 106.689 121.000 105.805 120.302 106.196 112.016 C 106.474 106.140 106.717 105.518 109.000 104.832 C 112.660 103.733 125.909 104.509 127.303 105.903 M 199.303 105.903 C 199.961 106.561 200.500 109.589 200.500 112.631 C 200.500 119.947 199.053 121.000 189.000 121.000 C 178.749 121.000 177.809 120.219 178.196 112.016 C 178.474 106.140 178.717 105.518 181.000 104.832 C 184.660 103.733 197.909 104.509 199.303 105.903 M 163.268 105.868 C 163.906 106.506 164.429 109.545 164.429 112.621 C 164.429 119.983 163.042 121.000 153.000 121.000 C 142.749 121.000 141.809 120.219 142.196 112.016 C 142.474 106.140 142.717 105.518 145.000 104.832 C 148.613 103.747 161.901 104.501 163.268 105.868 M 188.500 89.500 C 188.500 91.457 187.746 91.506 153.563 91.763 C 132.558 91.921 118.249 91.649 117.680 91.080 C 117.160 90.560 117.007 89.423 117.341 88.554 C 117.880 87.149 121.839 87.003 153.224 87.237 C 187.746 87.494 188.500 87.543 188.500 89.500 M 127.691 59.636 C 128.518 61.792 126.741 64.500 124.500 64.500 C 123.520 64.500 122.260 63.774 121.700 62.886 C 120.172 60.464 121.584 58.000 124.500 58.000 C 125.950 58.000 127.335 58.710 127.691 59.636 M 117.691 59.636 C 118.518 61.792 116.741 64.500 114.500 64.500 C 113.520 64.500 112.260 63.774 111.700 62.886 C 110.172 60.464 111.584 58.000 114.500 58.000 C 115.950 58.000 117.335 58.710 117.691 59.636 M 107.691 59.636 C 108.518 61.792 106.741 64.500 104.500 64.500 C 103.520 64.500 102.260 63.774 101.700 62.886 C 100.172 60.464 101.584 58.000 104.500 58.000 C 105.950 58.000 107.335 58.710 107.691 59.636 M 199.000 135.000 C 199.000 135.600 195.000 136.000 189.000 136.000 C 183.000 136.000 179.000 135.600 179.000 135.000 C 179.000 134.400 183.000 134.000 189.000 134.000 C 195.000 134.000 199.000 134.400 199.000 135.000 M 163.000 135.000 C 163.000 135.600 159.000 136.000 153.000 136.000 C 147.000 136.000 143.000 135.600 143.000 135.000 C 143.000 134.400 147.000 134.000 153.000 134.000 C 159.000 134.000 163.000 134.400 163.000 135.000 M 127.000 135.000 C 127.000 135.600 123.000 136.000 117.000 136.000 C 111.000 136.000 107.000 135.600 107.000 135.000 C 107.000 134.400 111.000 134.000 117.000 134.000 C 123.000 134.000 127.000 134.400 127.000 135.000 M 199.000 127.000 C 199.000 127.600 195.000 128.000 189.000 128.000 C 183.000 128.000 179.000 127.600 179.000 127.000 C 179.000 126.400 183.000 126.000 189.000 126.000 C 195.000 126.000 199.000 126.400 199.000 127.000 M 127.000 127.000 C 127.000 127.600 123.000 128.000 117.000 128.000 C 111.000 128.000 107.000 127.600 107.000 127.000 C 107.000 126.400 111.000 126.000 117.000 126.000 C 123.000 126.000 127.000 126.400 127.000 127.000 M 162.000 127.000 C 163.023 127.661 160.237 127.974 153.250 127.985 C 147.073 127.994 143.000 127.603 143.000 127.000 C 143.000 125.702 159.991 125.702 162.000 127.000 "/></g>
<g fill="#FFFFFFFF" stroke="#FFFFFFFF">
<path d="M 55.607 66.582 C 55.273 67.452 55.000 88.377 55.000 113.082 L 55.000 158.000 71.500 158.000 L 88.000 158.000 88.000 111.500 L 88.000 65.000 72.107 65.000 C 58.537 65.000 56.125 65.231 55.607 66.582 "/></g>
<g fill="#FFFFFFFF" stroke="#FFFFFFFF">
<path d="M 234.621 69.204 C 233.689 71.828 231.346 75.510 229.414 77.387 C 226.241 80.468 224.160 81.636 218.750 83.375 C 217.362 83.821 217.000 85.082 217.000 89.469 C 217.000 93.719 216.653 95.000 215.500 95.000 C 214.348 95.000 214.000 93.722 214.000 89.500 C 214.000 84.667 213.758 84.000 212.000 84.000 C 210.037 84.000 210.000 84.667 210.000 120.000 C 210.000 155.333 210.037 156.000 212.000 156.000 C 213.948 156.000 214.000 155.333 214.000 130.500 C 214.000 108.500 214.206 105.000 215.500 105.000 C 216.796 105.000 217.000 108.611 217.000 131.500 L 217.000 158.000 232.000 158.000 L 247.000 158.000 247.000 112.059 C 247.000 79.974 246.671 65.915 245.910 65.444 C 245.310 65.074 242.906 64.694 240.568 64.601 C 236.352 64.434 236.302 64.473 234.621 69.204 M 217.000 99.500 C 217.000 101.056 216.433 102.000 215.500 102.000 C 214.567 102.000 214.000 101.056 214.000 99.500 C 214.000 97.944 214.567 97.000 215.500 97.000 C 216.433 97.000 217.000 97.944 217.000 99.500 "/></g>
<g fill="#AAAAAAFF" stroke="#AAAAAAFF">
<path d="M 176.092 18.422 C 172.741 24.155 170.000 29.105 170.000 29.422 C 170.000 29.740 179.260 30.000 190.577 30.000 L 211.154 30.000 214.077 32.923 C 215.685 34.531 217.000 36.450 217.000 37.187 C 217.000 37.924 219.667 39.706 222.926 41.147 C 227.190 43.031 229.645 44.911 231.676 47.845 L 234.500 51.924 241.849 51.962 C 255.999 52.035 259.939 56.495 259.978 72.484 L 260.000 81.468 266.033 71.025 C 269.351 65.282 271.939 60.066 271.783 59.435 C 271.627 58.803 264.988 46.972 257.029 33.143 L 242.558 8.000 212.371 8.000 L 182.184 8.000 176.092 18.422 "/></g>
<g fill="#FFFFFFFF" stroke="#FFFFFFFF">
<path d="M 53.000 168.929 C 53.000 177.743 43.989 177.000 150.916 177.000 C 258.396 177.000 249.000 177.798 249.000 168.671 L 249.000 164.000 151.000 164.000 L 53.000 164.000 53.000 168.929 "/></g>
<g fill="#FFFFFFFF" stroke="#FFFFFFFF">
<path d="M 93.174 35.314 L 91.000 37.629 91.000 96.814 C 91.000 155.247 91.025 156.000 92.991 156.000 C 94.951 156.000 94.987 155.169 95.241 102.750 L 95.500 49.500 145.309 49.241 L 195.118 48.981 198.708 45.495 C 200.930 43.337 204.434 41.359 207.899 40.306 C 214.718 38.233 214.162 38.586 213.469 36.779 C 212.091 33.190 208.982 33.000 151.627 33.000 L 95.349 33.000 93.174 35.314 "/></g>
<g fill="#FFFFFFFF" stroke="#FFFFFFFF">
<path d="M 50.110 57.396 C 45.013 60.220 45.073 59.476 45.035 120.203 C 45.009 162.101 45.312 177.590 46.195 179.528 C 48.792 185.227 44.432 185.000 151.050 185.000 L 249.200 185.000 252.600 181.600 L 256.000 178.200 256.000 120.500 L 256.000 62.800 252.600 59.400 C 249.420 56.220 248.773 56.000 242.600 56.000 C 238.867 56.000 236.000 56.434 236.000 57.000 C 236.000 57.550 238.510 58.000 241.577 58.000 C 246.408 58.000 247.545 58.391 250.077 60.923 L 253.000 63.846 253.000 119.500 L 253.000 175.154 250.077 178.077 L 247.154 181.000 151.000 181.000 L 54.846 181.000 51.923 178.077 L 49.000 175.154 49.000 119.500 L 49.000 63.846 51.923 60.923 L 54.846 58.000 71.423 58.000 C 81.808 58.000 88.000 57.626 88.000 57.000 C 88.000 55.396 53.059 55.761 50.110 57.396 "/></g>
<g fill="#AAAAAAFF" stroke="#AAAAAAFF">
<path d="M 104.000 210.616 C 104.000 210.954 106.138 215.006 108.750 219.620 L 113.500 228.009 144.457 227.755 L 175.414 227.500 180.171 219.500 C 182.787 215.100 184.944 211.163 184.964 210.750 C 184.984 210.338 166.775 210.000 144.500 210.000 C 122.225 210.000 104.000 210.277 104.000 210.616 "/></g>
<g fill="#E70055FF" stroke="#E70055FF">
<path d="M 204.907 44.328 C 191.305 51.511 191.359 71.456 205.000 78.751 C 214.202 83.672 225.749 80.117 231.034 70.736 C 238.107 58.181 228.515 42.000 214.000 42.000 C 211.024 42.000 207.707 42.849 204.907 44.328 M 216.924 57.850 C 219.357 59.331 221.489 60.983 221.661 61.521 C 222.041 62.708 210.528 69.195 209.632 68.299 C 209.285 67.951 209.000 64.817 209.000 61.333 C 209.000 53.900 209.833 53.534 216.924 57.850 "/></g>
<g fill="#AAAAAAFF" stroke="#AAAAAAFF">
<path d="M 116.805 22.000 L 112.136 30.000 132.151 30.000 C 143.683 30.000 152.025 29.616 151.833 29.094 C 151.650 28.596 149.700 25.007 147.500 21.118 L 143.500 14.046 132.486 14.023 L 121.473 14.000 116.805 22.000 "/></g>
<g fill="#AAAAAAFF" stroke="#AAAAAAFF">
<path d="M 95.907 197.250 L 100.784 205.500 106.892 205.798 L 113.000 206.095 113.000 202.748 C 113.000 197.922 114.475 197.000 122.200 197.000 L 129.000 197.000 129.000 193.000 L 129.000 189.000 110.015 189.000 L 91.030 189.000 95.907 197.250 "/></g>
<g fill="#FFFFFFFF" stroke="#FFFFFFFF">
<path d="M 116.000 203.500 L 116.000 206.000 151.500 206.000 L 187.000 206.000 187.000 203.500 L 187.000 201.000 151.500 201.000 L 116.000 201.000 116.000 203.500 "/></g>
<g fill="#416573FF" stroke="#416573FF">
<path d="M 178.975 107.565 C 178.439 108.976 178.000 111.197 178.000 112.500 C 178.000 113.803 178.439 116.024 178.975 117.435 C 179.920 119.921 180.223 120.000 188.775 120.000 C 194.306 120.000 198.048 119.552 198.800 118.800 C 199.460 118.140 200.000 115.305 200.000 112.500 C 200.000 109.695 199.460 106.860 198.800 106.200 C 198.048 105.448 194.306 105.000 188.775 105.000 C 180.223 105.000 179.920 105.079 178.975 107.565 M 191.896 111.866 C 192.986 112.594 192.603 113.154 190.146 114.425 L 187.000 116.051 187.000 112.490 C 187.000 108.760 187.208 108.734 191.896 111.866 "/></g>
<g fill="#416573FF" stroke="#416573FF">
<path d="M 106.975 107.565 C 106.439 108.976 106.000 111.197 106.000 112.500 C 106.000 113.803 106.439 116.024 106.975 117.435 C 107.920 119.921 108.223 120.000 116.775 120.000 C 122.306 120.000 126.048 119.552 126.800 118.800 C 128.357 117.243 128.357 107.757 126.800 106.200 C 126.048 105.448 122.306 105.000 116.775 105.000 C 108.223 105.000 107.920 105.079 106.975 107.565 M 119.896 111.866 C 120.986 112.594 120.603 113.154 118.146 114.425 L 115.000 116.051 115.000 112.490 C 115.000 108.760 115.208 108.734 119.896 111.866 "/></g>
<g fill="#416573FF" stroke="#416573FF">
<path d="M 142.975 107.565 C 142.439 108.976 142.000 111.197 142.000 112.500 C 142.000 113.803 142.439 116.024 142.975 117.435 C 143.920 119.921 144.223 120.000 152.775 120.000 C 158.306 120.000 162.048 119.552 162.800 118.800 C 164.272 117.328 164.380 109.578 162.965 106.934 C 162.059 105.242 160.804 105.000 152.940 105.000 C 144.210 105.000 143.922 105.074 142.975 107.565 M 155.896 111.866 C 156.986 112.594 156.603 113.154 154.146 114.425 L 151.000 116.051 151.000 112.490 C 151.000 108.760 151.208 108.734 155.896 111.866 "/></g>
<g fill="#C1CEDDFF" stroke="#C1CEDDFF">
<path d="M 54.571 63.571 C 53.188 64.955 53.000 70.702 53.000 111.630 C 53.000 142.368 53.339 157.909 54.000 157.500 C 54.642 157.103 55.000 140.968 55.000 112.375 C 55.000 83.608 55.366 67.184 56.035 65.934 C 56.990 64.150 58.269 64.000 72.535 64.000 C 82.178 64.000 88.000 63.624 88.000 63.000 C 88.000 62.375 82.024 62.000 72.071 62.000 C 58.924 62.000 55.868 62.274 54.571 63.571 "/></g>
<g fill="#E7EDF7FF" stroke="#E7EDF7FF">
<path d="M 137.000 89.500 L 137.000 92.000 162.500 92.000 L 188.000 92.000 188.000 89.500 L 188.000 87.000 162.500 87.000 L 137.000 87.000 137.000 89.500 "/></g>
<g fill="#E7EDF7FF" stroke="#E7EDF7FF">
<path d="M 135.000 60.891 C 135.000 63.445 136.672 63.565 166.750 63.160 C 190.820 62.837 192.000 62.732 192.000 60.910 C 192.000 59.075 190.888 59.000 163.500 59.000 C 136.216 59.000 135.000 59.081 135.000 60.891 "/></g>
<g fill="#94A9B6FF" stroke="#94A9B6FF">
<path d="M 52.667 161.667 C 52.300 162.033 52.007 162.821 52.015 163.417 C 52.024 164.063 52.350 163.998 52.821 163.255 C 53.441 162.278 74.728 161.954 151.556 161.750 L 249.500 161.490 151.417 161.245 C 97.471 161.110 53.033 161.300 52.667 161.667 "/></g>
<g fill="#416573FF" stroke="#416573FF">
<path d="M 235.000 208.000 C 235.000 209.998 235.439 210.033 257.250 209.769 C 276.241 209.539 279.500 209.280 279.500 208.000 C 279.500 206.720 276.241 206.461 257.250 206.231 C 235.439 205.967 235.000 206.002 235.000 208.000 "/></g>
<g fill="#416573FF" stroke="#416573FF">
<path d="M 14.000 208.000 C 14.000 209.998 14.439 210.033 36.250 209.769 C 55.241 209.539 58.500 209.280 58.500 208.000 C 58.500 206.720 55.241 206.461 36.250 206.231 C 14.439 205.967 14.000 206.002 14.000 208.000 "/></g>
<g fill="#AAAAAAFF" stroke="#AAAAAAFF">
<path d="M 175.000 193.000 L 175.000 197.000 181.429 197.000 C 186.020 197.000 188.320 197.463 189.476 198.619 C 190.367 199.510 191.233 200.072 191.401 199.869 C 192.312 198.771 197.000 190.224 197.000 189.662 C 197.000 189.298 192.050 189.000 186.000 189.000 L 175.000 189.000 175.000 193.000 "/></g>
<g fill="#E7EDF7FF" stroke="#E7EDF7FF">
<path d="M 95.459 50.250 C 95.195 50.938 95.101 75.125 95.249 104.000 L 95.518 156.500 95.759 103.266 L 96.000 50.032 123.750 49.749 L 151.500 49.467 123.719 49.234 C 102.241 49.053 95.829 49.284 95.459 50.250 "/></g>
<g fill="#FFFFFFFF" stroke="#FFFFFFFF">
<path d="M 132.000 195.000 C 132.000 196.932 132.667 197.000 151.500 197.000 C 170.333 197.000 171.000 196.932 171.000 195.000 C 171.000 193.068 170.333 193.000 151.500 193.000 C 132.667 193.000 132.000 193.068 132.000 195.000 "/></g>
<g fill="#FFFFFFFF" stroke="#FFFFFFFF">
<path d="M 293.655 151.829 C 291.458 154.256 291.550 159.283 293.829 161.345 C 296.256 163.542 301.283 163.450 303.345 161.171 C 305.542 158.744 305.450 153.717 303.171 151.655 C 300.744 149.458 295.717 149.550 293.655 151.829 M 300.812 156.265 C 301.210 158.331 298.324 159.724 296.800 158.200 C 295.276 156.676 296.669 153.790 298.735 154.188 C 299.693 154.372 300.628 155.307 300.812 156.265 "/></g>
<g fill="#C1CEDDFF" stroke="#C1CEDDFF">
<path d="M 132.000 190.500 C 132.000 191.782 134.833 192.000 151.500 192.000 C 168.167 192.000 171.000 191.782 171.000 190.500 C 171.000 189.218 168.167 189.000 151.500 189.000 C 134.833 189.000 132.000 189.218 132.000 190.500 "/></g>
<g fill="#C1CEDDFF" stroke="#C1CEDDFF">
<path d="M 236.406 62.848 C 236.798 63.481 238.779 64.007 240.809 64.015 C 247.900 64.045 247.445 61.001 248.020 112.213 L 248.539 158.500 248.754 112.000 C 248.873 86.425 248.639 65.050 248.235 64.500 C 247.831 63.950 246.600 63.397 245.500 63.271 C 244.400 63.144 241.744 62.738 239.597 62.368 C 236.769 61.881 235.890 62.013 236.406 62.848 "/></g>
<g fill="#94A9B6FF" stroke="#94A9B6FF">
<path d="M 52.485 112.250 C 52.497 148.629 52.767 158.479 53.750 158.400 C 54.438 158.345 54.554 158.233 54.010 158.150 C 53.378 158.054 52.921 141.375 52.745 112.000 L 52.470 66.000 52.485 112.250 "/></g>
<g fill="#416573FF" stroke="#416573FF">
<path d="M 118.175 89.211 C 118.486 91.403 118.883 91.500 127.500 91.500 C 135.833 91.500 136.500 91.352 136.500 89.500 C 136.500 87.664 135.737 87.476 127.175 87.211 C 117.961 86.926 117.855 86.950 118.175 89.211 "/></g>
<g fill="#FFFFFFFF" stroke="#FFFFFFFF">
<path d="M 210.000 61.417 C 210.000 65.038 210.338 67.965 210.750 67.921 C 212.544 67.733 220.253 62.407 220.043 61.500 C 219.916 60.950 217.605 59.225 214.906 57.667 L 210.000 54.835 210.000 61.417 "/></g>
<g fill="#416573FF" stroke="#416573FF">
<path d="M 72.000 208.000 C 72.000 209.778 72.667 210.000 78.000 210.000 C 83.333 210.000 84.000 209.778 84.000 208.000 C 84.000 206.222 83.333 206.000 78.000 206.000 C 72.667 206.000 72.000 206.222 72.000 208.000 "/></g>
<g fill="#AAAAAAFF" stroke="#AAAAAAFF">
<path d="M 131.336 195.000 L 131.500 197.500 151.250 197.488 L 171.000 197.476 151.570 197.238 C 132.317 197.002 132.135 196.979 131.656 194.750 C 131.230 192.767 131.192 192.797 131.336 195.000 "/></g>
<g fill="#94A9B6FF" stroke="#94A9B6FF">
<path d="M 131.374 189.467 C 131.065 190.274 131.043 191.511 131.327 192.217 C 131.610 192.923 131.878 192.497 131.921 191.271 C 132.000 189.054 132.106 189.041 151.750 188.749 L 171.500 188.455 151.719 188.228 C 135.109 188.036 131.847 188.235 131.374 189.467 "/></g>
<g fill="#FFFFFFFF" stroke="#FFFFFFFF">
<path d="M 288.011 166.487 C 286.532 168.269 287.317 170.801 289.622 171.685 C 291.990 172.594 294.238 169.313 292.926 166.862 C 291.725 164.618 289.691 164.463 288.011 166.487 "/></g>
<g fill="#416573FF" stroke="#416573FF">
<path d="M 63.500 207.000 C 62.447 208.704 63.985 210.000 67.059 210.000 C 69.333 210.000 70.000 209.547 70.000 208.000 C 70.000 206.453 69.333 206.000 67.059 206.000 C 65.441 206.000 63.840 206.450 63.500 207.000 "/></g>
<g fill="#F1F6FEFF" stroke="#F1F6FEFF">
<path d="M 143.000 134.757 C 143.000 135.174 146.713 135.381 151.250 135.217 C 163.793 134.763 164.673 134.288 153.250 134.136 C 147.613 134.061 143.000 134.341 143.000 134.757 "/></g>
<g fill="#F1F6FEFF" stroke="#F1F6FEFF">
<path d="M 143.000 126.750 C 143.000 127.163 147.506 127.438 153.015 127.363 C 158.524 127.287 162.312 126.950 161.433 126.613 C 159.143 125.734 143.000 125.854 143.000 126.750 "/></g>
<g fill="#000000FF" stroke="#000000FF">
<path d="M 296.364 155.493 C 296.018 156.396 296.214 157.614 296.800 158.200 C 298.324 159.724 301.210 158.331 300.812 156.265 C 300.369 153.963 297.165 153.407 296.364 155.493 "/></g>
<g fill="#FF665DFF" stroke="#FF665DFF">
<path d="M 103.300 59.263 C 102.793 59.943 102.405 61.175 102.439 62.000 C 102.513 63.808 106.160 64.020 106.750 62.250 C 106.997 61.509 106.294 61.000 105.024 61.000 C 103.846 61.000 103.148 60.570 103.473 60.044 C 103.798 59.518 104.837 59.327 105.782 59.619 C 107.340 60.101 107.347 60.052 105.862 59.088 C 104.671 58.316 103.971 58.364 103.300 59.263 "/></g>
<g fill="#FFC62FFF" stroke="#FFC62FFF">
<path d="M 113.250 58.731 C 112.563 58.970 112.000 60.084 112.000 61.206 C 112.000 62.878 112.262 63.027 113.456 62.036 C 114.257 61.372 115.382 61.118 115.956 61.473 C 116.530 61.828 117.000 61.465 117.000 60.666 C 117.000 59.034 115.137 58.072 113.250 58.731 "/></g>
<g fill="#FFFFFFFF" stroke="#FFFFFFFF">
<path d="M 152.000 113.035 C 152.000 114.803 152.280 114.920 154.135 113.928 C 155.841 113.015 155.992 112.609 154.885 111.908 C 152.730 110.543 152.000 110.828 152.000 113.035 "/></g>
<g fill="#FFFFFFFF" stroke="#FFFFFFFF">
<path d="M 188.000 113.057 C 188.000 114.929 188.184 114.985 190.045 113.681 C 191.836 112.426 191.888 112.171 190.463 111.624 C 188.114 110.723 188.000 110.789 188.000 113.057 "/></g>
<g fill="#FFFFFFFF" stroke="#FFFFFFFF">
<path d="M 116.000 113.057 C 116.000 114.929 116.184 114.985 118.045 113.681 C 119.836 112.426 119.888 112.171 118.463 111.624 C 116.114 110.723 116.000 110.789 116.000 113.057 "/></g>
<g fill="#F1F6FEFF" stroke="#F1F6FEFF">
<path d="M 134.321 61.500 C 134.482 63.059 135.241 63.488 137.764 63.444 C 140.554 63.397 140.597 63.362 138.073 63.194 C 136.264 63.074 134.950 62.332 134.631 61.250 C 134.230 59.890 134.161 59.946 134.321 61.500 "/></g>
<g fill="#FFBA00FF" stroke="#FFBA00FF">
<path d="M 113.459 62.067 C 112.539 63.556 113.606 64.365 115.520 63.631 C 116.404 63.292 116.847 62.561 116.504 62.007 C 115.694 60.696 114.289 60.723 113.459 62.067 "/></g>
<g fill="#F1F6FEFF" stroke="#F1F6FEFF">
<path d="M 187.086 112.750 L 187.172 115.500 187.999 112.750 C 188.480 111.153 188.444 110.000 187.914 110.000 C 187.411 110.000 187.039 111.238 187.086 112.750 "/></g>
<g fill="#F1F6FEFF" stroke="#F1F6FEFF">
<path d="M 151.086 112.750 L 151.172 115.500 151.999 112.750 C 152.480 111.153 152.444 110.000 151.914 110.000 C 151.411 110.000 151.039 111.238 151.086 112.750 "/></g>
<g fill="#F1F6FEFF" stroke="#F1F6FEFF">
<path d="M 115.086 112.750 L 115.172 115.500 115.999 112.750 C 116.480 111.153 116.444 110.000 115.914 110.000 C 115.411 110.000 115.039 111.238 115.086 112.750 "/></g>
<g fill="#E7EDF7FF" stroke="#E7EDF7FF">
<path d="M 209.552 156.085 C 209.863 156.588 211.104 156.961 212.309 156.914 C 214.177 156.841 214.094 156.706 211.743 155.999 C 210.105 155.506 209.216 155.541 209.552 156.085 "/></g>
<g fill="#AAAAAAFF" stroke="#AAAAAAFF">
<path d="M 212.500 39.089 C 210.810 39.740 210.771 39.870 212.250 39.930 C 213.213 39.968 214.113 39.622 214.250 39.159 C 214.388 38.697 213.600 38.665 212.500 39.089 "/></g>
<g fill="#AAAAAAFF" stroke="#AAAAAAFF">
<path d="M 178.030 117.691 C 178.014 118.346 178.507 119.195 179.126 119.578 C 179.955 120.090 179.963 119.776 179.157 118.387 C 178.554 117.349 178.047 117.036 178.030 117.691 "/></g>
<g fill="#AAAAAAFF" stroke="#AAAAAAFF">
<path d="M 106.030 117.691 C 106.014 118.346 106.507 119.195 107.126 119.578 C 107.955 120.090 107.963 119.776 107.157 118.387 C 106.554 117.349 106.047 117.036 106.030 117.691 "/></g>
<g fill="#C1CEDDFF" stroke="#C1CEDDFF">
<path d="M 214.422 84.126 C 213.910 84.955 214.224 84.963 215.613 84.157 C 216.651 83.554 216.964 83.047 216.309 83.030 C 215.654 83.014 214.805 83.507 214.422 84.126 "/></g>
<g fill="#E7EDF7FF" stroke="#E7EDF7FF">
<path d="M 252.500 58.500 L 254.000 60.000 252.500 58.500 L 251.000 57.000 252.500 58.500 "/></g>
</svg>
